<svg id="svg" version="1.1" xmlns="http://www.w3.org/2000/svg" xmlns:xlink="http://www.w3.org/1999/xlink" width="400" height="400" viewBox="0, 0, 400,400"><g id="svgg"><path id="path0" d="M0.000 200.000 L 0.000 400.000 200.000 400.000 L 400.000 400.000 400.000 200.000 L 400.000 0.000 200.000 0.000 L 0.000 0.000 0.000 200.000 M84.916 189.056 C 86.792 190.277,89.916 193.775,90.682 195.509 C 91.721 197.863,91.232 204.307,89.898 205.829 C 89.624 206.142,88.770 207.178,88.000 208.132 C 83.542 213.656,75.436 213.903,70.114 208.677 C 69.175 207.755,68.405 206.810,68.403 206.578 C 68.401 206.345,67.950 205.545,67.400 204.800 C 66.205 203.181,65.950 197.810,66.982 196.000 C 67.295 195.450,67.824 194.460,68.157 193.800 C 69.084 191.962,70.886 190.097,72.417 189.390 C 73.178 189.039,74.250 188.482,74.800 188.153 C 76.556 187.100,82.766 187.655,84.916 189.056 M273.604 190.611 C 273.793 191.107,273.958 193.701,273.971 196.376 C 274.000 202.387,274.134 202.938,275.728 203.640 C 277.502 204.421,277.861 207.716,276.253 208.449 C 274.877 209.075,271.870 208.561,270.946 207.541 C 269.754 206.226,269.584 191.216,270.747 190.053 C 271.728 189.072,273.123 189.345,273.604 190.611 M306.826 189.614 C 307.711 190.088,307.907 192.679,307.163 194.069 C 306.847 194.660,306.847 195.007,307.163 195.323 C 307.684 195.844,307.763 207.123,307.252 207.930 C 306.696 208.806,303.856 208.999,303.072 208.214 C 302.133 207.276,302.065 196.376,302.993 195.606 C 303.516 195.172,303.516 195.016,302.993 194.268 C 300.934 191.329,303.717 187.950,306.826 189.614 M95.200 199.765 C 95.200 209.543,95.033 210.482,93.405 209.857 C 92.623 209.557,92.487 190.873,93.261 190.099 C 94.898 188.462,95.200 189.965,95.200 199.765 M111.600 192.300 C 112.001 192.795,112.475 193.200,112.654 193.200 C 115.309 193.200,116.980 202.677,114.600 204.237 C 114.050 204.597,113.600 205.135,113.600 205.432 C 113.600 206.074,112.366 206.800,111.275 206.800 C 110.847 206.800,110.229 207.205,109.901 207.700 C 109.098 208.911,101.044 209.314,99.384 208.227 L 98.400 207.582 98.400 199.811 C 98.400 190.423,97.804 191.154,105.336 191.296 C 110.531 191.394,110.917 191.455,111.600 192.300 M137.269 191.862 C 137.694 192.247,138.000 193.073,138.000 193.835 C 138.000 194.783,138.216 195.215,138.780 195.394 C 140.114 195.817,140.252 197.235,139.051 198.192 C 137.574 199.370,137.465 203.363,138.900 203.748 C 140.714 204.234,140.800 204.123,140.800 201.289 C 140.800 198.851,140.911 198.473,141.900 197.535 C 142.505 196.962,143.207 196.228,143.461 195.905 C 143.807 195.464,145.244 195.263,149.261 195.097 C 156.350 194.802,156.000 194.454,156.000 201.813 C 156.000 208.825,156.245 208.498,151.000 208.494 C 150.340 208.493,148.831 208.515,147.646 208.542 C 145.828 208.584,145.399 208.451,144.897 207.696 C 144.570 207.203,144.049 206.800,143.739 206.800 C 143.429 206.800,143.071 206.530,142.945 206.200 C 142.578 205.244,142.120 205.500,141.859 206.807 C 141.487 208.665,135.838 209.713,135.276 208.028 C 135.189 207.768,134.861 207.340,134.545 207.078 C 132.756 205.586,132.800 205.797,132.800 198.791 C 132.800 192.783,132.877 191.995,133.500 191.632 C 134.570 191.009,136.453 191.124,137.269 191.862 M171.777 192.089 C 173.940 195.177,170.047 198.301,167.577 195.459 C 166.677 194.425,164.914 194.439,164.513 195.484 C 164.391 195.801,163.888 196.215,163.395 196.402 C 161.559 197.100,161.805 201.377,163.759 202.715 C 165.483 203.897,168.515 203.942,169.493 202.800 C 170.354 201.794,170.887 201.791,171.791 202.791 C 172.833 203.941,173.199 203.445,173.206 200.876 C 173.213 198.420,173.418 197.883,174.500 197.483 C 174.885 197.341,175.200 196.956,175.200 196.627 C 175.200 195.537,176.890 195.062,180.661 195.092 C 185.259 195.129,185.846 195.322,186.393 196.978 C 186.636 197.715,187.187 198.724,187.617 199.220 C 188.774 200.554,188.667 202.990,187.400 204.165 C 186.850 204.675,186.400 205.290,186.400 205.532 C 186.400 205.774,186.044 206.162,185.609 206.395 C 185.174 206.628,184.372 207.264,183.827 207.809 C 182.304 209.333,179.049 209.229,176.989 207.591 C 174.487 205.603,172.024 205.666,170.321 207.764 C 169.226 209.113,162.880 208.989,161.440 207.591 C 160.879 207.046,160.047 206.240,159.591 205.800 C 157.006 203.305,157.069 203.456,157.034 199.665 C 157.003 196.350,157.075 196.010,158.000 195.101 C 158.550 194.561,159.416 193.563,159.926 192.884 C 161.032 191.407,161.385 191.324,166.877 191.254 C 170.875 191.204,171.195 191.258,171.777 192.089 M233.203 192.757 L 234.872 194.314 235.094 200.699 C 235.307 206.827,235.281 207.119,234.466 207.934 C 232.859 209.541,230.000 208.399,230.000 206.151 L 230.000 204.800 227.800 204.800 C 226.590 204.800,225.465 204.755,225.300 204.700 C 225.135 204.645,224.945 205.261,224.878 206.070 C 224.734 207.800,224.300 208.235,222.362 208.597 C 219.812 209.074,219.600 208.508,219.600 201.222 L 219.600 194.900 221.373 193.050 L 223.145 191.200 227.339 191.200 L 231.533 191.200 233.203 192.757 M297.290 192.132 C 297.454 192.389,297.591 193.183,297.594 193.895 C 297.600 195.098,297.716 195.209,299.215 195.449 C 302.113 195.912,301.954 198.138,299.000 198.467 C 297.815 198.598,297.800 198.630,297.800 200.993 L 297.800 203.386 299.342 203.637 C 302.505 204.151,302.624 208.154,299.490 208.663 C 296.854 209.091,295.422 208.548,293.846 206.525 L 292.400 204.669 292.400 198.583 C 292.400 192.251,292.484 191.920,294.200 191.482 C 295.275 191.208,296.922 191.554,297.290 192.132 M207.988 195.347 C 209.909 195.567,210.800 196.363,210.800 197.858 C 210.800 198.356,211.274 199.238,211.854 199.817 C 213.598 201.561,212.392 202.343,207.460 202.667 C 203.237 202.944,202.977 203.550,207.081 203.550 C 210.812 203.550,211.656 205.047,209.233 207.369 C 206.618 209.874,203.133 209.356,199.800 205.967 C 199.580 205.744,198.995 205.177,198.500 204.708 C 197.751 203.998,197.600 203.431,197.600 201.315 C 197.600 198.515,197.249 198.097,195.469 198.774 C 194.405 199.178,194.400 199.199,194.400 203.341 C 194.400 208.079,194.185 208.477,191.579 208.545 C 189.350 208.603,189.213 208.224,189.206 201.976 C 189.198 194.696,189.054 194.815,197.461 195.180 C 197.714 195.191,198.115 195.754,198.351 196.430 C 198.766 197.623,199.600 197.730,199.600 196.590 C 199.600 195.811,200.885 195.200,202.525 195.200 C 203.282 195.200,204.130 194.925,204.408 194.590 C 204.852 194.056,204.995 194.052,205.557 194.561 C 205.911 194.880,207.004 195.234,207.988 195.347 M329.139 194.500 C 329.413 194.775,330.484 195.181,331.519 195.403 C 333.464 195.819,334.459 198.045,332.800 198.271 C 332.470 198.316,330.760 198.486,329.000 198.648 L 325.800 198.943 328.363 199.287 C 336.015 200.315,335.414 208.811,327.689 208.794 C 323.802 208.786,323.000 208.271,323.000 205.788 L 323.000 203.800 324.600 203.686 C 327.304 203.493,327.521 203.117,325.200 202.646 C 323.112 202.223,322.981 202.124,322.629 200.700 C 322.276 199.269,320.000 198.311,320.000 199.592 C 320.000 200.645,317.856 200.514,316.973 199.407 C 315.223 197.212,313.189 199.082,313.665 202.448 C 313.796 203.369,313.901 203.396,316.902 203.287 C 321.198 203.130,323.711 205.217,320.634 206.387 C 320.103 206.589,319.557 207.105,319.421 207.534 C 318.839 209.368,312.400 209.232,312.400 207.386 C 312.400 207.064,312.050 206.800,311.622 206.800 C 309.728 206.800,308.630 205.093,308.469 201.895 L 308.318 198.903 310.169 197.052 C 311.559 195.662,312.324 195.200,313.237 195.200 C 313.905 195.200,314.815 195.006,315.258 194.769 C 315.700 194.532,316.363 194.475,316.731 194.642 C 317.099 194.809,318.300 195.138,319.400 195.373 C 321.334 195.786,321.404 195.850,321.524 197.300 C 321.662 198.962,322.400 199.383,322.400 197.800 C 322.400 196.406,323.736 195.203,325.300 195.187 C 326.015 195.180,326.949 194.910,327.376 194.587 C 328.322 193.872,328.503 193.863,329.139 194.500 M243.002 195.200 C 243.965 195.200,244.864 195.020,245.001 194.799 C 245.151 194.556,245.516 194.536,245.924 194.746 C 246.296 194.938,247.320 195.224,248.200 195.381 C 251.050 195.891,251.200 196.233,251.200 202.200 C 251.200 208.303,250.829 209.127,248.327 208.591 C 246.098 208.115,246.000 207.886,246.000 203.151 L 246.000 198.800 244.658 198.800 L 243.316 198.800 243.061 201.500 C 242.920 202.985,242.804 205.044,242.803 206.076 C 242.800 208.173,242.786 208.189,240.715 208.563 C 237.934 209.064,237.567 208.201,237.744 201.587 C 237.914 195.257,238.347 194.096,240.265 194.825 C 240.808 195.031,242.040 195.200,243.002 195.200 M263.548 195.080 C 267.241 194.977,267.186 194.872,267.194 202.086 C 267.201 209.115,267.547 208.711,261.504 208.734 C 257.336 208.750,256.000 208.386,256.000 207.236 C 256.000 207.067,255.550 206.723,255.000 206.473 C 254.450 206.222,254.000 205.764,254.000 205.455 C 254.000 205.145,253.529 204.584,252.954 204.206 C 251.634 203.341,251.705 199.818,253.074 198.297 C 253.518 197.804,253.993 197.082,254.130 196.694 C 254.422 195.867,255.973 195.200,257.602 195.200 C 258.235 195.200,258.864 195.020,259.001 194.799 C 259.161 194.540,259.501 194.533,259.960 194.779 C 260.351 194.988,261.966 195.123,263.548 195.080 M103.686 199.100 L 103.800 203.400 105.847 203.519 C 109.003 203.703,110.400 202.366,110.400 199.161 L 110.400 196.794 108.800 196.153 C 107.920 195.801,107.200 195.353,107.200 195.157 C 107.200 194.960,106.384 194.800,105.386 194.800 L 103.573 194.800 103.686 199.100 M129.757 195.637 L 130.822 196.475 130.711 202.109 L 130.600 207.742 129.287 208.278 C 128.064 208.776,127.912 208.746,127.075 207.843 L 126.176 206.874 125.318 207.837 C 124.195 209.098,119.200 208.882,119.200 207.573 C 119.200 207.358,118.749 206.977,118.198 206.726 C 115.925 205.691,115.807 198.836,118.023 196.600 C 119.168 195.444,119.376 195.392,123.706 195.174 C 126.178 195.050,128.311 194.915,128.446 194.874 C 128.581 194.833,129.171 195.177,129.757 195.637 M225.872 196.031 C 223.494 198.410,225.407 200.241,229.300 199.313 C 230.331 199.067,230.167 197.460,228.964 196.031 C 227.725 194.557,227.345 194.558,225.872 196.031 M280.711 195.423 C 281.200 195.765,281.603 196.440,281.606 196.923 C 281.609 197.405,281.774 198.055,281.971 198.367 C 282.184 198.703,282.177 199.334,281.954 199.921 C 281.650 200.722,281.732 201.017,282.389 201.477 C 282.835 201.790,283.200 202.295,283.200 202.599 C 283.200 205.879,286.121 202.168,286.377 198.563 C 286.622 195.112,287.326 194.343,289.700 194.939 C 291.151 195.303,291.322 195.994,291.408 201.800 C 291.496 207.815,291.455 207.944,288.347 211.253 L 286.894 212.800 283.247 212.800 C 280.133 212.800,279.483 212.683,278.800 212.000 C 276.953 210.153,278.425 206.919,280.801 207.600 C 282.100 207.973,283.200 207.769,283.200 207.157 C 283.200 206.961,282.310 206.800,281.223 206.800 C 278.945 206.800,278.000 205.909,278.000 203.760 C 278.000 203.066,277.730 202.274,277.400 202.000 C 275.818 200.687,276.803 195.818,278.800 195.084 C 279.714 194.748,279.759 194.756,280.711 195.423 M122.486 198.738 C 120.946 199.715,121.664 203.600,123.383 203.600 C 124.892 203.600,127.163 201.154,126.096 200.678 C 125.654 200.480,125.095 199.887,124.854 199.359 C 124.414 198.393,123.435 198.136,122.486 198.738 M203.144 198.834 C 202.177 199.432,203.090 199.637,205.051 199.262 C 206.123 199.057,206.640 198.846,206.200 198.794 C 204.008 198.531,203.627 198.536,203.144 198.834 M258.352 199.764 C 256.756 201.450,256.915 202.829,258.763 203.305 C 261.319 203.963,262.000 203.486,262.000 201.038 C 262.000 198.228,260.350 197.652,258.352 199.764 M146.178 199.745 C 145.398 202.853,146.409 203.987,149.452 203.417 C 151.064 203.114,151.440 200.703,150.069 199.462 C 148.901 198.406,146.470 198.582,146.178 199.745 M178.400 201.013 C 178.400 203.585,178.777 203.887,181.324 203.351 C 184.369 202.711,182.984 198.839,179.700 198.811 L 178.400 198.800 178.400 201.013 M284.800 207.200 C 285.576 207.701,286.000 207.701,286.000 207.200 C 286.000 206.980,285.595 206.803,285.100 206.806 C 284.372 206.811,284.315 206.886,284.800 207.200 " stroke="none" fill="#ffffff" fill-rule="evenodd"></path><path id="path1" d="M303.610 190.587 C 302.927 191.411,303.469 193.600,304.355 193.600 C 305.651 193.600,307.391 191.169,306.462 190.656 C 305.471 190.108,304.037 190.073,303.610 190.587 M271.456 190.678 C 271.315 190.818,271.200 194.225,271.200 198.248 C 271.200 206.605,271.564 207.600,274.618 207.600 C 276.494 207.600,276.701 205.482,274.900 204.714 C 272.411 203.653,272.400 203.620,272.400 196.962 C 272.400 191.399,272.182 189.951,271.456 190.678 M99.467 192.667 C 99.135 192.998,99.122 205.468,99.452 206.700 C 99.801 208.002,107.830 208.093,108.993 206.808 C 109.387 206.372,110.295 205.906,111.011 205.772 C 115.249 204.977,116.139 198.300,112.488 194.687 L 110.177 192.400 104.955 192.400 C 102.083 192.400,99.613 192.520,99.467 192.667 M133.867 192.667 C 133.720 192.813,133.600 195.636,133.600 198.938 L 133.600 204.943 135.050 206.272 C 136.140 207.270,136.861 207.598,137.950 207.594 C 140.426 207.583,140.534 207.155,138.582 205.089 C 136.271 202.643,136.017 199.852,137.943 198.054 L 139.085 196.986 137.943 195.939 C 137.154 195.217,136.800 194.506,136.800 193.646 C 136.800 192.425,134.782 191.751,133.867 192.667 M160.078 194.592 C 156.491 198.377,157.390 203.390,162.202 206.442 C 164.358 207.809,168.282 208.107,169.222 206.974 C 169.508 206.629,170.263 206.078,170.899 205.749 C 172.997 204.664,171.700 204.057,167.805 204.300 C 162.347 204.641,161.200 203.690,161.200 198.825 C 161.200 194.638,165.479 192.298,168.855 194.638 C 170.623 195.863,171.200 195.651,171.200 193.776 L 171.200 192.400 166.678 192.400 L 162.156 192.400 160.078 194.592 M222.518 193.500 C 222.133 194.105,221.706 194.690,221.569 194.800 C 220.558 195.611,220.391 197.876,220.736 206.125 C 220.824 208.215,223.302 208.282,223.533 206.200 C 223.808 203.727,226.759 202.791,230.340 204.039 C 231.612 204.482,231.742 204.708,231.623 206.248 C 231.557 207.084,232.918 207.822,233.669 207.357 C 233.851 207.245,234.000 204.437,234.000 201.117 L 234.000 195.081 232.620 193.740 C 230.636 191.813,223.697 191.648,222.518 193.500 M294.100 192.665 C 292.861 193.165,293.459 203.320,294.860 205.573 L 296.120 207.600 298.285 207.600 L 300.451 207.600 300.325 206.334 C 300.217 205.234,299.989 205.009,298.600 204.623 C 295.383 203.729,295.606 198.528,298.913 197.336 L 300.200 196.872 298.886 196.583 C 297.348 196.245,296.400 195.074,296.400 193.511 C 296.400 192.399,295.541 192.083,294.100 192.665 M109.258 194.935 C 109.996 195.528,110.847 196.217,111.149 196.468 C 112.180 197.323,111.515 202.370,110.225 203.480 C 109.008 204.527,104.192 204.832,103.280 203.920 C 102.604 203.244,102.622 194.744,103.300 194.046 C 104.161 193.160,107.706 193.690,109.258 194.935 M229.866 194.509 C 230.129 194.779,230.700 195.949,231.136 197.108 L 231.929 199.216 230.784 199.808 C 229.410 200.519,225.154 200.594,224.480 199.920 C 224.216 199.656,224.000 198.685,224.000 197.761 C 224.000 194.637,227.894 192.478,229.866 194.509 M121.037 196.333 C 118.316 196.643,116.278 202.100,117.918 204.681 C 119.311 206.873,123.848 208.303,124.877 206.876 C 125.819 205.570,126.358 205.513,127.378 206.614 C 127.917 207.196,128.548 207.556,128.779 207.413 C 129.382 207.040,129.344 196.936,128.739 196.562 C 128.254 196.262,123.021 196.106,121.037 196.333 M144.876 196.321 C 144.367 196.399,143.846 196.763,143.718 197.131 C 143.589 197.499,143.126 198.089,142.689 198.442 C 142.156 198.872,141.833 199.729,141.710 201.042 C 141.376 204.612,147.650 209.350,149.600 207.000 C 149.874 206.670,150.324 206.400,150.600 206.400 C 150.876 206.400,151.326 206.670,151.600 207.000 C 152.158 207.672,153.500 207.778,154.384 207.218 C 154.938 206.868,155.168 197.034,154.634 196.500 C 154.413 196.280,146.143 196.128,144.876 196.321 M178.032 196.280 C 174.255 196.780,172.632 202.015,175.451 204.607 C 176.303 205.390,177.379 206.384,177.842 206.815 C 180.159 208.974,184.238 207.229,186.319 203.189 L 187.310 201.266 186.455 200.179 C 185.985 199.581,185.597 198.711,185.594 198.246 C 185.591 197.781,185.456 197.197,185.294 196.948 C 184.966 196.443,180.146 195.999,178.032 196.280 M190.566 196.454 C 190.211 197.029,190.337 206.897,190.704 207.264 C 192.092 208.652,193.199 207.169,193.247 203.857 C 193.321 198.798,193.507 198.294,195.534 197.652 C 196.486 197.351,197.115 196.964,196.932 196.793 C 196.500 196.387,190.795 196.084,190.566 196.454 M202.331 196.347 C 200.271 196.702,198.399 199.088,198.402 201.355 C 198.404 203.049,198.321 202.932,202.172 206.700 C 203.752 208.246,207.085 207.995,208.499 206.223 C 209.845 204.536,209.627 204.381,206.043 204.489 C 202.853 204.585,201.700 203.974,202.186 202.445 C 202.432 201.669,202.743 201.600,205.994 201.600 C 210.690 201.600,210.890 201.513,210.167 199.783 C 209.855 199.036,209.600 198.071,209.600 197.636 C 209.600 196.441,205.746 195.757,202.331 196.347 M238.960 196.561 C 238.858 196.825,238.826 199.373,238.887 202.221 L 239.000 207.400 240.243 207.521 C 241.661 207.659,242.000 206.472,242.000 201.373 C 242.000 198.532,242.581 197.600,244.352 197.600 C 246.593 197.600,246.962 198.307,247.133 202.937 L 247.289 207.156 248.473 207.416 C 250.060 207.765,250.002 207.938,250.037 202.764 C 250.070 197.862,249.909 197.012,248.869 196.592 C 247.576 196.069,239.158 196.043,238.960 196.561 M256.841 196.376 C 256.094 196.499,255.351 196.870,255.190 197.200 C 252.858 201.977,252.981 203.012,256.277 206.314 L 257.588 207.627 261.894 207.514 L 266.200 207.400 266.312 202.232 C 266.385 198.917,266.270 196.910,265.993 196.632 C 265.534 196.174,259.154 195.995,256.841 196.376 M279.205 196.594 C 278.626 197.291,278.858 204.618,279.479 205.239 C 279.664 205.424,281.267 205.642,283.041 205.723 C 287.439 205.923,288.462 206.779,286.100 208.281 C 285.495 208.666,284.856 209.210,284.680 209.490 C 284.176 210.294,281.954 210.096,280.955 209.158 C 279.866 208.135,279.200 208.454,279.200 210.000 C 279.200 212.954,287.525 212.160,288.606 209.102 C 288.741 208.719,289.156 208.102,289.526 207.732 C 290.089 207.170,290.200 206.202,290.200 201.860 L 290.200 196.660 289.016 196.342 C 287.492 195.933,287.214 196.384,287.206 199.274 C 287.187 206.260,280.787 206.153,280.647 199.164 C 280.595 196.569,280.042 195.585,279.205 196.594 M303.677 196.507 C 303.417 196.820,303.314 198.696,303.407 201.407 C 303.489 203.823,303.567 206.205,303.578 206.700 C 303.605 207.817,306.144 208.044,306.557 206.967 C 307.023 205.754,306.824 196.984,306.320 196.480 C 305.691 195.851,304.209 195.866,303.677 196.507 M313.609 196.283 C 309.939 196.762,307.987 202.164,310.607 204.590 C 314.476 208.171,316.812 208.615,319.324 206.246 C 321.140 204.533,320.974 204.400,317.013 204.400 C 313.072 204.400,312.800 204.181,312.800 201.000 C 312.800 197.568,315.133 196.271,317.429 198.427 L 318.309 199.254 319.386 198.178 C 319.978 197.586,320.313 196.962,320.131 196.791 C 319.699 196.386,315.391 196.050,313.609 196.283 M325.016 196.324 C 322.824 196.840,322.812 201.315,325.002 201.503 C 328.217 201.779,329.306 202.371,329.040 203.700 C 328.702 205.388,328.673 205.401,326.362 204.867 C 323.953 204.311,323.444 204.524,323.799 205.940 C 324.271 207.817,329.875 208.529,330.786 206.827 C 331.013 206.402,331.559 205.940,332.000 205.800 C 333.139 205.438,333.156 202.567,332.020 202.206 C 331.592 202.070,331.132 201.617,330.999 201.198 C 330.803 200.579,330.304 200.415,328.321 200.319 C 323.651 200.091,324.250 197.606,328.976 197.594 C 331.461 197.588,332.876 197.141,332.043 196.627 C 331.384 196.219,326.376 196.003,325.016 196.324 M126.103 199.208 C 128.616 201.722,127.373 204.378,123.674 204.394 C 121.289 204.405,120.800 203.863,120.800 201.214 C 120.800 197.172,123.170 196.275,126.103 199.208 M150.757 198.300 C 151.977 199.309,152.363 202.536,151.393 203.607 C 150.562 204.526,146.508 204.748,145.680 203.920 C 144.886 203.126,145.058 198.523,145.900 198.032 C 147.036 197.370,149.819 197.524,150.757 198.300 M182.847 199.152 C 185.506 201.812,184.400 204.400,180.604 204.400 C 177.977 204.400,177.600 203.973,177.600 201.000 C 177.600 197.065,179.937 196.243,182.847 199.152 M207.802 198.259 C 208.851 199.308,207.523 200.301,204.850 200.467 C 202.287 200.626,200.953 199.504,202.211 198.246 C 203.105 197.352,206.903 197.360,207.802 198.259 M262.406 198.208 C 263.090 199.032,263.112 202.942,262.437 203.755 C 261.763 204.568,257.517 204.664,256.867 203.881 C 255.600 202.354,256.609 198.775,258.523 198.004 C 259.914 197.444,261.857 197.546,262.406 198.208 " stroke="none" fill="#010912" fill-rule="evenodd"></path><path id="path2" d="M75.600 187.865 C 75.050 187.979,74.330 188.305,74.000 188.589 C 73.670 188.873,72.966 189.238,72.436 189.400 C 71.281 189.753,68.957 192.133,68.140 193.800 C 67.817 194.460,67.289 195.450,66.967 196.000 C 66.083 197.510,66.611 203.203,67.852 205.535 C 72.081 213.490,82.731 214.851,88.000 208.109 C 88.770 207.124,89.624 206.080,89.898 205.789 C 90.842 204.788,91.200 203.140,91.182 199.874 C 91.137 191.805,83.808 186.156,75.600 187.865 M80.069 189.462 C 81.373 190.642,81.004 191.333,79.200 191.091 C 78.320 190.973,77.600 191.039,77.600 191.238 C 77.600 191.631,74.680 191.747,74.303 191.369 C 72.946 190.013,78.608 188.140,80.069 189.462 M86.013 191.745 C 86.028 192.767,86.890 194.000,87.590 194.000 C 87.957 194.000,88.019 194.481,87.821 195.800 C 87.599 197.280,87.662 197.600,88.175 197.600 C 88.519 197.600,88.800 197.420,88.800 197.200 C 88.800 196.980,89.031 196.800,89.314 196.800 C 90.138 196.800,90.209 203.034,89.388 203.349 C 89.046 203.480,88.525 204.162,88.230 204.863 L 87.694 206.139 87.414 204.866 C 87.261 204.166,86.812 203.420,86.416 203.209 C 85.883 202.923,85.653 202.204,85.523 200.411 C 85.392 198.592,85.134 197.798,84.474 197.183 C 83.993 196.735,83.597 195.881,83.594 195.284 C 83.591 194.688,83.336 193.480,83.029 192.600 C 82.390 190.773,82.740 190.412,84.851 190.722 C 85.700 190.847,86.003 191.114,86.013 191.745 M73.433 191.600 C 74.121 191.600,74.229 194.211,73.557 194.626 C 73.281 194.797,73.261 194.994,73.503 195.150 C 74.951 196.081,74.472 197.315,72.746 197.104 C 71.786 196.986,71.225 196.974,71.500 197.078 C 72.411 197.422,72.162 203.329,71.200 204.200 C 70.760 204.598,70.400 205.166,70.400 205.462 C 70.400 206.504,69.697 205.985,69.453 204.763 C 69.298 203.989,68.905 203.448,68.403 203.317 C 67.123 202.982,67.254 199.127,68.600 197.527 C 69.176 196.843,69.600 195.834,69.600 195.150 C 69.600 194.396,69.966 193.623,70.600 193.035 C 71.150 192.525,71.600 191.885,71.600 191.611 C 71.600 191.323,71.865 191.216,72.233 191.357 C 72.581 191.491,73.121 191.600,73.433 191.600 M85.200 209.234 C 84.650 209.391,83.525 209.538,82.700 209.560 C 81.480 209.593,81.200 209.749,81.200 210.400 C 81.200 211.536,77.066 211.576,75.826 210.451 C 75.372 210.039,74.460 209.513,73.800 209.282 C 72.770 208.922,73.055 208.859,75.820 208.832 C 77.591 208.814,79.211 208.967,79.420 209.170 C 79.653 209.398,80.644 209.349,81.988 209.043 C 83.192 208.769,84.632 208.635,85.188 208.746 L 86.200 208.948 85.200 209.234 " stroke="none" fill="#4f2005" fill-rule="evenodd"></path><path id="path3" d="M75.295 189.969 C 74.622 190.612,74.176 191.242,74.303 191.369 C 74.680 191.747,77.600 191.631,77.600 191.238 C 77.600 191.039,78.320 190.973,79.200 191.091 C 81.004 191.333,81.373 190.642,80.069 189.462 C 78.881 188.387,76.709 188.618,75.295 189.969 M83.086 190.777 C 82.542 190.974,82.535 191.189,83.029 192.600 C 83.336 193.480,83.591 194.688,83.594 195.284 C 83.597 195.881,83.993 196.735,84.474 197.183 C 85.134 197.798,85.392 198.592,85.523 200.411 C 85.653 202.204,85.883 202.923,86.416 203.209 C 86.812 203.420,87.261 204.166,87.414 204.866 L 87.694 206.139 88.230 204.863 C 88.525 204.162,89.046 203.480,89.388 203.349 C 90.209 203.034,90.138 196.800,89.314 196.800 C 89.031 196.800,88.800 196.980,88.800 197.200 C 88.800 197.420,88.519 197.600,88.175 197.600 C 87.662 197.600,87.599 197.280,87.821 195.800 C 88.019 194.481,87.957 194.000,87.590 194.000 C 86.890 194.000,86.028 192.767,86.013 191.745 C 85.999 190.850,84.372 190.311,83.086 190.777 M71.600 191.611 C 71.600 191.885,71.150 192.525,70.600 193.035 C 69.966 193.623,69.600 194.396,69.600 195.150 C 69.600 195.834,69.176 196.843,68.600 197.527 C 67.254 199.127,67.123 202.982,68.403 203.317 C 68.905 203.448,69.298 203.989,69.453 204.763 C 69.697 205.985,70.400 206.504,70.400 205.462 C 70.400 205.166,70.760 204.598,71.200 204.200 C 72.162 203.329,72.411 197.422,71.500 197.078 C 71.225 196.974,71.786 196.986,72.746 197.104 C 74.472 197.315,74.951 196.081,73.503 195.150 C 73.261 194.994,73.281 194.797,73.557 194.626 C 74.229 194.211,74.121 191.600,73.433 191.600 C 73.121 191.600,72.581 191.491,72.233 191.357 C 71.865 191.216,71.600 191.323,71.600 191.611 M81.988 209.043 C 80.644 209.349,79.653 209.398,79.420 209.170 C 79.211 208.967,77.591 208.814,75.820 208.832 C 73.055 208.859,72.770 208.922,73.800 209.282 C 74.460 209.513,75.372 210.039,75.826 210.451 C 77.066 211.576,81.200 211.536,81.200 210.400 C 81.200 209.749,81.480 209.593,82.700 209.560 C 83.525 209.538,84.650 209.391,85.200 209.234 L 86.200 208.948 85.188 208.746 C 84.632 208.635,83.192 208.769,81.988 209.043 " stroke="none" fill="#fa5d14" fill-rule="evenodd"></path><path id="path4" d="M270.747 190.053 C 269.584 191.216,269.754 206.226,270.946 207.541 C 271.870 208.561,274.877 209.075,276.253 208.449 C 277.861 207.716,277.502 204.421,275.728 203.640 C 274.134 202.938,274.000 202.387,273.971 196.376 C 273.939 189.851,272.929 187.871,270.747 190.053 M303.029 189.829 C 302.235 190.623,302.214 193.157,302.993 194.268 C 303.516 195.016,303.516 195.172,302.993 195.606 C 302.065 196.376,302.133 207.276,303.072 208.214 C 303.856 208.999,306.696 208.806,307.252 207.930 C 307.763 207.123,307.684 195.844,307.163 195.323 C 306.847 195.007,306.847 194.660,307.163 194.069 C 307.907 192.679,307.711 190.088,306.826 189.614 C 305.682 189.002,303.746 189.111,303.029 189.829 M93.261 190.099 C 92.487 190.873,92.623 209.557,93.405 209.857 C 95.033 210.482,95.200 209.543,95.200 199.765 C 95.200 189.965,94.898 188.462,93.261 190.099 M306.462 190.656 C 306.889 190.891,306.350 192.558,305.672 193.100 C 304.579 193.975,303.684 193.693,303.396 192.384 C 302.960 190.397,304.463 189.550,306.462 190.656 M272.400 196.962 C 272.400 203.620,272.411 203.653,274.900 204.714 C 276.701 205.482,276.494 207.600,274.618 207.600 C 271.564 207.600,271.200 206.605,271.200 198.248 C 271.200 194.225,271.315 190.818,271.456 190.678 C 272.182 189.951,272.400 191.399,272.400 196.962 M99.100 191.616 C 98.472 191.996,98.400 192.838,98.400 199.811 L 98.400 207.582 99.384 208.227 C 101.044 209.314,109.098 208.911,109.901 207.700 C 110.229 207.205,110.847 206.800,111.275 206.800 C 112.366 206.800,113.600 206.074,113.600 205.432 C 113.600 205.135,114.050 204.597,114.600 204.237 C 116.980 202.677,115.309 193.200,112.654 193.200 C 112.475 193.200,112.001 192.795,111.600 192.300 C 110.773 191.276,100.582 190.719,99.100 191.616 M133.500 191.632 C 132.877 191.995,132.800 192.783,132.800 198.791 C 132.800 205.797,132.756 205.586,134.545 207.078 C 134.861 207.340,135.189 207.768,135.276 208.028 C 135.838 209.713,141.487 208.665,141.859 206.807 C 142.120 205.500,142.578 205.244,142.945 206.200 C 143.071 206.530,143.429 206.800,143.739 206.800 C 144.049 206.800,144.570 207.203,144.897 207.696 C 145.399 208.451,145.828 208.584,147.646 208.542 C 148.831 208.515,150.340 208.493,151.000 208.494 C 156.245 208.498,156.000 208.825,156.000 201.813 C 156.000 194.454,156.350 194.802,149.261 195.097 C 145.244 195.263,143.807 195.464,143.461 195.905 C 143.207 196.228,142.505 196.962,141.900 197.535 C 140.911 198.473,140.800 198.851,140.800 201.289 C 140.800 204.123,140.714 204.234,138.900 203.748 C 137.465 203.363,137.574 199.370,139.051 198.192 C 140.252 197.235,140.114 195.817,138.780 195.394 C 138.216 195.215,138.000 194.783,138.000 193.835 C 138.000 191.626,135.561 190.432,133.500 191.632 M161.726 191.479 C 161.245 191.572,160.435 192.205,159.926 192.884 C 159.416 193.563,158.550 194.561,158.000 195.101 C 157.075 196.010,157.003 196.350,157.034 199.665 C 157.069 203.456,157.006 203.305,159.591 205.800 C 160.047 206.240,160.879 207.046,161.440 207.591 C 162.880 208.989,169.226 209.113,170.321 207.764 C 172.024 205.666,174.487 205.603,176.989 207.591 C 179.049 209.229,182.304 209.333,183.827 207.809 C 184.372 207.264,185.174 206.628,185.609 206.395 C 186.044 206.162,186.400 205.774,186.400 205.532 C 186.400 205.290,186.850 204.675,187.400 204.165 C 188.667 202.990,188.774 200.554,187.617 199.220 C 187.187 198.724,186.636 197.715,186.393 196.978 C 185.561 194.458,175.200 194.133,175.200 196.627 C 175.200 196.956,174.885 197.341,174.500 197.483 C 173.418 197.883,173.213 198.420,173.206 200.876 C 173.199 203.445,172.833 203.941,171.791 202.791 C 170.887 201.791,170.354 201.794,169.493 202.800 C 168.515 203.942,165.483 203.897,163.759 202.715 C 161.805 201.377,161.559 197.100,163.395 196.402 C 163.888 196.215,164.391 195.801,164.513 195.484 C 164.914 194.439,166.677 194.425,167.577 195.459 C 170.047 198.301,173.940 195.177,171.777 192.089 C 171.168 191.219,164.993 190.844,161.726 191.479 M221.373 193.050 L 219.600 194.900 219.600 201.222 C 219.600 208.508,219.812 209.074,222.362 208.597 C 224.300 208.235,224.734 207.800,224.878 206.070 C 224.945 205.261,225.135 204.645,225.300 204.700 C 225.465 204.755,226.590 204.800,227.800 204.800 L 230.000 204.800 230.000 206.151 C 230.000 208.399,232.859 209.541,234.466 207.934 C 235.281 207.119,235.307 206.827,235.094 200.699 L 234.872 194.314 233.203 192.757 L 231.533 191.200 227.339 191.200 L 223.145 191.200 221.373 193.050 M294.200 191.482 C 292.484 191.920,292.400 192.251,292.400 198.583 L 292.400 204.669 293.846 206.525 C 295.422 208.548,296.854 209.091,299.490 208.663 C 302.624 208.154,302.505 204.151,299.342 203.637 L 297.800 203.386 297.800 200.993 C 297.800 198.630,297.815 198.598,299.000 198.467 C 301.954 198.138,302.113 195.912,299.215 195.449 C 297.716 195.209,297.600 195.098,297.594 193.895 C 297.584 191.813,296.347 190.934,294.200 191.482 M112.488 194.687 C 116.139 198.300,115.249 204.977,111.011 205.772 C 110.295 205.906,109.387 206.372,108.993 206.808 C 107.830 208.093,99.801 208.002,99.452 206.700 C 99.122 205.468,99.135 192.998,99.467 192.667 C 99.613 192.520,102.083 192.400,104.955 192.400 L 110.177 192.400 112.488 194.687 M136.800 193.646 C 136.800 194.506,137.154 195.217,137.943 195.939 L 139.085 196.986 137.943 198.054 C 136.017 199.852,136.271 202.643,138.582 205.089 C 140.534 207.155,140.426 207.583,137.950 207.594 C 136.861 207.598,136.140 207.270,135.050 206.272 L 133.600 204.943 133.600 198.938 C 133.600 192.316,133.576 192.400,135.467 192.400 C 136.692 192.400,136.800 192.501,136.800 193.646 M171.200 193.776 C 171.200 195.651,170.623 195.863,168.855 194.638 C 165.479 192.298,161.200 194.638,161.200 198.825 C 161.200 203.690,162.347 204.641,167.805 204.300 C 171.700 204.057,172.997 204.664,170.899 205.749 C 170.263 206.078,169.508 206.629,169.222 206.974 C 168.282 208.107,164.358 207.809,162.202 206.442 C 157.390 203.390,156.491 198.377,160.078 194.592 L 162.156 192.400 166.678 192.400 L 171.200 192.400 171.200 193.776 M232.620 193.740 L 234.000 195.081 234.000 201.117 C 234.000 204.437,233.851 207.245,233.669 207.357 C 232.918 207.822,231.557 207.084,231.623 206.248 C 231.742 204.708,231.612 204.482,230.340 204.039 C 226.759 202.791,223.808 203.727,223.533 206.200 C 223.302 208.282,220.824 208.215,220.736 206.125 C 220.391 197.876,220.558 195.611,221.569 194.800 C 221.706 194.690,222.133 194.105,222.518 193.500 C 223.697 191.648,230.636 191.813,232.620 193.740 M296.400 193.511 C 296.400 195.074,297.348 196.245,298.886 196.583 L 300.200 196.872 298.913 197.336 C 295.606 198.528,295.383 203.729,298.600 204.623 C 299.989 205.009,300.217 205.234,300.325 206.334 L 300.451 207.600 298.285 207.600 L 296.120 207.600 294.860 205.573 C 293.459 203.320,292.861 193.165,294.100 192.665 C 295.541 192.083,296.400 192.399,296.400 193.511 M103.300 194.046 C 102.622 194.744,102.604 203.244,103.280 203.920 C 104.192 204.832,109.008 204.527,110.225 203.480 C 111.515 202.370,112.180 197.323,111.149 196.468 C 108.294 194.098,107.823 193.851,105.858 193.695 C 104.514 193.589,103.626 193.710,103.300 194.046 M225.458 194.803 C 223.903 196.168,223.394 198.834,224.480 199.920 C 225.154 200.594,229.410 200.519,230.784 199.808 L 231.929 199.216 231.136 197.108 C 229.746 193.412,227.897 192.661,225.458 194.803 M204.408 194.590 C 204.130 194.925,203.282 195.200,202.525 195.200 C 200.885 195.200,199.600 195.811,199.600 196.590 C 199.600 197.730,198.766 197.623,198.351 196.430 C 198.115 195.754,197.714 195.191,197.461 195.180 C 189.054 194.815,189.198 194.696,189.206 201.976 C 189.213 208.224,189.350 208.603,191.579 208.545 C 194.185 208.477,194.400 208.079,194.400 203.341 C 194.400 199.199,194.405 199.178,195.469 198.774 C 197.249 198.097,197.600 198.515,197.600 201.315 C 197.600 203.431,197.751 203.998,198.500 204.708 C 198.995 205.177,199.580 205.744,199.800 205.967 C 203.133 209.356,206.618 209.874,209.233 207.369 C 211.656 205.047,210.812 203.550,207.081 203.550 C 202.977 203.550,203.237 202.944,207.460 202.667 C 212.392 202.343,213.598 201.561,211.854 199.817 C 211.274 199.238,210.800 198.356,210.800 197.858 C 210.800 196.363,209.909 195.567,207.988 195.347 C 207.004 195.234,205.911 194.880,205.557 194.561 C 204.995 194.052,204.852 194.056,204.408 194.590 M327.376 194.587 C 326.949 194.910,326.015 195.180,325.300 195.187 C 323.736 195.203,322.400 196.406,322.400 197.800 C 322.400 199.383,321.662 198.962,321.524 197.300 C 321.404 195.850,321.334 195.786,319.400 195.373 C 318.300 195.138,317.099 194.809,316.731 194.642 C 316.363 194.475,315.700 194.532,315.258 194.769 C 314.815 195.006,313.905 195.200,313.237 195.200 C 312.324 195.200,311.559 195.662,310.169 197.052 L 308.318 198.903 308.469 201.895 C 308.630 205.093,309.728 206.800,311.622 206.800 C 312.050 206.800,312.400 207.064,312.400 207.386 C 312.400 209.232,318.839 209.368,319.421 207.534 C 319.557 207.105,320.103 206.589,320.634 206.387 C 323.711 205.217,321.198 203.130,316.902 203.287 C 313.901 203.396,313.796 203.369,313.665 202.448 C 313.189 199.082,315.223 197.212,316.973 199.407 C 317.856 200.514,320.000 200.645,320.000 199.592 C 320.000 198.311,322.276 199.269,322.629 200.700 C 322.981 202.124,323.112 202.223,325.200 202.646 C 327.521 203.117,327.304 203.493,324.600 203.686 L 323.000 203.800 323.000 205.788 C 323.000 208.271,323.802 208.786,327.689 208.794 C 335.414 208.811,336.015 200.315,328.363 199.287 L 325.800 198.943 329.000 198.648 C 330.760 198.486,332.470 198.316,332.800 198.271 C 334.459 198.045,333.464 195.819,331.519 195.403 C 330.484 195.181,329.413 194.775,329.139 194.500 C 328.503 193.863,328.322 193.872,327.376 194.587 M238.587 195.215 C 238.018 195.843,237.868 196.975,237.744 201.587 C 237.567 208.201,237.934 209.064,240.715 208.563 C 242.786 208.189,242.800 208.173,242.803 206.076 C 242.804 205.044,242.920 202.985,243.061 201.500 L 243.316 198.800 244.658 198.800 L 246.000 198.800 246.000 203.151 C 246.000 207.886,246.098 208.115,248.327 208.591 C 250.829 209.127,251.200 208.303,251.200 202.200 C 251.200 196.233,251.050 195.891,248.200 195.381 C 247.320 195.224,246.296 194.938,245.924 194.746 C 245.516 194.536,245.151 194.556,245.001 194.799 C 244.688 195.305,241.573 195.322,240.265 194.825 C 239.487 194.529,239.133 194.611,238.587 195.215 M259.001 194.799 C 258.864 195.020,258.235 195.200,257.602 195.200 C 255.973 195.200,254.422 195.867,254.130 196.694 C 253.993 197.082,253.518 197.804,253.074 198.297 C 251.705 199.818,251.634 203.341,252.954 204.206 C 253.529 204.584,254.000 205.145,254.000 205.455 C 254.000 205.764,254.450 206.222,255.000 206.473 C 255.550 206.723,256.000 207.067,256.000 207.236 C 256.000 208.386,257.336 208.750,261.504 208.734 C 267.547 208.711,267.201 209.115,267.194 202.086 C 267.186 194.872,267.241 194.977,263.548 195.080 C 261.966 195.123,260.351 194.988,259.960 194.779 C 259.501 194.533,259.161 194.540,259.001 194.799 M107.200 195.157 C 107.200 195.353,107.920 195.801,108.800 196.153 L 110.400 196.794 110.400 199.161 C 110.400 202.366,109.003 203.703,105.847 203.519 L 103.800 203.400 103.686 199.100 L 103.573 194.800 105.386 194.800 C 106.384 194.800,107.200 194.960,107.200 195.157 M123.706 195.174 C 119.376 195.392,119.168 195.444,118.023 196.600 C 115.807 198.836,115.925 205.691,118.198 206.726 C 118.749 206.977,119.200 207.358,119.200 207.573 C 119.200 208.882,124.195 209.098,125.318 207.837 L 126.176 206.874 127.075 207.843 C 127.912 208.746,128.064 208.776,129.287 208.278 L 130.600 207.742 130.711 202.109 L 130.822 196.475 129.757 195.637 C 129.171 195.177,128.581 194.833,128.446 194.874 C 128.311 194.915,126.178 195.050,123.706 195.174 M228.964 196.031 C 230.167 197.460,230.331 199.067,229.300 199.313 C 225.407 200.241,223.494 198.410,225.872 196.031 C 227.345 194.558,227.725 194.557,228.964 196.031 M278.800 195.084 C 276.803 195.818,275.818 200.687,277.400 202.000 C 277.730 202.274,278.000 203.066,278.000 203.760 C 278.000 205.909,278.945 206.800,281.223 206.800 C 282.310 206.800,283.200 206.961,283.200 207.157 C 283.200 207.769,282.100 207.973,280.801 207.600 C 278.425 206.919,276.953 210.153,278.800 212.000 C 279.483 212.683,280.133 212.800,283.247 212.800 L 286.894 212.800 288.347 211.253 C 291.455 207.944,291.496 207.815,291.408 201.800 C 291.322 195.994,291.151 195.303,289.700 194.939 C 287.326 194.343,286.622 195.112,286.377 198.563 C 286.121 202.168,283.200 205.879,283.200 202.599 C 283.200 202.295,282.835 201.790,282.389 201.477 C 281.732 201.017,281.650 200.722,281.954 199.921 C 282.177 199.334,282.184 198.703,281.971 198.367 C 281.774 198.055,281.609 197.405,281.606 196.923 C 281.603 196.440,281.200 195.765,280.711 195.423 C 279.759 194.756,279.714 194.748,278.800 195.084 M128.739 196.562 C 129.344 196.936,129.382 207.040,128.779 207.413 C 128.548 207.556,127.917 207.196,127.378 206.614 C 126.358 205.513,125.819 205.570,124.877 206.876 C 123.848 208.303,119.311 206.873,117.918 204.681 C 116.278 202.100,118.316 196.643,121.037 196.333 C 123.021 196.106,128.254 196.262,128.739 196.562 M154.634 196.500 C 155.168 197.034,154.938 206.868,154.384 207.218 C 153.500 207.778,152.158 207.672,151.600 207.000 C 151.326 206.670,150.876 206.400,150.600 206.400 C 150.324 206.400,149.874 206.670,149.600 207.000 C 147.650 209.350,141.376 204.612,141.710 201.042 C 141.833 199.729,142.156 198.872,142.689 198.442 C 143.126 198.089,143.589 197.499,143.718 197.131 C 144.021 196.261,153.828 195.694,154.634 196.500 M185.294 196.948 C 185.456 197.197,185.591 197.781,185.594 198.246 C 185.597 198.711,185.985 199.581,186.455 200.179 L 187.310 201.266 186.319 203.189 C 184.238 207.229,180.159 208.974,177.842 206.815 C 177.379 206.384,176.303 205.390,175.451 204.607 C 172.632 202.015,174.255 196.780,178.032 196.280 C 180.146 195.999,184.966 196.443,185.294 196.948 M196.932 196.793 C 197.115 196.964,196.486 197.351,195.534 197.652 C 193.507 198.294,193.321 198.798,193.247 203.857 C 193.199 207.169,192.092 208.652,190.704 207.264 C 190.337 206.897,190.211 197.029,190.566 196.454 C 190.795 196.084,196.500 196.387,196.932 196.793 M209.300 196.673 C 209.465 196.769,209.600 197.202,209.600 197.636 C 209.600 198.071,209.855 199.036,210.167 199.783 C 210.890 201.513,210.690 201.600,205.994 201.600 C 202.743 201.600,202.432 201.669,202.186 202.445 C 201.700 203.974,202.853 204.585,206.043 204.489 C 209.627 204.381,209.845 204.536,208.499 206.223 C 207.085 207.995,203.752 208.246,202.172 206.700 C 198.321 202.932,198.404 203.049,198.402 201.355 C 198.399 199.088,200.271 196.702,202.331 196.347 C 203.771 196.098,208.709 196.329,209.300 196.673 M248.869 196.592 C 249.909 197.012,250.070 197.862,250.037 202.764 C 250.002 207.938,250.060 207.765,248.473 207.416 L 247.289 207.156 247.133 202.937 C 246.962 198.307,246.593 197.600,244.352 197.600 C 242.581 197.600,242.000 198.532,242.000 201.373 C 242.000 206.472,241.661 207.659,240.243 207.521 L 239.000 207.400 238.887 202.221 C 238.826 199.373,238.858 196.825,238.960 196.561 C 239.158 196.043,247.576 196.069,248.869 196.592 M265.993 196.632 C 266.270 196.910,266.385 198.917,266.312 202.232 L 266.200 207.400 261.894 207.514 L 257.588 207.627 256.277 206.314 C 252.981 203.012,252.858 201.977,255.190 197.200 C 255.707 196.141,265.012 195.652,265.993 196.632 M280.647 199.164 C 280.787 206.153,287.187 206.260,287.206 199.274 C 287.214 196.384,287.492 195.933,289.016 196.342 L 290.200 196.660 290.200 201.860 C 290.200 206.202,290.089 207.170,289.526 207.732 C 289.156 208.102,288.741 208.719,288.606 209.102 C 288.020 210.760,286.203 211.604,283.091 211.663 C 279.620 211.729,279.200 211.549,279.200 210.000 C 279.200 208.454,279.866 208.135,280.955 209.158 C 281.954 210.096,284.176 210.294,284.680 209.490 C 284.856 209.210,285.495 208.666,286.100 208.281 C 288.462 206.779,287.439 205.923,283.041 205.723 C 281.267 205.642,279.664 205.424,279.479 205.239 C 278.858 204.618,278.626 197.291,279.205 196.594 C 280.042 195.585,280.595 196.569,280.647 199.164 M306.320 196.480 C 306.824 196.984,307.023 205.754,306.557 206.967 C 306.144 208.044,303.605 207.817,303.578 206.700 C 303.567 206.205,303.489 203.823,303.407 201.407 C 303.314 198.696,303.417 196.820,303.677 196.507 C 304.209 195.866,305.691 195.851,306.320 196.480 M320.131 196.791 C 320.313 196.962,319.978 197.586,319.386 198.178 L 318.309 199.254 317.429 198.427 C 315.133 196.271,312.800 197.568,312.800 201.000 C 312.800 204.181,313.072 204.400,317.013 204.400 C 320.974 204.400,321.140 204.533,319.324 206.246 C 316.812 208.615,314.476 208.171,310.607 204.590 C 307.987 202.164,309.939 196.762,313.609 196.283 C 315.391 196.050,319.699 196.386,320.131 196.791 M332.043 196.627 C 332.876 197.141,331.461 197.588,328.976 197.594 C 324.250 197.606,323.651 200.091,328.321 200.319 C 330.304 200.415,330.803 200.579,330.999 201.198 C 331.132 201.617,331.592 202.070,332.020 202.206 C 333.156 202.567,333.139 205.438,332.000 205.800 C 331.559 205.940,331.013 206.402,330.786 206.827 C 329.875 208.529,324.271 207.817,323.799 205.940 C 323.444 204.524,323.953 204.311,326.362 204.867 C 328.673 205.401,328.702 205.388,329.040 203.700 C 329.306 202.371,328.217 201.779,325.002 201.503 C 322.812 201.315,322.824 196.840,325.016 196.324 C 326.376 196.003,331.384 196.219,332.043 196.627 M121.429 198.229 C 120.449 199.208,120.556 203.441,121.574 203.986 C 123.673 205.109,126.770 204.099,127.342 202.103 C 128.098 199.466,123.321 196.336,121.429 198.229 M145.900 198.032 C 145.058 198.523,144.886 203.126,145.680 203.920 C 146.508 204.748,150.562 204.526,151.393 203.607 C 154.053 200.669,149.429 195.977,145.900 198.032 M178.080 198.080 C 177.453 198.707,177.453 203.293,178.080 203.920 C 179.642 205.482,183.750 204.218,184.150 202.052 C 184.645 199.372,179.896 196.264,178.080 198.080 M202.211 198.246 C 200.953 199.504,202.287 200.626,204.850 200.467 C 209.238 200.195,209.373 197.600,205.000 197.600 C 203.560 197.600,202.645 197.812,202.211 198.246 M258.523 198.004 C 256.609 198.775,255.600 202.354,256.867 203.881 C 257.517 204.664,261.763 204.568,262.437 203.755 C 263.112 202.942,263.090 199.032,262.406 198.208 C 261.857 197.546,259.914 197.444,258.523 198.004 M124.854 199.359 C 125.095 199.887,125.654 200.480,126.096 200.678 C 126.865 201.021,126.844 201.095,125.620 202.318 C 123.354 204.585,121.239 203.581,121.742 200.478 C 122.100 198.276,124.042 197.577,124.854 199.359 M206.200 198.794 C 206.640 198.846,206.123 199.057,205.051 199.262 C 203.090 199.637,202.177 199.432,203.144 198.834 C 203.627 198.536,204.008 198.531,206.200 198.794 M262.000 201.038 C 262.000 203.486,261.319 203.963,258.763 203.305 C 255.986 202.590,257.858 198.283,260.761 198.709 C 261.970 198.886,262.000 198.943,262.000 201.038 M150.069 199.462 C 151.440 200.703,151.064 203.114,149.452 203.417 C 146.409 203.987,145.398 202.853,146.178 199.745 C 146.470 198.582,148.901 198.406,150.069 199.462 M182.132 199.977 C 183.786 201.663,183.491 202.896,181.324 203.351 C 178.777 203.887,178.400 203.585,178.400 201.013 L 178.400 198.800 179.700 198.811 C 180.595 198.819,181.353 199.182,182.132 199.977 M66.514 201.800 C 66.517 202.900,66.595 203.303,66.687 202.695 C 66.779 202.086,66.777 201.186,66.682 200.695 C 66.587 200.203,66.511 200.700,66.514 201.800 M286.000 207.200 C 286.000 207.701,285.576 207.701,284.800 207.200 C 284.315 206.886,284.372 206.811,285.100 206.806 C 285.595 206.803,286.000 206.980,286.000 207.200 " stroke="none" fill="#0e0f0f" fill-rule="evenodd"></path></g></svg>