<svg id="svg" version="1.1" xmlns="http://www.w3.org/2000/svg" xmlns:xlink="http://www.w3.org/1999/xlink" width="400" height="59.61123110151188" viewBox="0, 0, 400,59.61123110151188"><g id="svgg"><path id="path0" d="M336.167 11.894 C 334.514 12.771,334.032 13.928,334.647 15.536 C 335.462 17.663,341.580 17.594,342.786 15.444 C 344.368 12.622,339.606 10.068,336.167 11.894 M287.750 11.680 C 287.292 11.758,285.685 11.903,284.180 12.003 C 280.752 12.231,280.875 12.166,280.801 13.790 C 280.735 15.225,280.927 15.667,281.615 15.667 C 281.833 15.667,282.200 15.790,282.431 15.941 C 283.340 16.537,283.333 16.465,283.333 25.505 L 283.333 33.859 282.846 34.346 C 282.578 34.614,282.254 34.833,282.125 34.833 C 281.329 34.833,280.616 37.837,281.260 38.482 C 281.500 38.723,291.575 38.689,291.906 38.446 C 292.769 37.813,292.164 34.833,291.173 34.833 C 291.027 34.833,290.741 34.717,290.537 34.574 L 290.167 34.314 290.167 23.428 C 290.167 9.964,290.427 11.228,287.750 11.680 M214.533 12.367 C 214.423 12.477,214.333 12.760,214.333 12.996 C 214.333 13.233,214.217 13.592,214.075 13.795 C 213.932 13.998,213.701 14.559,213.560 15.041 C 213.420 15.522,213.207 16.070,213.088 16.257 C 212.969 16.444,212.781 17.044,212.670 17.590 C 212.560 18.136,212.371 18.739,212.250 18.930 C 212.129 19.120,211.918 19.653,211.781 20.115 C 211.644 20.576,211.452 21.095,211.355 21.269 C 211.258 21.442,211.032 22.108,210.853 22.750 C 210.675 23.392,210.327 24.442,210.081 25.083 C 209.835 25.725,209.493 26.728,209.322 27.313 C 209.150 27.897,208.857 28.689,208.671 29.073 C 208.485 29.458,208.333 29.918,208.333 30.097 C 208.333 30.275,208.182 30.704,207.997 31.049 C 207.812 31.393,207.580 32.057,207.480 32.522 C 207.260 33.546,206.286 34.667,205.616 34.667 C 204.756 34.667,204.735 34.715,204.782 36.617 C 204.837 38.848,204.358 38.661,210.036 38.664 C 215.640 38.667,215.167 38.872,215.167 36.441 L 215.167 34.860 214.344 34.587 C 213.224 34.215,212.979 32.380,213.978 31.845 C 214.672 31.474,220.865 31.586,221.180 31.975 C 222.019 33.011,221.648 34.667,220.577 34.667 C 219.795 34.667,219.616 35.088,219.709 36.713 C 219.824 38.731,219.359 38.576,225.466 38.632 C 232.192 38.695,231.522 38.919,231.464 36.625 L 231.417 34.760 230.732 34.625 C 229.865 34.454,229.081 33.531,228.832 32.390 C 228.736 31.946,228.513 31.283,228.337 30.917 C 227.969 30.148,227.600 29.065,227.153 27.436 C 226.979 26.805,226.768 26.205,226.683 26.103 C 226.599 26.000,226.411 25.457,226.266 24.895 C 226.120 24.334,225.890 23.659,225.754 23.397 C 225.617 23.134,225.416 22.506,225.306 22.001 C 225.196 21.496,225.010 20.933,224.894 20.749 C 224.777 20.565,224.572 19.942,224.437 19.365 C 224.302 18.787,224.114 18.220,224.018 18.105 C 223.922 17.990,223.737 17.436,223.606 16.876 C 223.475 16.315,223.248 15.684,223.101 15.474 C 222.954 15.264,222.833 14.983,222.833 14.849 C 222.833 14.715,222.695 14.300,222.526 13.928 C 222.357 13.555,222.138 13.055,222.040 12.816 C 221.806 12.243,221.316 12.171,217.658 12.169 C 215.603 12.167,214.674 12.226,214.533 12.367 M322.943 13.377 C 322.785 13.492,322.544 14.064,322.409 14.646 C 322.273 15.229,322.022 15.903,321.853 16.145 C 321.683 16.386,321.491 16.752,321.427 16.959 C 321.363 17.165,321.166 17.411,320.989 17.506 C 320.812 17.601,320.667 17.775,320.667 17.893 C 320.667 18.212,320.000 18.781,319.271 19.085 C 318.918 19.233,318.319 19.552,317.939 19.795 C 317.560 20.038,317.224 20.253,317.192 20.273 C 317.161 20.293,317.188 20.947,317.253 21.727 C 317.394 23.421,317.667 23.833,318.647 23.833 C 319.842 23.833,319.833 23.792,319.833 29.562 L 319.833 34.682 320.398 35.883 C 320.997 37.155,321.486 37.718,322.167 37.917 C 322.396 37.984,322.722 38.162,322.892 38.311 C 323.721 39.041,329.978 38.422,330.878 37.522 C 330.983 37.417,331.062 36.544,331.070 35.409 C 331.086 33.047,331.049 33.000,329.172 33.000 C 326.820 33.000,326.721 32.697,326.815 25.744 C 326.838 24.023,327.078 23.833,329.228 23.833 C 331.004 23.833,331.033 23.793,331.135 21.217 C 331.220 19.039,331.414 19.222,328.917 19.122 C 326.686 19.033,326.732 19.093,326.804 16.359 C 326.888 13.123,326.915 13.167,324.869 13.167 C 323.814 13.167,323.128 13.241,322.943 13.377 M295.417 19.133 C 293.782 19.193,293.816 19.160,293.741 20.827 L 293.680 22.190 294.523 23.053 C 294.987 23.528,295.490 24.153,295.642 24.442 C 297.242 27.498,300.833 34.881,300.833 35.116 C 300.833 35.211,300.969 35.467,301.136 35.686 C 302.314 37.236,302.223 38.730,300.828 40.758 C 300.068 41.862,298.831 41.797,298.228 40.620 C 297.848 39.877,297.753 39.839,296.288 39.836 C 294.608 39.833,294.586 39.879,294.777 43.067 L 294.917 45.385 295.583 45.609 C 295.950 45.733,296.400 45.908,296.583 45.999 C 298.753 47.070,302.688 46.214,304.500 44.277 C 305.541 43.163,305.789 42.746,307.088 39.917 C 307.299 39.458,307.853 38.324,308.319 37.396 C 308.785 36.468,309.167 35.601,309.167 35.470 C 309.167 35.339,309.354 34.977,309.583 34.667 C 309.813 34.356,310.000 33.977,310.000 33.824 C 310.000 33.671,310.176 33.287,310.391 32.970 C 310.606 32.654,310.836 32.180,310.901 31.919 C 310.967 31.657,311.166 31.258,311.344 31.032 C 311.521 30.806,311.667 30.539,311.667 30.437 C 311.667 30.207,312.813 27.839,313.088 27.500 C 313.200 27.363,313.387 26.953,313.503 26.590 C 313.960 25.170,314.869 23.632,315.785 22.732 C 316.295 22.231,316.440 20.554,316.075 19.375 C 316.007 19.155,307.817 19.056,307.264 19.268 C 307.053 19.349,307.000 19.643,307.000 20.734 L 307.000 22.099 307.667 22.750 C 308.445 23.510,308.532 24.131,308.000 25.123 C 307.817 25.465,307.667 25.905,307.667 26.100 C 307.667 26.295,307.517 26.646,307.333 26.879 C 307.150 27.112,307.000 27.341,307.000 27.387 C 307.000 27.434,306.847 27.828,306.661 28.263 L 306.322 29.054 305.732 28.485 C 304.955 27.735,303.500 24.654,303.500 23.756 C 303.500 23.629,303.781 23.293,304.125 23.009 L 304.750 22.494 304.808 20.915 C 304.852 19.701,304.813 19.317,304.641 19.255 C 304.369 19.158,297.281 19.064,295.417 19.133 M246.000 19.419 C 245.771 19.551,245.314 19.736,244.985 19.829 C 244.656 19.922,244.169 20.190,243.902 20.425 C 242.895 21.309,242.016 21.460,242.002 20.750 C 241.971 19.270,241.422 19.092,238.417 19.586 C 237.592 19.721,236.392 19.833,235.750 19.834 C 235.108 19.834,234.302 19.913,233.958 20.009 L 233.333 20.182 233.333 21.665 C 233.333 23.233,233.557 23.667,234.367 23.667 C 235.161 23.667,235.250 24.240,235.250 29.350 C 235.250 34.632,235.210 34.833,234.168 34.833 C 233.488 34.833,232.895 37.656,233.402 38.477 C 233.574 38.754,244.022 38.744,244.300 38.467 C 244.990 37.777,244.357 34.833,243.518 34.833 C 243.258 34.833,242.847 34.678,242.606 34.488 L 242.167 34.142 242.167 31.113 C 242.166 26.072,242.835 24.167,244.603 24.167 C 245.222 24.167,246.306 24.896,246.406 25.380 C 246.643 26.527,246.726 28.282,246.763 32.991 C 246.800 37.797,246.828 38.251,247.100 38.450 C 247.403 38.671,254.823 38.777,255.592 38.570 C 256.565 38.309,255.895 35.103,254.783 34.701 C 253.945 34.398,253.952 34.444,253.831 28.500 L 253.721 23.083 253.185 22.083 C 251.924 19.731,247.988 18.271,246.000 19.419 M265.417 19.436 C 264.958 19.572,264.177 19.788,263.681 19.916 C 263.185 20.044,262.472 20.297,262.098 20.477 C 261.723 20.657,261.209 20.885,260.955 20.984 C 260.321 21.229,260.167 21.752,260.167 23.657 C 260.167 25.756,260.075 25.688,262.839 25.630 C 265.196 25.580,265.203 25.578,265.407 24.667 C 265.829 22.784,269.158 22.371,269.668 24.137 C 270.402 26.683,270.233 26.862,266.246 27.737 C 263.881 28.256,262.187 28.765,261.851 29.060 C 261.704 29.189,261.412 29.346,261.203 29.410 C 260.994 29.474,260.620 29.714,260.372 29.943 C 260.125 30.173,259.837 30.410,259.733 30.472 C 258.185 31.383,258.391 35.591,260.061 37.200 C 261.588 38.672,265.685 39.212,267.581 38.191 C 267.946 37.994,268.396 37.833,268.581 37.832 C 268.766 37.832,269.131 37.719,269.394 37.582 C 270.142 37.192,270.725 37.283,271.692 37.938 C 273.082 38.882,275.628 38.894,278.156 37.969 C 279.418 37.507,279.529 37.283,279.307 35.661 C 279.227 35.071,279.202 34.481,279.253 34.350 C 279.373 34.036,279.044 33.839,278.393 33.836 C 277.129 33.830,277.095 33.709,276.989 28.890 C 276.932 26.325,276.818 24.381,276.705 24.083 C 276.601 23.808,276.438 23.276,276.342 22.901 C 276.246 22.526,276.011 22.039,275.819 21.818 C 275.628 21.597,275.421 21.341,275.360 21.249 C 274.259 19.576,268.492 18.525,265.417 19.436 M353.930 19.688 C 353.112 19.962,352.258 20.333,352.032 20.510 C 351.806 20.688,351.551 20.833,351.464 20.833 C 351.068 20.833,349.021 23.329,348.526 24.417 C 347.497 26.675,347.130 30.183,347.750 31.833 C 347.904 32.246,348.131 32.936,348.254 33.366 C 348.704 34.947,350.693 37.061,352.500 37.879 C 354.332 38.708,359.133 38.953,360.438 38.284 C 360.701 38.149,361.344 37.944,361.867 37.828 C 362.444 37.700,363.055 37.421,363.423 37.118 L 364.028 36.619 363.972 34.815 C 363.899 32.447,363.865 32.411,362.078 32.766 C 360.633 33.054,357.137 33.107,356.465 32.852 C 353.770 31.827,353.103 25.356,355.528 23.751 C 357.565 22.403,359.167 23.339,359.167 25.878 C 359.167 27.533,359.215 27.561,361.900 27.471 C 364.553 27.383,364.333 27.682,364.333 24.165 L 364.333 21.184 363.793 20.679 C 363.428 20.338,362.954 20.113,362.335 19.987 C 361.830 19.884,360.988 19.658,360.464 19.484 C 358.867 18.953,355.834 19.048,353.930 19.688 M371.819 19.668 C 370.428 20.189,369.000 21.069,369.000 21.406 C 369.000 21.524,368.783 21.894,368.517 22.229 C 367.427 23.600,367.608 26.699,368.842 27.785 C 369.132 28.041,369.597 28.456,369.876 28.708 C 370.155 28.960,370.478 29.167,370.595 29.167 C 370.712 29.167,371.022 29.347,371.283 29.567 C 371.545 29.787,372.095 30.057,372.505 30.167 C 372.915 30.276,373.333 30.434,373.435 30.517 C 373.536 30.600,374.024 30.803,374.518 30.968 C 376.522 31.637,376.960 32.129,376.844 33.583 C 376.765 34.572,375.599 35.052,374.195 34.674 C 373.350 34.447,373.200 34.248,373.042 33.154 C 372.887 32.073,372.827 32.050,370.157 32.020 C 367.701 31.992,367.736 31.956,367.804 34.436 C 367.862 36.544,368.068 37.233,368.716 37.497 C 372.799 39.159,379.201 38.972,381.616 37.120 C 384.087 35.224,384.631 31.406,382.707 29.448 C 382.157 28.888,381.813 28.625,380.833 28.016 C 380.304 27.687,378.887 27.038,378.250 26.832 C 377.883 26.714,377.322 26.479,377.002 26.309 C 376.683 26.139,376.324 26.000,376.205 26.000 C 375.300 26.000,373.833 24.764,373.833 24.000 C 373.833 22.067,377.317 21.847,377.612 23.762 C 377.775 24.820,377.809 24.834,380.229 24.831 C 383.041 24.828,382.882 24.965,382.901 22.523 C 382.919 20.154,382.924 20.162,381.250 19.758 C 378.015 18.978,373.768 18.937,371.819 19.668 M338.750 19.489 C 338.567 19.563,337.409 19.712,336.178 19.821 C 333.453 20.061,333.667 19.919,333.667 21.489 C 333.667 23.590,333.740 23.782,334.594 23.910 C 336.075 24.132,336.026 23.942,336.008 29.327 C 335.991 34.687,336.046 34.458,334.647 34.923 C 333.686 35.242,333.631 35.378,333.701 37.251 L 333.750 38.583 338.833 38.632 C 341.629 38.658,344.159 38.636,344.454 38.583 L 344.992 38.486 344.933 37.144 C 344.867 35.640,344.560 35.023,343.770 34.812 C 342.790 34.550,342.833 34.902,342.833 27.240 C 342.833 18.646,343.010 19.330,340.796 19.344 C 339.854 19.350,338.933 19.415,338.750 19.489 M218.308 20.458 C 218.393 20.619,218.557 21.200,218.673 21.750 C 218.789 22.300,219.023 22.984,219.192 23.270 C 219.362 23.555,219.500 23.914,219.500 24.066 C 219.500 24.217,219.650 24.768,219.833 25.290 C 220.017 25.812,220.167 26.285,220.167 26.342 C 220.167 26.651,219.125 26.833,217.359 26.833 C 214.805 26.833,214.630 26.676,215.413 25.083 C 215.638 24.625,215.825 24.075,215.828 23.861 C 215.831 23.647,216.058 22.960,216.333 22.333 C 216.608 21.707,216.833 21.112,216.833 21.011 C 216.833 20.277,217.986 19.845,218.308 20.458 M269.907 30.370 C 270.608 31.371,269.745 34.109,268.576 34.597 C 266.224 35.580,264.226 33.439,265.771 31.591 C 266.881 30.263,269.327 29.541,269.907 30.370 " stroke="none" fill="#1473b7" fill-rule="evenodd"></path><path id="path1" d="M116.750 11.673 C 116.108 11.849,115.243 12.064,114.828 12.152 C 109.319 13.312,105.453 20.508,106.403 27.833 C 106.550 28.962,106.736 29.968,106.817 30.068 C 106.898 30.168,107.087 30.734,107.237 31.326 C 107.388 31.918,107.624 32.528,107.763 32.681 C 107.902 32.835,108.087 33.218,108.174 33.533 C 108.477 34.631,111.912 38.000,112.729 38.000 C 112.818 38.000,113.012 38.110,113.161 38.245 C 113.309 38.379,113.915 38.612,114.507 38.763 C 115.099 38.913,115.681 39.115,115.800 39.212 C 116.683 39.930,124.527 39.263,126.083 38.338 C 126.358 38.174,126.846 37.954,127.167 37.849 C 127.487 37.743,128.000 37.430,128.306 37.151 L 128.862 36.646 128.889 34.516 C 128.926 31.644,128.728 31.428,126.917 32.364 C 122.193 34.804,116.279 33.978,114.772 30.667 C 114.667 30.438,114.459 30.063,114.310 29.833 C 112.499 27.067,113.561 18.724,115.956 16.898 C 118.048 15.302,121.690 15.439,122.573 17.147 C 122.857 17.697,123.333 20.120,123.333 21.018 C 123.333 22.223,123.661 22.368,126.255 22.304 C 127.799 22.267,128.551 22.183,128.700 22.033 C 128.991 21.742,129.013 14.084,128.725 13.583 C 128.509 13.209,126.224 12.167,125.619 12.167 C 125.404 12.167,124.857 12.059,124.405 11.927 C 122.167 11.275,118.629 11.157,116.750 11.673 M15.119 12.368 C 14.860 12.559,14.827 12.816,14.869 14.336 L 14.917 16.083 15.884 16.229 C 17.503 16.472,17.408 15.894,17.413 25.606 C 17.417 35.149,17.538 34.424,15.909 34.627 L 14.917 34.751 14.917 36.577 C 14.917 38.855,14.057 38.629,22.826 38.650 L 29.902 38.667 31.993 38.136 C 35.422 37.265,36.737 36.207,39.068 32.443 C 40.587 29.991,41.135 22.809,39.976 20.537 C 39.806 20.203,39.667 19.819,39.667 19.684 C 39.667 18.858,37.527 15.686,36.273 14.652 C 35.485 14.003,33.770 13.230,32.000 12.727 L 30.417 12.276 22.917 12.212 C 16.890 12.161,15.358 12.191,15.119 12.368 M71.444 13.470 C 71.293 13.637,71.096 14.160,71.006 14.634 C 70.604 16.753,68.939 18.679,66.375 19.987 C 66.027 20.165,66.000 20.289,66.000 21.730 C 66.000 23.506,66.186 23.833,67.196 23.833 C 68.306 23.833,68.310 23.848,68.401 29.437 C 68.491 34.962,68.687 36.057,69.793 37.211 C 71.196 38.676,74.308 39.076,77.500 38.201 C 79.607 37.624,79.662 37.554,79.662 35.417 C 79.662 33.218,79.573 33.103,77.812 33.000 C 75.573 32.869,75.333 32.383,75.334 27.974 C 75.334 24.122,75.479 23.886,77.863 23.850 C 79.501 23.825,79.714 23.508,79.639 21.203 C 79.573 19.172,79.648 19.250,77.610 19.099 C 75.585 18.948,75.419 18.792,75.410 17.037 C 75.390 13.045,75.458 13.167,73.264 13.167 C 71.981 13.167,71.672 13.218,71.444 13.470 M29.500 17.707 C 33.479 19.568,34.579 28.702,31.227 32.053 C 29.696 33.584,25.558 34.448,24.392 33.480 C 24.013 33.165,24.064 17.793,24.445 17.412 C 24.913 16.945,28.292 17.142,29.500 17.707 M158.583 19.110 C 155.313 19.376,155.251 19.424,155.362 21.616 C 155.429 22.940,155.569 23.160,156.349 23.164 C 157.404 23.170,157.527 23.767,157.527 28.886 C 157.527 33.964,157.378 34.833,156.505 34.833 C 155.498 34.833,154.790 37.949,155.670 38.506 C 155.939 38.676,165.970 38.732,166.403 38.566 C 166.616 38.484,166.667 38.181,166.667 36.992 C 166.667 35.320,166.604 35.227,165.147 34.743 C 164.194 34.427,164.149 34.327,164.045 32.333 C 163.764 26.897,165.448 23.498,167.548 25.265 C 168.163 25.782,171.024 25.835,171.333 25.335 C 171.699 24.741,171.785 19.730,171.434 19.378 C 170.591 18.533,166.632 19.446,165.223 20.811 L 164.530 21.483 164.265 20.925 C 164.119 20.618,164.000 20.177,164.000 19.945 C 164.000 19.030,162.472 18.794,158.583 19.110 M181.500 19.182 C 178.702 19.448,175.558 21.399,174.672 23.419 C 174.511 23.787,174.264 24.183,174.124 24.299 C 173.984 24.416,173.819 24.865,173.757 25.297 C 173.695 25.729,173.537 26.453,173.405 26.905 C 172.888 28.686,173.451 33.858,174.193 34.140 C 174.275 34.172,174.484 34.472,174.658 34.807 C 176.408 38.190,181.446 39.433,187.648 38.012 C 190.536 37.351,190.833 36.998,190.833 34.238 C 190.833 32.567,190.683 32.325,189.803 32.580 C 184.608 34.086,180.913 33.561,180.551 31.267 C 180.378 30.173,180.410 30.167,185.845 30.167 C 191.333 30.167,191.031 30.256,191.133 28.608 C 191.207 27.417,190.785 24.789,190.435 24.254 C 190.302 24.052,190.112 23.583,190.012 23.212 C 189.334 20.695,185.363 18.814,181.500 19.182 M51.250 19.279 C 51.067 19.320,50.634 19.461,50.288 19.593 C 49.943 19.725,49.451 19.833,49.196 19.833 C 48.941 19.833,48.361 20.015,47.908 20.237 C 47.454 20.459,46.814 20.750,46.485 20.884 C 45.750 21.183,45.397 22.452,45.543 24.271 C 45.655 25.666,45.647 25.662,48.167 25.662 C 50.550 25.662,50.568 25.655,50.818 24.724 C 51.194 23.327,52.519 22.675,53.960 23.178 C 55.618 23.756,55.937 27.000,54.336 27.000 C 54.142 27.000,53.766 27.112,53.501 27.249 C 53.236 27.386,52.539 27.567,51.953 27.650 C 49.613 27.981,46.284 29.333,45.433 30.298 C 45.149 30.620,44.798 31.019,44.653 31.185 C 44.222 31.678,43.955 33.599,44.150 34.807 C 44.596 37.581,47.925 39.275,51.417 38.505 C 52.663 38.230,54.915 37.562,55.303 37.352 C 55.650 37.164,55.804 37.217,56.798 37.863 L 57.906 38.583 59.828 38.570 C 61.268 38.561,61.881 38.489,62.274 38.284 C 62.562 38.133,63.096 37.962,63.460 37.904 C 64.573 37.726,64.583 37.705,64.583 35.718 L 64.583 33.922 63.765 33.804 C 62.239 33.585,62.268 33.682,62.148 28.288 C 62.045 23.697,61.956 22.947,61.460 22.536 C 61.327 22.425,61.087 22.043,60.926 21.687 C 60.765 21.330,60.435 20.937,60.192 20.813 C 59.949 20.689,59.563 20.457,59.333 20.296 C 57.994 19.359,53.461 18.788,51.250 19.279 M89.917 19.335 C 87.373 19.880,85.011 20.895,84.699 21.578 C 84.446 22.135,84.411 24.856,84.652 25.307 C 84.855 25.685,85.377 25.750,87.667 25.680 C 89.297 25.630,89.445 25.563,89.643 24.776 C 90.357 21.939,94.273 22.739,94.133 25.694 L 94.083 26.750 92.750 27.200 C 92.017 27.447,91.216 27.654,90.971 27.658 C 90.355 27.670,88.853 27.998,88.250 28.253 C 87.975 28.370,87.487 28.520,87.167 28.588 C 84.647 29.120,83.012 31.180,83.004 33.834 C 82.990 38.251,88.470 40.155,93.533 37.491 C 94.270 37.103,94.632 37.083,94.995 37.412 C 96.524 38.796,98.601 38.980,102.046 38.035 C 103.544 37.624,103.520 37.664,103.464 35.654 C 103.421 34.068,103.388 33.916,103.083 33.870 C 101.138 33.572,101.169 33.663,101.018 27.861 L 100.901 23.417 100.360 22.474 C 99.625 21.194,99.241 20.846,97.632 20.001 L 96.250 19.275 93.417 19.234 C 91.858 19.211,90.283 19.257,89.917 19.335 M139.538 19.501 C 138.964 19.670,138.214 19.961,137.872 20.146 C 137.530 20.331,136.987 20.613,136.667 20.772 C 132.370 22.898,131.450 32.502,135.199 36.099 C 137.149 37.970,138.996 38.588,142.583 38.571 C 148.762 38.542,151.737 35.598,152.445 28.812 C 153.126 22.284,146.443 17.463,139.538 19.501 M183.981 23.439 C 184.765 23.988,185.245 25.731,184.827 26.511 C 184.630 26.879,181.124 27.000,180.489 26.661 C 179.820 26.303,180.201 24.610,181.162 23.671 C 181.778 23.069,183.277 22.946,183.981 23.439 M143.590 23.835 C 145.224 24.663,145.503 25.457,145.437 29.083 C 145.373 32.594,145.139 33.231,143.686 33.858 C 141.846 34.653,140.027 33.365,139.726 31.055 C 139.668 30.612,139.548 30.110,139.460 29.938 C 139.303 29.633,139.467 28.028,139.852 26.083 C 140.063 25.016,140.723 24.242,141.768 23.834 C 142.795 23.433,142.797 23.433,143.590 23.835 M55.150 30.135 C 55.626 31.026,55.438 32.969,54.795 33.807 C 53.603 35.358,50.998 35.128,50.746 33.450 C 50.461 31.547,51.845 30.339,54.869 29.852 C 54.935 29.842,55.061 29.969,55.150 30.135 M94.249 31.814 C 94.154 32.831,94.038 33.187,93.595 33.816 C 92.189 35.816,89.183 34.848,89.590 32.527 C 89.772 31.485,90.004 31.214,91.171 30.676 C 93.782 29.473,94.446 29.718,94.249 31.814 " stroke="none" fill="#ea1416" fill-rule="evenodd"></path><path id="path2" d="M0.000 29.750 L 0.000 59.500 200.000 59.500 L 400.000 59.500 400.000 29.750 L 400.000 0.000 200.000 0.000 L 0.000 0.000 0.000 29.750 M125.189 11.298 C 125.589 11.488,126.367 11.725,126.917 11.823 C 127.467 11.921,127.992 12.102,128.083 12.225 C 128.175 12.348,128.540 12.553,128.895 12.682 C 129.803 13.010,129.833 13.177,129.833 17.844 C 129.833 22.445,129.786 22.651,128.708 22.679 C 122.523 22.839,122.507 22.834,122.480 20.585 C 122.456 18.516,122.385 18.225,121.705 17.406 L 121.161 16.750 119.746 16.691 C 117.491 16.597,115.757 17.628,115.091 19.459 C 114.966 19.802,114.739 20.327,114.587 20.624 C 114.065 21.643,114.284 28.175,114.876 29.233 C 115.128 29.682,115.333 30.139,115.333 30.249 C 115.333 30.359,115.483 30.584,115.667 30.750 C 115.850 30.916,116.000 31.154,116.000 31.280 C 116.000 31.406,116.189 31.580,116.419 31.668 C 116.650 31.755,117.043 31.976,117.294 32.158 C 117.545 32.340,118.122 32.570,118.577 32.669 C 119.031 32.769,119.511 32.940,119.644 33.050 C 119.996 33.342,121.814 33.295,122.500 32.976 C 122.821 32.826,123.533 32.652,124.083 32.589 C 124.633 32.525,125.383 32.301,125.750 32.091 C 126.117 31.881,126.604 31.652,126.833 31.582 C 127.063 31.512,127.429 31.314,127.647 31.144 C 129.112 30.000,129.750 30.908,129.750 34.137 L 129.750 36.802 129.124 37.410 C 128.780 37.745,128.255 38.099,127.957 38.199 C 127.660 38.298,127.267 38.511,127.083 38.672 C 126.900 38.832,126.498 39.017,126.191 39.082 C 125.883 39.148,125.283 39.357,124.858 39.548 C 123.630 40.099,115.392 40.099,114.461 39.549 C 114.118 39.346,113.541 39.101,113.177 39.003 C 112.813 38.905,112.416 38.725,112.295 38.604 C 112.173 38.483,111.798 38.292,111.460 38.181 C 110.783 37.958,107.968 35.025,107.744 34.310 C 107.676 34.094,107.483 33.740,107.315 33.525 C 107.146 33.309,106.960 32.859,106.901 32.525 C 106.841 32.190,106.640 31.663,106.452 31.353 C 106.217 30.964,106.074 30.335,105.991 29.323 C 105.916 28.421,105.766 27.710,105.601 27.475 C 105.244 26.965,105.235 24.724,105.587 23.883 C 105.726 23.549,105.904 22.528,105.981 21.614 C 106.096 20.250,106.182 19.904,106.458 19.684 C 106.683 19.505,106.822 19.146,106.879 18.600 C 106.935 18.071,107.064 17.727,107.248 17.624 C 107.404 17.537,107.640 17.230,107.773 16.941 C 108.280 15.840,110.312 13.500,110.760 13.500 C 110.871 13.500,111.078 13.322,111.221 13.104 C 111.364 12.886,111.685 12.656,111.936 12.593 C 112.186 12.531,112.575 12.334,112.801 12.156 C 113.027 11.979,113.371 11.833,113.567 11.833 C 113.762 11.833,114.220 11.667,114.586 11.464 C 115.891 10.738,123.754 10.615,125.189 11.298 M342.428 11.620 C 342.834 11.959,343.167 12.316,343.167 12.413 C 343.167 12.509,343.317 12.868,343.500 13.210 C 344.085 14.301,343.702 16.047,342.773 16.525 C 342.577 16.626,342.242 16.868,342.028 17.062 C 341.663 17.396,341.465 17.417,338.690 17.417 L 335.741 17.417 334.967 16.782 C 334.343 16.271,334.171 16.013,334.078 15.449 C 334.015 15.065,333.857 14.630,333.728 14.482 C 333.524 14.251,333.525 14.187,333.738 14.010 C 333.873 13.898,334.033 13.477,334.093 13.075 C 334.346 11.393,335.862 10.796,339.553 10.927 L 341.689 11.002 342.428 11.620 M290.327 11.322 C 290.441 11.534,290.502 15.233,290.506 22.114 C 290.510 27.872,290.556 32.936,290.610 33.368 L 290.708 34.152 291.468 34.266 C 292.326 34.395,292.993 34.942,293.013 35.534 C 293.147 39.458,293.602 39.234,285.695 39.140 C 280.053 39.072,280.499 39.284,280.503 36.676 C 280.506 34.639,280.574 34.477,281.535 34.242 C 282.495 34.008,282.457 34.351,282.479 25.500 C 282.501 16.826,282.493 16.754,281.473 16.617 C 280.232 16.451,279.924 15.950,279.873 14.017 C 279.825 12.159,279.933 11.981,281.267 11.740 C 281.624 11.676,282.067 11.541,282.250 11.440 C 283.189 10.927,290.062 10.826,290.327 11.322 M33.145 12.263 C 33.637 12.485,34.167 12.667,34.321 12.667 C 34.476 12.667,34.856 12.854,35.167 13.083 C 35.477 13.313,35.828 13.500,35.945 13.500 C 36.063 13.500,36.282 13.688,36.432 13.917 C 36.582 14.146,36.787 14.333,36.887 14.333 C 37.136 14.333,38.333 15.520,38.333 15.766 C 38.333 15.875,38.449 16.009,38.591 16.063 C 38.732 16.118,38.962 16.433,39.100 16.765 C 39.239 17.096,39.498 17.524,39.676 17.715 C 39.854 17.906,40.000 18.181,40.000 18.326 C 40.000 18.470,40.153 18.873,40.339 19.221 C 40.526 19.570,40.755 20.465,40.849 21.210 C 40.942 21.956,41.164 22.997,41.341 23.524 C 41.705 24.603,41.643 26.867,41.237 27.337 C 41.116 27.476,40.949 28.276,40.865 29.114 C 40.759 30.173,40.604 30.813,40.356 31.213 C 40.160 31.530,40.000 31.939,40.000 32.122 C 40.000 32.305,39.858 32.635,39.685 32.855 C 39.512 33.075,39.259 33.517,39.122 33.836 C 38.917 34.317,37.832 35.661,37.194 36.225 C 37.105 36.303,36.859 36.528,36.646 36.725 C 36.052 37.276,34.625 38.167,34.338 38.167 C 34.196 38.167,33.706 38.373,33.249 38.625 L 32.417 39.083 23.646 39.134 C 13.247 39.195,14.333 39.483,14.333 36.667 C 14.333 34.413,14.447 34.167,15.483 34.167 C 15.940 34.167,16.217 34.051,16.513 33.737 L 16.917 33.307 16.965 25.506 L 17.012 17.705 16.493 17.186 C 16.090 16.783,15.829 16.667,15.326 16.667 C 14.856 16.667,14.631 16.578,14.506 16.344 C 14.240 15.848,14.282 12.250,14.556 12.022 C 14.791 11.828,25.850 11.664,30.083 11.793 C 31.931 11.849,32.382 11.918,33.145 12.263 M222.386 12.025 C 222.892 12.291,222.970 12.452,223.100 13.496 C 223.163 14.000,223.356 14.603,223.528 14.836 C 223.701 15.069,223.901 15.636,223.974 16.096 C 224.047 16.555,224.263 17.153,224.455 17.424 C 224.647 17.695,224.854 18.285,224.916 18.734 C 224.978 19.184,225.165 19.746,225.332 19.984 C 225.500 20.222,225.688 20.792,225.750 21.250 C 225.812 21.708,225.971 22.205,226.104 22.353 C 226.237 22.501,226.438 23.064,226.551 23.603 C 226.664 24.142,226.888 24.780,227.050 25.021 C 227.212 25.261,227.389 25.861,227.444 26.354 C 227.503 26.883,227.673 27.393,227.860 27.599 C 228.050 27.809,228.214 28.309,228.272 28.849 C 228.324 29.345,228.511 29.956,228.688 30.207 C 228.864 30.459,229.081 31.047,229.169 31.515 C 229.258 31.983,229.500 32.579,229.707 32.839 C 229.914 33.099,230.205 33.487,230.353 33.700 C 230.764 34.290,232.307 34.588,233.620 34.329 L 234.633 34.130 234.728 32.357 C 234.780 31.381,234.797 29.721,234.764 28.667 C 234.732 27.613,234.697 26.244,234.686 25.625 C 234.667 24.514,234.661 24.500,234.208 24.498 C 232.920 24.491,232.334 23.574,232.334 21.562 C 232.333 20.024,232.355 19.990,233.695 19.468 C 234.344 19.215,235.403 19.055,237.619 18.874 C 241.158 18.586,241.895 18.653,242.636 19.330 C 243.200 19.845,243.834 19.810,244.512 19.228 C 245.447 18.423,251.333 18.495,251.333 19.312 C 251.333 19.401,251.555 19.522,251.826 19.582 C 252.482 19.726,253.119 20.246,253.427 20.890 C 253.565 21.180,253.807 21.642,253.964 21.917 C 254.214 22.354,254.255 23.046,254.289 27.406 C 254.334 33.280,254.448 33.834,255.727 34.429 C 256.852 34.952,257.352 37.655,256.515 38.690 C 255.997 39.330,247.097 39.390,246.234 38.759 C 245.951 38.552,245.931 38.122,245.924 32.033 C 245.920 28.456,245.871 25.482,245.814 25.426 C 245.758 25.369,245.345 25.280,244.898 25.227 C 243.110 25.017,242.858 25.839,242.966 31.524 L 243.016 34.131 243.731 34.238 C 245.172 34.455,245.900 35.887,245.548 37.814 C 245.300 39.169,245.195 39.188,238.583 39.093 C 235.467 39.048,232.579 39.025,232.167 39.042 C 231.754 39.059,228.804 39.075,225.610 39.078 L 219.804 39.083 219.485 38.690 C 219.219 38.361,219.167 38.022,219.167 36.637 C 219.167 34.653,219.286 34.372,220.186 34.228 C 220.976 34.101,221.076 33.924,220.925 32.915 L 220.813 32.167 217.676 32.167 C 214.141 32.167,214.341 32.084,214.336 33.542 C 214.334 34.050,214.394 34.167,214.657 34.167 C 215.871 34.167,216.539 37.702,215.518 38.723 C 215.002 39.239,205.476 39.375,204.500 38.880 L 203.917 38.583 203.868 36.917 C 203.799 34.572,204.003 34.167,205.249 34.167 C 205.518 34.167,205.803 33.961,206.116 33.542 C 206.372 33.198,206.667 32.862,206.771 32.794 C 206.876 32.727,207.015 32.316,207.080 31.882 C 207.145 31.447,207.379 30.753,207.599 30.339 C 207.820 29.925,208.000 29.367,208.000 29.099 C 208.000 28.832,208.177 28.306,208.393 27.931 C 208.609 27.557,208.833 26.892,208.890 26.454 C 208.948 26.017,209.142 25.379,209.322 25.038 C 209.502 24.696,209.757 24.079,209.889 23.667 C 210.021 23.254,210.210 22.692,210.310 22.417 C 210.410 22.142,210.534 21.638,210.586 21.297 C 210.638 20.956,210.796 20.561,210.939 20.418 C 211.081 20.276,211.306 19.695,211.439 19.127 C 211.571 18.560,211.782 17.980,211.908 17.839 C 212.034 17.699,212.188 17.208,212.251 16.750 C 212.314 16.292,212.545 15.562,212.766 15.128 C 212.986 14.694,213.167 14.113,213.167 13.836 C 213.167 13.560,213.298 13.201,213.458 13.039 C 213.619 12.877,213.883 12.539,214.046 12.289 L 214.341 11.833 218.181 11.833 C 220.753 11.833,222.142 11.897,222.386 12.025 M75.809 12.958 C 76.121 13.221,76.168 13.513,76.286 15.917 L 76.417 18.583 78.083 18.671 C 80.561 18.802,80.500 18.734,80.500 21.350 C 80.500 24.325,80.344 24.497,77.649 24.499 L 76.381 24.500 76.263 26.517 C 76.145 28.529,76.287 32.325,76.481 32.343 C 76.537 32.348,77.347 32.409,78.280 32.479 C 80.576 32.651,80.500 32.554,80.500 35.328 C 80.500 37.938,80.551 37.831,78.950 38.580 C 77.816 39.110,73.728 39.364,71.630 39.033 C 70.206 38.809,68.842 37.869,68.836 37.107 C 68.834 36.937,68.655 36.586,68.436 36.326 C 68.041 35.856,68.038 35.827,67.916 30.258 C 67.777 23.953,67.952 24.659,66.463 24.420 C 65.513 24.267,65.333 23.873,65.333 21.946 C 65.333 19.847,65.548 19.354,66.721 18.750 C 68.494 17.839,68.833 17.635,68.833 17.485 C 68.833 17.400,69.058 17.020,69.333 16.640 C 69.608 16.261,69.835 15.830,69.837 15.683 C 69.839 15.537,69.987 15.229,70.167 15.000 C 70.356 14.758,70.494 14.321,70.496 13.958 C 70.503 12.818,70.834 12.667,73.315 12.667 C 75.118 12.667,75.519 12.714,75.809 12.958 M327.260 12.903 C 327.551 13.115,327.592 13.414,327.667 15.861 L 327.750 18.583 329.644 18.674 C 332.127 18.793,332.065 18.715,331.939 21.583 C 331.820 24.266,331.845 24.236,329.563 24.397 C 328.666 24.460,327.900 24.544,327.860 24.584 C 327.535 24.909,327.556 31.944,327.882 32.271 C 327.949 32.338,328.760 32.445,329.684 32.509 C 331.833 32.658,331.801 32.622,331.938 35.021 C 332.086 37.609,332.056 37.694,330.792 38.335 C 328.833 39.328,322.168 39.463,321.503 38.523 C 321.456 38.456,321.173 38.230,320.875 38.023 C 320.578 37.815,320.284 37.443,320.223 37.197 C 320.162 36.951,319.955 36.538,319.764 36.278 C 319.431 35.825,319.415 35.580,319.367 30.162 L 319.317 24.518 318.617 24.428 C 318.232 24.378,317.730 24.318,317.502 24.294 C 317.236 24.266,317.006 24.082,316.864 23.784 C 316.600 23.232,315.500 23.425,315.500 24.024 C 315.500 24.106,315.319 24.453,315.099 24.795 C 314.878 25.137,314.648 25.655,314.588 25.947 C 314.528 26.238,314.371 26.566,314.239 26.676 C 314.108 26.785,314.000 26.945,314.000 27.031 C 314.000 27.241,312.843 29.644,312.490 30.167 C 312.335 30.396,312.157 30.819,312.095 31.108 C 312.032 31.396,311.840 31.760,311.667 31.917 C 311.494 32.073,311.307 32.409,311.251 32.663 C 311.195 32.918,310.966 33.374,310.741 33.678 C 310.517 33.983,310.333 34.370,310.333 34.540 C 310.333 34.710,310.146 35.201,309.917 35.631 C 309.688 36.062,309.500 36.531,309.500 36.675 C 309.500 36.818,309.313 37.189,309.083 37.500 C 308.854 37.811,308.667 38.153,308.667 38.260 C 308.667 38.367,308.528 38.634,308.358 38.853 C 308.188 39.071,307.952 39.550,307.833 39.917 C 307.715 40.283,307.488 40.751,307.328 40.957 C 307.168 41.162,306.990 41.583,306.932 41.892 C 306.874 42.201,306.678 42.589,306.497 42.753 C 306.315 42.917,306.167 43.151,306.167 43.273 C 306.167 43.631,303.964 46.000,303.631 46.000 C 303.525 46.000,303.258 46.169,303.039 46.375 C 302.456 46.922,296.377 46.958,295.576 46.419 C 295.305 46.236,294.933 46.009,294.750 45.914 C 294.270 45.664,294.144 39.884,294.611 39.542 C 295.643 38.788,298.905 39.482,299.108 40.500 C 299.295 41.434,300.010 40.985,300.828 39.420 C 301.412 38.304,301.406 37.442,300.810 36.683 C 300.637 36.463,300.450 35.998,300.395 35.649 C 300.339 35.301,300.152 34.888,299.980 34.732 C 299.808 34.576,299.666 34.366,299.666 34.266 C 299.666 34.165,299.441 33.633,299.167 33.083 C 298.892 32.533,298.668 31.944,298.667 31.774 C 298.667 31.604,298.479 31.242,298.250 30.970 C 298.021 30.697,297.833 30.340,297.833 30.176 C 297.833 30.012,297.691 29.697,297.516 29.475 C 297.342 29.253,297.118 28.774,297.020 28.411 C 296.922 28.047,296.699 27.661,296.525 27.553 C 296.351 27.445,296.157 27.085,296.095 26.752 C 296.032 26.420,295.833 26.000,295.652 25.819 C 295.471 25.638,295.278 25.264,295.223 24.989 C 295.168 24.713,294.988 24.416,294.823 24.328 C 294.658 24.239,294.480 24.033,294.428 23.870 C 294.377 23.707,294.123 23.494,293.865 23.396 C 293.146 23.125,292.833 22.284,292.833 20.619 L 292.833 19.205 293.400 18.936 C 294.361 18.480,304.536 18.536,305.000 19.000 C 305.614 19.614,305.372 23.018,304.682 23.476 C 304.193 23.800,304.240 24.456,304.833 25.583 C 305.108 26.106,305.333 26.664,305.333 26.824 C 305.333 26.983,305.531 27.203,305.772 27.313 C 306.280 27.545,306.223 27.579,306.570 26.833 C 306.720 26.512,306.952 26.063,307.085 25.833 C 307.491 25.138,307.406 23.844,306.921 23.338 C 306.428 22.823,306.203 19.403,306.633 18.969 C 306.940 18.658,315.052 18.556,316.291 18.848 C 317.823 19.207,319.798 18.485,320.317 17.375 C 320.414 17.169,320.598 17.000,320.727 17.000 C 320.983 17.000,321.161 16.508,321.164 15.792 C 321.166 15.540,321.324 15.176,321.516 14.984 C 321.716 14.784,321.913 14.305,321.976 13.863 C 322.128 12.797,322.436 12.672,324.926 12.669 C 326.400 12.667,327.023 12.730,327.260 12.903 M25.203 17.958 C 24.960 18.551,25.062 32.757,25.312 33.058 C 25.642 33.455,26.991 33.420,27.811 32.992 C 28.170 32.805,28.748 32.605,29.094 32.549 C 30.079 32.390,31.580 30.824,31.734 29.797 C 31.798 29.372,31.996 28.838,32.175 28.610 C 32.618 28.047,32.671 23.132,32.239 22.655 C 32.096 22.496,31.877 21.983,31.753 21.513 C 31.628 21.037,31.293 20.392,30.996 20.053 C 30.253 19.207,30.181 19.121,29.953 18.793 C 29.837 18.628,29.360 18.430,28.843 18.333 C 28.344 18.240,27.766 18.051,27.557 17.915 C 26.998 17.549,25.359 17.579,25.203 17.958 M164.036 18.459 C 164.193 18.596,164.381 18.995,164.453 19.346 L 164.583 19.983 165.915 19.325 L 167.246 18.667 169.355 18.667 C 172.399 18.667,172.241 18.457,172.246 22.495 C 172.251 26.424,172.440 26.167,169.543 26.167 C 167.472 26.167,166.675 25.986,166.432 25.462 C 166.356 25.298,166.309 25.304,166.226 25.488 C 166.167 25.620,165.956 25.882,165.757 26.072 C 165.480 26.336,165.351 26.756,165.206 27.867 C 165.102 28.664,164.901 29.542,164.759 29.817 C 164.067 31.155,164.714 34.167,165.694 34.167 C 167.086 34.167,167.692 35.119,167.626 37.207 L 167.583 38.583 167.000 38.875 C 166.197 39.276,156.020 39.319,155.078 38.925 L 154.500 38.684 154.500 37.100 C 154.500 34.927,154.988 34.167,156.381 34.167 C 156.965 34.167,157.049 33.262,156.914 28.378 C 156.794 23.983,156.751 23.825,155.624 23.600 C 154.616 23.398,154.500 23.145,154.500 21.145 C 154.500 18.795,154.505 18.792,157.572 18.668 C 159.197 18.603,159.877 18.508,160.250 18.295 C 160.880 17.936,163.569 18.052,164.036 18.459 M59.375 19.393 C 59.994 19.744,60.500 20.094,60.500 20.171 C 60.500 20.248,60.649 20.358,60.831 20.416 C 61.509 20.631,62.365 22.238,62.455 23.463 C 62.500 24.079,62.631 24.734,62.746 24.917 C 62.887 25.143,62.981 26.378,63.039 28.750 C 63.139 32.821,63.205 33.088,64.158 33.249 C 65.090 33.406,65.185 33.670,65.130 35.956 L 65.083 37.914 64.417 38.287 C 64.050 38.491,63.563 38.754,63.333 38.871 C 63.043 39.019,62.033 39.083,60.000 39.083 L 57.083 39.083 56.375 38.603 C 55.556 38.047,54.984 38.067,53.695 38.697 C 52.974 39.049,52.697 39.077,49.917 39.080 L 46.917 39.083 46.096 38.601 C 44.986 37.948,44.035 36.893,43.828 36.083 C 43.734 35.717,43.547 35.218,43.412 34.974 C 43.101 34.413,43.095 33.177,43.401 32.739 C 43.530 32.555,43.691 32.037,43.758 31.586 C 43.888 30.719,44.985 29.300,45.701 29.072 C 45.885 29.014,46.300 28.787,46.624 28.567 C 46.948 28.347,47.400 28.167,47.629 28.167 C 47.857 28.167,48.297 28.011,48.605 27.820 C 48.965 27.597,49.612 27.430,50.411 27.354 C 51.323 27.267,51.757 27.142,52.036 26.888 C 52.316 26.633,52.718 26.518,53.551 26.456 C 54.175 26.409,54.729 26.327,54.782 26.273 C 54.939 26.116,54.468 24.623,54.105 24.125 C 53.673 23.532,52.261 23.439,52.086 23.991 C 52.029 24.170,51.837 24.363,51.658 24.419 C 51.433 24.491,51.333 24.673,51.333 25.011 C 51.333 26.072,50.950 26.202,48.003 26.139 C 44.506 26.065,44.614 26.154,44.692 23.390 C 44.755 21.181,44.970 20.669,45.937 20.427 C 46.160 20.371,46.486 20.181,46.662 20.005 C 46.837 19.829,47.267 19.634,47.616 19.572 C 47.965 19.509,48.377 19.347,48.532 19.212 C 48.995 18.808,50.376 18.694,54.417 18.725 L 58.250 18.755 59.375 19.393 M98.003 19.294 C 99.900 20.245,101.120 21.658,101.331 23.149 C 101.407 23.690,101.566 24.309,101.683 24.524 C 101.820 24.777,101.911 25.745,101.938 27.250 C 102.026 32.231,102.190 33.036,103.162 33.249 C 104.396 33.520,104.394 38.333,103.160 38.333 C 103.065 38.333,102.758 38.502,102.479 38.708 C 101.627 39.338,96.582 39.278,95.470 38.625 C 94.559 38.089,93.967 38.050,93.164 38.472 C 92.018 39.074,91.140 39.200,88.481 39.140 L 85.917 39.083 84.917 38.508 C 83.601 37.751,82.667 36.782,82.667 36.174 C 82.667 35.918,82.554 35.390,82.417 35.000 C 82.279 34.610,82.167 34.048,82.167 33.749 C 82.167 33.451,82.279 32.938,82.417 32.609 C 82.554 32.280,82.667 31.736,82.667 31.400 C 82.667 30.792,84.173 29.000,84.684 29.000 C 84.786 29.000,85.091 28.813,85.364 28.583 C 85.636 28.354,86.068 28.167,86.324 28.167 C 86.579 28.167,86.997 28.003,87.252 27.802 C 87.615 27.517,88.032 27.415,89.187 27.332 C 90.188 27.260,90.754 27.140,90.956 26.956 C 91.188 26.747,92.858 26.342,93.524 26.335 C 93.714 26.332,93.387 25.219,92.977 24.474 C 92.464 23.541,91.566 23.366,90.912 24.073 C 90.694 24.308,90.437 24.500,90.341 24.500 C 90.245 24.500,90.167 24.725,90.167 25.000 C 90.167 26.016,89.778 26.167,87.161 26.167 C 83.960 26.167,83.736 26.068,83.577 24.579 C 83.334 22.313,83.679 21.022,84.648 20.567 C 84.979 20.411,85.426 20.147,85.642 19.980 C 85.857 19.812,86.307 19.626,86.642 19.566 C 86.976 19.506,87.343 19.383,87.457 19.293 C 88.128 18.760,88.944 18.673,92.917 18.711 L 96.917 18.750 98.003 19.294 M147.417 19.105 C 147.783 19.300,148.271 19.545,148.500 19.650 C 150.187 20.422,152.120 22.579,152.294 23.884 C 152.345 24.269,152.544 24.796,152.735 25.056 C 153.265 25.774,153.262 30.744,152.732 31.750 C 152.538 32.117,152.330 32.742,152.269 33.140 C 152.208 33.538,151.972 34.137,151.746 34.471 C 151.519 34.804,151.333 35.169,151.333 35.280 C 151.333 35.392,151.226 35.543,151.095 35.617 C 150.964 35.690,150.624 36.072,150.340 36.465 C 150.055 36.858,149.642 37.248,149.421 37.332 C 149.201 37.415,148.943 37.629,148.848 37.806 C 148.748 37.992,148.411 38.177,148.046 38.244 C 147.700 38.308,147.242 38.523,147.028 38.722 C 146.652 39.072,146.514 39.083,142.612 39.083 L 138.583 39.083 137.147 38.378 C 135.696 37.665,133.667 35.968,133.667 35.467 C 133.667 35.338,133.488 34.990,133.271 34.695 C 133.053 34.399,132.826 33.854,132.767 33.484 C 132.707 33.113,132.530 32.613,132.373 32.373 C 131.895 31.643,131.848 27.420,132.308 26.466 C 132.497 26.072,132.705 25.412,132.769 25.000 C 132.908 24.104,133.773 22.377,134.198 22.150 C 134.364 22.061,134.500 21.877,134.500 21.741 C 134.500 21.604,134.686 21.408,134.913 21.304 C 135.141 21.201,135.371 20.977,135.425 20.808 C 135.478 20.639,135.615 20.500,135.729 20.500 C 135.842 20.500,136.184 20.316,136.488 20.092 C 136.792 19.868,137.257 19.637,137.522 19.579 C 137.786 19.520,138.077 19.334,138.168 19.165 C 138.509 18.526,146.235 18.476,147.417 19.105 M186.611 19.098 C 186.871 19.289,187.308 19.500,187.583 19.567 C 188.061 19.684,188.263 19.832,189.134 20.700 C 190.114 21.680,190.321 21.947,190.423 22.368 C 190.483 22.616,190.634 22.904,190.757 23.006 C 190.881 23.108,191.064 23.618,191.164 24.138 C 191.264 24.658,191.467 25.301,191.615 25.567 C 191.783 25.871,191.912 26.624,191.963 27.592 C 192.150 31.157,191.782 31.366,185.833 31.085 C 183.636 30.981,181.667 31.119,181.667 31.377 C 181.667 32.658,186.767 33.146,188.807 32.061 C 190.804 31.000,191.250 31.482,191.250 34.705 L 191.250 37.193 190.733 37.655 C 190.376 37.975,189.952 38.152,189.358 38.231 C 188.886 38.294,188.243 38.496,187.929 38.682 C 186.681 39.418,178.613 39.322,177.984 38.564 C 177.880 38.438,177.494 38.255,177.127 38.156 C 176.154 37.894,174.503 36.168,173.563 34.429 C 172.553 32.563,172.583 32.724,172.593 29.100 C 172.602 25.878,172.620 25.696,172.968 25.253 C 173.169 24.998,173.333 24.621,173.333 24.417 C 173.333 24.213,173.558 23.763,173.833 23.417 C 174.108 23.071,174.334 22.704,174.334 22.602 C 174.335 22.308,176.316 20.333,176.609 20.333 C 176.713 20.333,176.840 20.223,176.892 20.089 C 176.943 19.954,177.233 19.725,177.534 19.580 C 177.836 19.434,178.346 19.166,178.667 18.982 C 179.557 18.474,185.889 18.566,186.611 19.098 M273.278 19.096 C 273.538 19.287,273.988 19.524,274.278 19.625 C 274.569 19.725,274.981 19.967,275.195 20.162 C 276.152 21.037,276.509 21.440,276.604 21.750 C 276.660 21.933,276.879 22.458,277.089 22.917 C 277.450 23.701,277.478 24.013,277.564 28.250 C 277.666 33.296,277.676 33.333,278.935 33.333 C 279.979 33.333,280.167 33.724,280.167 35.896 C 280.167 37.931,280.128 38.030,279.263 38.237 C 278.995 38.302,278.603 38.490,278.391 38.657 C 277.496 39.361,272.036 39.239,271.246 38.496 C 270.705 37.988,269.167 38.077,268.375 38.662 C 267.854 39.047,267.741 39.059,264.588 39.071 L 261.337 39.083 260.912 38.625 C 260.678 38.373,260.393 38.167,260.278 38.167 C 260.034 38.167,258.833 36.903,258.833 36.646 C 258.833 36.549,258.681 36.346,258.494 36.193 C 257.770 35.603,257.843 31.867,258.594 31.056 C 258.817 30.815,259.000 30.551,259.000 30.470 C 259.000 29.953,261.201 28.358,262.102 28.222 C 262.458 28.168,262.989 27.980,263.281 27.805 C 263.579 27.626,264.353 27.426,265.046 27.348 C 265.724 27.272,266.477 27.080,266.717 26.923 C 266.958 26.765,267.609 26.595,268.163 26.545 C 269.298 26.442,269.466 26.215,269.276 25.043 C 268.978 23.207,266.579 23.269,266.232 25.121 C 266.068 25.996,265.492 26.167,262.704 26.167 C 259.626 26.167,259.750 26.273,259.750 23.638 C 259.750 21.111,259.835 20.774,260.540 20.491 C 260.839 20.371,261.254 20.142,261.463 19.983 C 261.672 19.824,262.160 19.643,262.547 19.581 C 262.933 19.519,263.436 19.350,263.663 19.205 C 264.668 18.566,272.435 18.478,273.278 19.096 M343.000 19.104 C 343.213 19.309,343.258 20.432,343.302 26.738 L 343.355 34.132 344.087 34.242 C 345.418 34.441,345.575 34.700,345.639 36.786 C 345.715 39.289,346.284 39.073,339.455 39.133 C 332.638 39.194,333.167 39.374,333.167 36.982 C 333.167 34.953,333.334 34.543,334.262 34.295 C 335.142 34.059,335.171 33.898,335.154 29.352 C 335.138 25.001,335.074 24.599,334.392 24.532 C 333.498 24.446,333.293 24.039,333.203 22.181 C 333.109 20.219,333.204 19.726,333.709 19.581 C 333.915 19.522,334.326 19.364,334.623 19.230 C 335.789 18.704,342.480 18.603,343.000 19.104 M361.924 19.105 C 362.295 19.300,362.914 19.512,363.299 19.578 C 364.732 19.820,364.743 19.850,364.802 23.666 C 364.870 28.161,365.117 27.833,361.663 27.833 C 358.364 27.833,358.333 27.816,358.333 25.930 C 358.333 24.543,358.239 24.167,357.894 24.167 C 357.763 24.167,357.613 24.054,357.560 23.917 C 357.438 23.597,357.099 23.596,356.834 23.915 C 356.721 24.052,356.337 24.243,355.981 24.339 C 355.411 24.492,355.333 24.573,355.333 25.014 C 355.333 25.332,355.174 25.674,354.898 25.950 C 354.409 26.439,354.330 29.638,354.803 29.795 C 354.916 29.833,355.111 30.101,355.237 30.390 C 355.363 30.680,355.799 31.273,356.206 31.708 L 356.947 32.500 358.955 32.500 C 360.600 32.500,361.095 32.440,361.690 32.170 C 364.060 31.095,364.833 31.696,364.833 34.615 L 364.833 36.873 364.186 37.520 C 363.690 38.016,363.408 38.167,362.977 38.167 C 362.667 38.167,362.040 38.371,361.582 38.620 L 360.750 39.073 356.880 39.072 C 353.174 39.071,352.990 39.055,352.522 38.709 C 352.253 38.511,351.820 38.296,351.558 38.232 C 350.350 37.937,348.235 35.629,347.909 34.249 C 347.844 33.974,347.631 33.487,347.437 33.167 C 346.894 32.271,346.894 25.950,347.437 25.216 C 347.632 24.952,347.845 24.493,347.911 24.194 C 347.976 23.896,348.211 23.457,348.432 23.218 C 348.653 22.980,348.833 22.713,348.833 22.626 C 348.833 22.539,349.340 21.991,349.958 21.408 C 350.577 20.825,351.233 20.204,351.417 20.027 C 351.765 19.691,353.450 18.927,354.167 18.781 C 355.479 18.512,361.257 18.753,361.924 19.105 M380.642 18.826 C 381.225 18.911,381.825 19.087,381.976 19.217 C 382.127 19.348,382.458 19.505,382.713 19.565 C 383.712 19.803,383.833 20.118,383.833 22.474 C 383.833 25.363,383.993 25.232,380.367 25.307 C 377.286 25.370,377.167 25.330,377.167 24.239 C 377.167 23.640,376.820 23.500,375.340 23.500 C 374.406 23.500,374.370 23.526,374.461 24.146 C 374.525 24.578,374.608 24.635,375.276 24.711 C 375.698 24.758,376.179 24.942,376.385 25.134 C 376.586 25.320,377.027 25.524,377.365 25.587 C 377.704 25.649,378.225 25.880,378.523 26.100 C 378.821 26.320,379.225 26.500,379.420 26.500 C 379.615 26.500,379.951 26.688,380.167 26.917 C 380.382 27.146,380.685 27.333,380.839 27.333 C 381.498 27.333,383.246 28.888,384.162 30.287 C 384.762 31.205,384.881 33.953,384.343 34.490 C 384.149 34.685,383.942 35.085,383.883 35.380 C 383.778 35.913,382.733 37.333,382.447 37.333 C 382.365 37.333,382.155 37.515,381.980 37.737 C 381.806 37.959,381.423 38.194,381.130 38.258 C 380.836 38.323,380.381 38.535,380.117 38.729 C 379.657 39.070,379.470 39.083,375.263 39.073 L 370.888 39.064 370.031 38.615 C 369.559 38.368,369.014 38.167,368.820 38.167 C 367.388 38.167,367.002 37.370,367.001 34.407 C 367.000 31.824,366.986 31.843,369.011 31.636 C 372.175 31.312,373.328 31.593,373.455 32.720 C 373.617 34.157,375.502 34.806,376.149 33.648 C 376.609 32.825,374.525 31.167,373.031 31.167 C 372.767 31.167,372.424 31.026,372.268 30.853 C 372.112 30.681,371.681 30.492,371.309 30.432 C 370.831 30.356,370.608 30.228,370.547 29.995 C 370.500 29.815,370.319 29.667,370.146 29.667 C 369.760 29.667,367.833 27.821,367.833 27.451 C 367.833 27.304,367.646 26.832,367.417 26.401 C 366.293 24.287,368.036 20.102,370.261 19.572 C 370.530 19.508,370.881 19.341,371.042 19.201 C 371.620 18.699,378.029 18.449,380.642 18.826 M217.092 22.414 C 217.030 22.833,216.851 23.254,216.686 23.372 C 216.500 23.506,216.325 23.981,216.211 24.667 C 216.111 25.262,215.981 25.871,215.922 26.020 C 215.750 26.450,217.669 26.696,218.812 26.390 C 219.309 26.257,219.238 24.824,218.697 24.053 C 218.515 23.795,218.321 23.212,218.266 22.759 C 218.101 21.423,217.277 21.181,217.092 22.414 M181.600 24.375 C 180.259 25.938,180.490 26.333,182.745 26.333 L 184.500 26.333 184.500 25.917 C 184.500 25.688,184.389 25.369,184.254 25.208 C 182.739 23.412,182.493 23.335,181.600 24.375 M141.151 24.958 C 141.056 25.210,140.821 25.584,140.629 25.789 C 140.307 26.132,140.279 26.364,140.265 28.798 L 140.250 31.435 140.708 31.981 C 140.960 32.280,141.167 32.634,141.167 32.767 C 141.167 33.108,141.869 33.333,142.929 33.333 C 143.829 33.333,143.838 33.328,144.098 32.680 C 144.242 32.320,144.466 31.985,144.596 31.935 C 145.084 31.748,144.927 26.136,144.417 25.530 C 144.188 25.258,144.000 24.915,144.000 24.768 C 144.000 24.218,141.365 24.394,141.151 24.958 M53.717 30.726 C 53.544 31.019,52.938 31.333,52.548 31.333 C 52.379 31.333,52.037 31.566,51.787 31.850 C 50.807 32.967,51.462 34.167,53.052 34.167 L 53.802 34.167 54.301 33.100 C 54.963 31.686,55.049 31.384,54.929 30.905 C 54.813 30.446,53.957 30.319,53.717 30.726 M268.608 30.744 C 268.439 30.873,267.926 31.074,267.470 31.191 C 266.314 31.487,265.977 32.177,266.271 33.646 C 266.427 34.426,267.968 34.430,268.798 33.651 C 269.686 32.820,269.506 30.066,268.608 30.744 M91.994 31.229 C 90.117 31.950,89.587 32.897,90.552 33.804 C 91.252 34.462,92.993 34.252,93.004 33.508 C 93.006 33.366,93.177 32.837,93.383 32.333 C 94.022 30.772,93.749 30.555,91.994 31.229 " stroke="none" fill="#fafafa" fill-rule="evenodd"></path><path id="path3" d="M336.552 10.990 C 335.295 11.190,334.242 12.084,334.093 13.075 C 334.033 13.477,333.873 13.898,333.738 14.010 C 333.525 14.187,333.524 14.251,333.728 14.482 C 333.857 14.630,334.015 15.065,334.078 15.449 C 334.171 16.013,334.343 16.271,334.967 16.782 L 335.741 17.417 338.690 17.417 C 341.465 17.417,341.663 17.396,342.028 17.062 C 342.242 16.868,342.577 16.626,342.773 16.525 C 343.702 16.047,344.085 14.301,343.500 13.210 C 343.317 12.868,343.167 12.509,343.167 12.413 C 343.167 12.316,342.834 11.959,342.428 11.620 L 341.689 11.002 339.553 10.927 C 338.378 10.885,337.027 10.913,336.552 10.990 M283.583 11.154 C 283.033 11.212,282.433 11.340,282.250 11.440 C 282.067 11.541,281.624 11.676,281.267 11.740 C 279.933 11.981,279.825 12.159,279.873 14.017 C 279.924 15.950,280.232 16.451,281.473 16.617 C 282.493 16.754,282.501 16.826,282.479 25.500 C 282.457 34.351,282.495 34.008,281.535 34.242 C 280.574 34.477,280.506 34.639,280.503 36.676 C 280.499 39.284,280.053 39.072,285.695 39.140 C 293.602 39.234,293.147 39.458,293.013 35.534 C 292.993 34.942,292.326 34.395,291.468 34.266 L 290.708 34.152 290.610 33.368 C 290.556 32.936,290.510 27.872,290.506 22.114 C 290.502 15.233,290.441 11.534,290.327 11.322 C 290.146 10.983,286.187 10.885,283.583 11.154 M341.371 11.865 C 343.229 12.734,343.652 14.994,342.167 16.122 C 340.120 17.676,335.324 17.302,334.647 15.536 C 333.452 12.414,337.646 10.124,341.371 11.865 M290.063 12.021 C 290.120 12.307,290.167 17.441,290.167 23.428 L 290.167 34.314 290.537 34.574 C 290.741 34.717,291.027 34.833,291.173 34.833 C 292.164 34.833,292.769 37.813,291.906 38.446 C 291.575 38.689,281.500 38.723,281.260 38.482 C 280.616 37.837,281.329 34.833,282.125 34.833 C 282.254 34.833,282.578 34.614,282.846 34.346 L 283.333 33.859 283.333 25.505 C 283.333 16.465,283.340 16.537,282.431 15.941 C 282.200 15.790,281.833 15.667,281.615 15.667 C 280.927 15.667,280.735 15.225,280.801 13.790 C 280.875 12.166,280.752 12.231,284.180 12.003 C 285.685 11.903,287.292 11.758,287.750 11.680 C 289.534 11.378,289.946 11.439,290.063 12.021 M214.046 12.289 C 213.883 12.539,213.619 12.877,213.458 13.039 C 213.298 13.201,213.167 13.560,213.167 13.836 C 213.167 14.113,212.986 14.694,212.766 15.128 C 212.545 15.562,212.314 16.292,212.251 16.750 C 212.188 17.208,212.034 17.699,211.908 17.839 C 211.782 17.980,211.571 18.560,211.439 19.127 C 211.306 19.695,211.081 20.276,210.939 20.418 C 210.796 20.561,210.638 20.956,210.586 21.297 C 210.534 21.638,210.410 22.142,210.310 22.417 C 210.210 22.692,210.021 23.254,209.889 23.667 C 209.757 24.079,209.502 24.696,209.322 25.038 C 209.142 25.379,208.948 26.017,208.890 26.454 C 208.833 26.892,208.609 27.557,208.393 27.931 C 208.177 28.306,208.000 28.832,208.000 29.099 C 208.000 29.367,207.820 29.925,207.599 30.339 C 207.379 30.753,207.145 31.447,207.080 31.882 C 207.015 32.316,206.876 32.727,206.771 32.794 C 206.667 32.862,206.372 33.198,206.116 33.542 C 205.803 33.961,205.518 34.167,205.249 34.167 C 204.003 34.167,203.799 34.572,203.868 36.917 L 203.917 38.583 204.500 38.880 C 205.476 39.375,215.002 39.239,215.518 38.723 C 216.539 37.702,215.871 34.167,214.657 34.167 C 214.394 34.167,214.334 34.050,214.336 33.542 C 214.341 32.084,214.141 32.167,217.676 32.167 L 220.813 32.167 220.925 32.915 C 221.076 33.924,220.976 34.101,220.186 34.228 C 219.286 34.372,219.167 34.653,219.167 36.637 C 219.167 38.022,219.219 38.361,219.485 38.690 L 219.804 39.083 225.610 39.078 C 228.804 39.075,231.754 39.059,232.167 39.042 C 232.579 39.025,235.467 39.048,238.583 39.093 C 245.195 39.188,245.300 39.169,245.548 37.814 C 245.900 35.887,245.172 34.455,243.731 34.238 L 243.016 34.131 242.966 31.524 C 242.858 25.839,243.110 25.017,244.898 25.227 C 245.345 25.280,245.758 25.369,245.814 25.426 C 245.871 25.482,245.920 28.456,245.924 32.033 C 245.931 38.122,245.951 38.552,246.234 38.759 C 247.097 39.390,255.997 39.330,256.515 38.690 C 257.352 37.655,256.852 34.952,255.727 34.429 C 254.448 33.834,254.334 33.280,254.289 27.406 C 254.255 23.046,254.214 22.354,253.964 21.917 C 253.807 21.642,253.565 21.180,253.427 20.890 C 253.119 20.246,252.482 19.726,251.826 19.582 C 251.555 19.522,251.333 19.401,251.333 19.312 C 251.333 18.495,245.447 18.423,244.512 19.228 C 243.834 19.810,243.200 19.845,242.636 19.330 C 241.460 18.256,234.083 18.755,232.570 20.011 C 232.210 20.310,232.248 22.746,232.625 23.498 C 232.947 24.139,233.508 24.494,234.208 24.498 C 234.661 24.500,234.667 24.514,234.686 25.625 C 234.697 26.244,234.732 27.613,234.764 28.667 C 234.797 29.721,234.780 31.381,234.728 32.357 L 234.633 34.130 233.620 34.329 C 232.307 34.588,230.764 34.290,230.353 33.700 C 230.205 33.487,229.914 33.099,229.707 32.839 C 229.500 32.579,229.258 31.983,229.169 31.515 C 229.081 31.047,228.864 30.459,228.688 30.207 C 228.511 29.956,228.324 29.345,228.272 28.849 C 228.214 28.309,228.050 27.809,227.860 27.599 C 227.673 27.393,227.503 26.883,227.444 26.354 C 227.389 25.861,227.212 25.261,227.050 25.021 C 226.888 24.780,226.664 24.142,226.551 23.603 C 226.438 23.064,226.237 22.501,226.104 22.353 C 225.971 22.205,225.812 21.708,225.750 21.250 C 225.688 20.792,225.500 20.222,225.332 19.984 C 225.165 19.746,224.978 19.184,224.916 18.734 C 224.854 18.285,224.647 17.695,224.455 17.424 C 224.263 17.153,224.047 16.555,223.974 16.096 C 223.901 15.636,223.701 15.069,223.528 14.836 C 223.356 14.603,223.163 14.000,223.100 13.496 C 222.892 11.831,222.900 11.833,218.181 11.833 L 214.341 11.833 214.046 12.289 M221.223 12.276 C 221.703 12.355,221.907 12.490,222.040 12.816 C 222.138 13.055,222.357 13.555,222.526 13.928 C 222.695 14.300,222.833 14.715,222.833 14.849 C 222.833 14.983,222.954 15.264,223.101 15.474 C 223.248 15.684,223.475 16.315,223.606 16.876 C 223.737 17.436,223.922 17.990,224.018 18.105 C 224.114 18.220,224.302 18.787,224.437 19.365 C 224.572 19.942,224.777 20.565,224.894 20.749 C 225.010 20.933,225.196 21.496,225.306 22.001 C 225.416 22.506,225.617 23.134,225.754 23.397 C 225.890 23.659,226.120 24.334,226.266 24.895 C 226.411 25.457,226.599 26.000,226.683 26.103 C 226.768 26.205,226.979 26.805,227.153 27.436 C 227.600 29.065,227.969 30.148,228.337 30.917 C 228.513 31.283,228.736 31.946,228.832 32.390 C 229.081 33.531,229.865 34.454,230.732 34.625 L 231.417 34.760 231.464 36.625 C 231.522 38.919,232.192 38.695,225.466 38.632 C 219.359 38.576,219.824 38.731,219.709 36.713 C 219.616 35.088,219.795 34.667,220.577 34.667 C 221.648 34.667,222.019 33.011,221.180 31.975 C 220.865 31.586,214.672 31.474,213.978 31.845 C 212.979 32.380,213.224 34.215,214.344 34.587 L 215.167 34.860 215.167 36.441 C 215.167 38.872,215.640 38.667,210.036 38.664 C 204.358 38.661,204.837 38.848,204.782 36.617 C 204.735 34.715,204.756 34.667,205.616 34.667 C 206.286 34.667,207.260 33.546,207.480 32.522 C 207.580 32.057,207.812 31.393,207.997 31.049 C 208.182 30.704,208.333 30.275,208.333 30.097 C 208.333 29.918,208.485 29.458,208.671 29.073 C 208.857 28.689,209.150 27.897,209.322 27.313 C 209.493 26.728,209.835 25.725,210.081 25.083 C 210.327 24.442,210.675 23.392,210.853 22.750 C 211.032 22.108,211.258 21.442,211.355 21.269 C 211.452 21.095,211.644 20.576,211.781 20.115 C 211.918 19.653,212.129 19.120,212.250 18.930 C 212.371 18.739,212.560 18.136,212.670 17.590 C 212.781 17.044,212.969 16.444,213.088 16.257 C 213.207 16.070,213.420 15.522,213.560 15.041 C 213.701 14.559,213.932 13.998,214.075 13.795 C 214.217 13.592,214.333 13.233,214.333 12.996 C 214.333 12.215,214.528 12.167,217.658 12.169 C 219.267 12.170,220.871 12.218,221.223 12.276 M322.501 12.882 C 322.182 13.043,322.061 13.269,321.976 13.863 C 321.913 14.305,321.716 14.784,321.516 14.984 C 321.324 15.176,321.166 15.540,321.164 15.792 C 321.161 16.508,320.983 17.000,320.727 17.000 C 320.598 17.000,320.414 17.169,320.317 17.375 C 319.798 18.485,317.823 19.207,316.291 18.848 C 315.052 18.556,306.940 18.658,306.633 18.969 C 306.203 19.403,306.428 22.823,306.921 23.338 C 307.406 23.844,307.491 25.138,307.085 25.833 C 306.952 26.063,306.720 26.512,306.570 26.833 C 306.223 27.579,306.280 27.545,305.772 27.313 C 305.531 27.203,305.333 26.983,305.333 26.824 C 305.333 26.664,305.108 26.106,304.833 25.583 C 304.240 24.456,304.193 23.800,304.682 23.476 C 305.372 23.018,305.614 19.614,305.000 19.000 C 304.536 18.536,294.361 18.480,293.400 18.936 L 292.833 19.205 292.833 20.619 C 292.833 22.284,293.146 23.125,293.865 23.396 C 294.123 23.494,294.377 23.707,294.428 23.870 C 294.480 24.033,294.658 24.239,294.823 24.328 C 294.988 24.416,295.168 24.713,295.223 24.989 C 295.278 25.264,295.471 25.638,295.652 25.819 C 295.833 26.000,296.032 26.420,296.095 26.752 C 296.157 27.085,296.351 27.445,296.525 27.553 C 296.699 27.661,296.922 28.047,297.020 28.411 C 297.118 28.774,297.342 29.253,297.516 29.475 C 297.691 29.697,297.833 30.012,297.833 30.176 C 297.833 30.340,298.021 30.697,298.250 30.970 C 298.479 31.242,298.667 31.604,298.667 31.774 C 298.668 31.944,298.892 32.533,299.167 33.083 C 299.441 33.633,299.666 34.165,299.666 34.266 C 299.666 34.366,299.808 34.576,299.980 34.732 C 300.152 34.888,300.339 35.301,300.395 35.649 C 300.450 35.998,300.637 36.463,300.810 36.683 C 301.406 37.442,301.412 38.304,300.828 39.420 C 300.010 40.985,299.295 41.434,299.108 40.500 C 298.905 39.482,295.643 38.788,294.611 39.542 C 294.144 39.884,294.270 45.664,294.750 45.914 C 294.933 46.009,295.305 46.236,295.576 46.419 C 296.377 46.958,302.456 46.922,303.039 46.375 C 303.258 46.169,303.525 46.000,303.631 46.000 C 303.964 46.000,306.167 43.631,306.167 43.273 C 306.167 43.151,306.315 42.917,306.497 42.753 C 306.678 42.589,306.874 42.201,306.932 41.892 C 306.990 41.583,307.168 41.162,307.328 40.957 C 307.488 40.751,307.715 40.283,307.833 39.917 C 307.952 39.550,308.188 39.071,308.358 38.853 C 308.528 38.634,308.667 38.367,308.667 38.260 C 308.667 38.153,308.854 37.811,309.083 37.500 C 309.313 37.189,309.500 36.818,309.500 36.675 C 309.500 36.531,309.688 36.062,309.917 35.631 C 310.146 35.201,310.333 34.710,310.333 34.540 C 310.333 34.370,310.517 33.983,310.741 33.678 C 310.966 33.374,311.195 32.918,311.251 32.663 C 311.307 32.409,311.494 32.073,311.667 31.917 C 311.840 31.760,312.032 31.396,312.095 31.108 C 312.157 30.819,312.335 30.396,312.490 30.167 C 312.843 29.644,314.000 27.241,314.000 27.031 C 314.000 26.945,314.108 26.785,314.239 26.676 C 314.371 26.566,314.528 26.238,314.588 25.947 C 314.648 25.655,314.878 25.137,315.099 24.795 C 315.319 24.453,315.500 24.106,315.500 24.024 C 315.500 23.425,316.600 23.232,316.864 23.784 C 317.006 24.082,317.236 24.266,317.502 24.294 C 317.730 24.318,318.232 24.378,318.617 24.428 L 319.317 24.518 319.367 30.162 C 319.415 35.580,319.431 35.825,319.764 36.278 C 319.955 36.538,320.162 36.951,320.223 37.197 C 320.284 37.443,320.578 37.815,320.875 38.023 C 321.173 38.230,321.456 38.456,321.503 38.523 C 322.168 39.463,328.833 39.328,330.792 38.335 C 332.056 37.694,332.086 37.609,331.938 35.021 C 331.801 32.622,331.833 32.658,329.684 32.509 C 328.760 32.445,327.949 32.338,327.882 32.271 C 327.556 31.944,327.535 24.909,327.860 24.584 C 327.900 24.544,328.666 24.460,329.563 24.397 C 331.845 24.236,331.820 24.266,331.939 21.583 C 332.065 18.715,332.127 18.793,329.644 18.674 L 327.750 18.583 327.667 15.861 C 327.592 13.414,327.551 13.115,327.260 12.903 C 326.832 12.591,323.109 12.574,322.501 12.882 M326.686 13.625 C 326.792 13.899,326.839 14.997,326.804 16.359 C 326.732 19.093,326.686 19.033,328.917 19.122 C 331.414 19.222,331.220 19.039,331.135 21.217 C 331.033 23.793,331.004 23.833,329.228 23.833 C 327.078 23.833,326.838 24.023,326.815 25.744 C 326.721 32.697,326.820 33.000,329.172 33.000 C 331.049 33.000,331.086 33.047,331.070 35.409 C 331.062 36.544,330.983 37.417,330.878 37.522 C 329.978 38.422,323.721 39.041,322.892 38.311 C 322.722 38.162,322.396 37.984,322.167 37.917 C 321.486 37.718,320.997 37.155,320.398 35.883 L 319.833 34.682 319.833 29.562 C 319.833 23.792,319.842 23.833,318.647 23.833 C 317.667 23.833,317.394 23.421,317.253 21.727 C 317.188 20.947,317.161 20.293,317.192 20.273 C 317.224 20.253,317.560 20.038,317.939 19.795 C 318.319 19.552,318.918 19.233,319.271 19.085 C 320.000 18.781,320.667 18.212,320.667 17.893 C 320.667 17.775,320.812 17.601,320.989 17.506 C 321.166 17.411,321.363 17.165,321.427 16.959 C 321.491 16.752,321.683 16.386,321.853 16.145 C 322.022 15.903,322.273 15.229,322.409 14.646 C 322.733 13.256,322.882 13.167,324.869 13.167 C 326.503 13.167,326.509 13.168,326.686 13.625 M265.080 18.820 C 264.528 18.887,263.890 19.061,263.663 19.205 C 263.436 19.350,262.933 19.519,262.547 19.581 C 262.160 19.643,261.672 19.824,261.463 19.983 C 261.254 20.142,260.839 20.371,260.540 20.491 C 259.835 20.774,259.750 21.111,259.750 23.638 C 259.750 26.273,259.626 26.167,262.704 26.167 C 265.492 26.167,266.068 25.996,266.232 25.121 C 266.579 23.269,268.978 23.207,269.276 25.043 C 269.466 26.215,269.298 26.442,268.163 26.545 C 267.609 26.595,266.958 26.765,266.717 26.923 C 266.477 27.080,265.724 27.272,265.046 27.348 C 264.353 27.426,263.579 27.626,263.281 27.805 C 262.989 27.980,262.458 28.168,262.102 28.222 C 261.201 28.358,259.000 29.953,259.000 30.470 C 259.000 30.551,258.817 30.815,258.594 31.056 C 257.843 31.867,257.770 35.603,258.494 36.193 C 258.681 36.346,258.833 36.549,258.833 36.646 C 258.833 36.903,260.034 38.167,260.278 38.167 C 260.393 38.167,260.678 38.373,260.912 38.625 L 261.337 39.083 264.588 39.071 C 267.741 39.059,267.854 39.047,268.375 38.662 C 269.167 38.077,270.705 37.988,271.246 38.496 C 272.036 39.239,277.496 39.361,278.391 38.657 C 278.603 38.490,278.995 38.302,279.263 38.237 C 280.128 38.030,280.167 37.931,280.167 35.896 C 280.167 33.724,279.979 33.333,278.935 33.333 C 277.676 33.333,277.666 33.296,277.564 28.250 C 277.478 24.013,277.450 23.701,277.089 22.917 C 276.879 22.458,276.660 21.933,276.604 21.750 C 276.509 21.440,276.152 21.037,275.195 20.162 C 274.981 19.967,274.569 19.725,274.278 19.625 C 273.988 19.524,273.538 19.287,273.278 19.096 C 272.765 18.720,267.389 18.539,265.080 18.820 M337.289 18.854 C 336.065 18.930,334.933 19.090,334.623 19.230 C 334.326 19.364,333.915 19.522,333.709 19.581 C 333.204 19.726,333.109 20.219,333.203 22.181 C 333.293 24.039,333.498 24.446,334.392 24.532 C 335.074 24.599,335.138 25.001,335.154 29.352 C 335.171 33.898,335.142 34.059,334.262 34.295 C 333.334 34.543,333.167 34.953,333.167 36.982 C 333.167 39.374,332.638 39.194,339.455 39.133 C 346.284 39.073,345.715 39.289,345.639 36.786 C 345.575 34.700,345.418 34.441,344.087 34.242 L 343.355 34.132 343.302 26.738 C 343.258 20.432,343.213 19.309,343.000 19.104 C 342.673 18.788,340.120 18.676,337.289 18.854 M354.167 18.781 C 353.450 18.927,351.765 19.691,351.417 20.027 C 351.233 20.204,350.577 20.825,349.958 21.408 C 349.340 21.991,348.833 22.539,348.833 22.626 C 348.833 22.713,348.653 22.980,348.432 23.218 C 348.211 23.457,347.976 23.896,347.911 24.194 C 347.845 24.493,347.632 24.952,347.437 25.216 C 346.894 25.950,346.894 32.271,347.437 33.167 C 347.631 33.487,347.844 33.974,347.909 34.249 C 348.235 35.629,350.350 37.937,351.558 38.232 C 351.820 38.296,352.253 38.511,352.522 38.709 C 352.990 39.055,353.174 39.071,356.880 39.072 L 360.750 39.073 361.582 38.620 C 362.040 38.371,362.667 38.167,362.977 38.167 C 363.408 38.167,363.690 38.016,364.186 37.520 L 364.833 36.873 364.833 34.615 C 364.833 31.696,364.060 31.095,361.690 32.170 C 361.095 32.440,360.600 32.500,358.955 32.500 L 356.947 32.500 356.206 31.708 C 355.799 31.273,355.363 30.680,355.237 30.390 C 355.111 30.101,354.916 29.833,354.803 29.795 C 354.330 29.638,354.409 26.439,354.898 25.950 C 355.174 25.674,355.333 25.332,355.333 25.014 C 355.333 24.573,355.411 24.492,355.981 24.339 C 356.337 24.243,356.721 24.052,356.834 23.915 C 357.099 23.596,357.438 23.597,357.560 23.917 C 357.613 24.054,357.763 24.167,357.894 24.167 C 358.239 24.167,358.333 24.543,358.333 25.930 C 358.333 27.816,358.364 27.833,361.663 27.833 C 365.117 27.833,364.870 28.161,364.802 23.666 C 364.743 19.850,364.732 19.820,363.299 19.578 C 362.914 19.512,362.295 19.300,361.924 19.105 C 361.257 18.753,355.479 18.512,354.167 18.781 M371.959 18.826 C 371.615 18.893,371.203 19.062,371.042 19.201 C 370.881 19.341,370.530 19.508,370.261 19.572 C 368.036 20.102,366.293 24.287,367.417 26.401 C 367.646 26.832,367.833 27.304,367.833 27.451 C 367.833 27.821,369.760 29.667,370.146 29.667 C 370.319 29.667,370.500 29.815,370.547 29.995 C 370.608 30.228,370.831 30.356,371.309 30.432 C 371.681 30.492,372.112 30.681,372.268 30.853 C 372.424 31.026,372.767 31.167,373.031 31.167 C 374.525 31.167,376.609 32.825,376.149 33.648 C 375.502 34.806,373.617 34.157,373.455 32.720 C 373.328 31.593,372.175 31.312,369.011 31.636 C 366.986 31.843,367.000 31.824,367.001 34.407 C 367.002 37.370,367.388 38.167,368.820 38.167 C 369.014 38.167,369.559 38.368,370.031 38.615 L 370.888 39.064 375.263 39.073 C 379.470 39.083,379.657 39.070,380.117 38.729 C 380.381 38.535,380.836 38.323,381.130 38.258 C 381.423 38.194,381.806 37.959,381.980 37.737 C 382.155 37.515,382.365 37.333,382.447 37.333 C 382.733 37.333,383.778 35.913,383.883 35.380 C 383.942 35.085,384.149 34.685,384.343 34.490 C 384.881 33.953,384.762 31.205,384.162 30.287 C 383.246 28.888,381.498 27.333,380.839 27.333 C 380.685 27.333,380.382 27.146,380.167 26.917 C 379.951 26.688,379.615 26.500,379.420 26.500 C 379.225 26.500,378.821 26.320,378.523 26.100 C 378.225 25.880,377.704 25.649,377.365 25.587 C 377.027 25.524,376.586 25.320,376.385 25.134 C 376.179 24.942,375.698 24.758,375.276 24.711 C 374.608 24.635,374.525 24.578,374.461 24.146 C 374.370 23.526,374.406 23.500,375.340 23.500 C 376.820 23.500,377.167 23.640,377.167 24.239 C 377.167 25.330,377.286 25.370,380.367 25.307 C 383.993 25.232,383.833 25.363,383.833 22.474 C 383.833 20.118,383.712 19.803,382.713 19.565 C 382.458 19.505,382.127 19.348,381.976 19.217 C 381.411 18.728,373.963 18.437,371.959 18.826 M304.641 19.255 C 304.813 19.317,304.852 19.701,304.808 20.915 L 304.750 22.494 304.125 23.009 C 303.781 23.293,303.500 23.629,303.500 23.756 C 303.500 24.654,304.955 27.735,305.732 28.485 L 306.322 29.054 306.661 28.263 C 306.847 27.828,307.000 27.434,307.000 27.387 C 307.000 27.341,307.150 27.112,307.333 26.879 C 307.517 26.646,307.667 26.295,307.667 26.100 C 307.667 25.905,307.817 25.465,308.000 25.123 C 308.532 24.131,308.445 23.510,307.667 22.750 L 307.000 22.099 307.000 20.734 C 307.000 19.643,307.053 19.349,307.264 19.268 C 307.817 19.056,316.007 19.155,316.075 19.375 C 316.440 20.554,316.295 22.231,315.785 22.732 C 314.869 23.632,313.960 25.170,313.503 26.590 C 313.387 26.953,313.200 27.363,313.088 27.500 C 312.813 27.839,311.667 30.207,311.667 30.437 C 311.667 30.539,311.521 30.806,311.344 31.032 C 311.166 31.258,310.967 31.657,310.901 31.919 C 310.836 32.180,310.606 32.654,310.391 32.970 C 310.176 33.287,310.000 33.671,310.000 33.824 C 310.000 33.977,309.813 34.356,309.583 34.667 C 309.354 34.977,309.167 35.339,309.167 35.470 C 309.167 35.601,308.785 36.468,308.319 37.396 C 307.853 38.324,307.299 39.458,307.088 39.917 C 305.789 42.746,305.541 43.163,304.500 44.277 C 302.688 46.214,298.753 47.070,296.583 45.999 C 296.400 45.908,295.950 45.733,295.583 45.609 L 294.917 45.385 294.777 43.067 C 294.586 39.879,294.608 39.833,296.288 39.836 C 297.753 39.839,297.848 39.877,298.228 40.620 C 298.831 41.797,300.068 41.862,300.828 40.758 C 302.223 38.730,302.314 37.236,301.136 35.686 C 300.969 35.467,300.833 35.211,300.833 35.116 C 300.833 34.881,297.242 27.498,295.642 24.442 C 295.490 24.153,294.987 23.528,294.523 23.053 L 293.680 22.190 293.741 20.827 C 293.774 20.078,293.865 19.401,293.943 19.323 C 294.185 19.082,303.981 19.019,304.641 19.255 M250.579 19.689 C 251.988 20.349,252.514 20.831,253.185 22.083 L 253.721 23.083 253.831 28.500 C 253.952 34.444,253.945 34.398,254.783 34.701 C 255.895 35.103,256.565 38.309,255.592 38.570 C 254.823 38.777,247.403 38.671,247.100 38.450 C 246.828 38.251,246.800 37.797,246.763 32.991 C 246.726 28.282,246.643 26.527,246.406 25.380 C 246.306 24.896,245.222 24.167,244.603 24.167 C 242.835 24.167,242.166 26.072,242.167 31.113 L 242.167 34.142 242.606 34.488 C 242.847 34.678,243.258 34.833,243.518 34.833 C 244.357 34.833,244.990 37.777,244.300 38.467 C 244.022 38.744,233.574 38.754,233.402 38.477 C 232.895 37.656,233.488 34.833,234.168 34.833 C 235.210 34.833,235.250 34.632,235.250 29.350 C 235.250 24.240,235.161 23.667,234.367 23.667 C 233.557 23.667,233.333 23.233,233.333 21.665 L 233.333 20.182 233.958 20.009 C 234.302 19.913,235.108 19.834,235.750 19.834 C 236.392 19.833,237.592 19.721,238.417 19.586 C 241.422 19.092,241.971 19.270,242.002 20.750 C 242.016 21.460,242.895 21.309,243.902 20.425 C 244.169 20.190,244.656 19.922,244.985 19.829 C 245.314 19.736,245.771 19.551,246.000 19.419 C 246.829 18.940,249.289 19.085,250.579 19.689 M272.652 19.671 C 273.902 20.127,275.070 20.808,275.360 21.249 C 275.421 21.341,275.628 21.597,275.819 21.818 C 276.011 22.039,276.246 22.526,276.342 22.901 C 276.438 23.276,276.601 23.808,276.705 24.083 C 276.818 24.381,276.932 26.325,276.989 28.890 C 277.095 33.709,277.129 33.830,278.393 33.836 C 279.044 33.839,279.373 34.036,279.253 34.350 C 279.202 34.481,279.227 35.071,279.307 35.661 C 279.529 37.283,279.418 37.507,278.156 37.969 C 275.628 38.894,273.082 38.882,271.692 37.938 C 270.725 37.283,270.142 37.192,269.394 37.582 C 269.131 37.719,268.766 37.832,268.581 37.832 C 268.396 37.833,267.946 37.994,267.581 38.191 C 265.685 39.212,261.588 38.672,260.061 37.200 C 258.391 35.591,258.185 31.383,259.733 30.472 C 259.837 30.410,260.125 30.173,260.372 29.943 C 260.620 29.714,260.994 29.474,261.203 29.410 C 261.412 29.346,261.704 29.189,261.851 29.060 C 262.187 28.765,263.881 28.256,266.246 27.737 C 270.233 26.862,270.402 26.683,269.668 24.137 C 269.158 22.371,265.829 22.784,265.407 24.667 C 265.203 25.578,265.196 25.580,262.839 25.630 C 260.075 25.688,260.167 25.756,260.167 23.657 C 260.167 21.752,260.321 21.229,260.955 20.984 C 261.209 20.885,261.723 20.657,262.098 20.477 C 262.472 20.297,263.185 20.044,263.681 19.916 C 264.177 19.788,264.958 19.572,265.417 19.436 C 267.069 18.946,271.017 19.074,272.652 19.671 M360.464 19.484 C 360.988 19.658,361.830 19.884,362.335 19.987 C 362.954 20.113,363.428 20.338,363.793 20.679 L 364.333 21.184 364.333 24.165 C 364.333 27.682,364.553 27.383,361.900 27.471 C 359.215 27.561,359.167 27.533,359.167 25.878 C 359.167 23.339,357.565 22.403,355.528 23.751 C 353.103 25.356,353.770 31.827,356.465 32.852 C 357.137 33.107,360.633 33.054,362.078 32.766 C 363.865 32.411,363.899 32.447,363.972 34.815 L 364.028 36.619 363.423 37.118 C 363.055 37.421,362.444 37.700,361.867 37.828 C 361.344 37.944,360.701 38.149,360.438 38.284 C 359.133 38.953,354.332 38.708,352.500 37.879 C 350.693 37.061,348.704 34.947,348.254 33.366 C 348.131 32.936,347.904 32.246,347.750 31.833 C 347.130 30.183,347.497 26.675,348.526 24.417 C 349.021 23.329,351.068 20.833,351.464 20.833 C 351.551 20.833,351.806 20.688,352.032 20.510 C 353.552 19.315,358.239 18.744,360.464 19.484 M379.167 19.336 C 382.826 19.899,382.921 19.979,382.901 22.523 C 382.882 24.965,383.041 24.828,380.229 24.831 C 377.809 24.834,377.775 24.820,377.612 23.762 C 377.317 21.847,373.833 22.067,373.833 24.000 C 373.833 24.764,375.300 26.000,376.205 26.000 C 376.324 26.000,376.683 26.139,377.002 26.309 C 377.322 26.479,377.883 26.714,378.250 26.832 C 378.887 27.038,380.304 27.687,380.833 28.016 C 381.813 28.625,382.157 28.888,382.707 29.448 C 384.631 31.406,384.087 35.224,381.616 37.120 C 379.201 38.972,372.799 39.159,368.716 37.497 C 368.068 37.233,367.862 36.544,367.804 34.436 C 367.736 31.956,367.701 31.992,370.157 32.020 C 372.827 32.050,372.887 32.073,373.042 33.154 C 373.200 34.248,373.350 34.447,374.195 34.674 C 375.599 35.052,376.765 34.572,376.844 33.583 C 376.960 32.129,376.522 31.637,374.518 30.968 C 374.024 30.803,373.536 30.600,373.435 30.517 C 373.333 30.434,372.915 30.276,372.505 30.167 C 372.095 30.057,371.545 29.787,371.283 29.567 C 371.022 29.347,370.712 29.167,370.595 29.167 C 370.478 29.167,370.155 28.960,369.876 28.708 C 369.597 28.456,369.132 28.041,368.842 27.785 C 367.608 26.699,367.427 23.600,368.517 22.229 C 368.783 21.894,369.000 21.524,369.000 21.406 C 369.000 19.917,375.002 18.695,379.167 19.336 M342.671 19.761 C 342.767 20.014,342.833 23.062,342.833 27.240 C 342.833 34.902,342.790 34.550,343.770 34.812 C 344.560 35.023,344.867 35.640,344.933 37.144 L 344.992 38.486 344.454 38.583 C 344.159 38.636,341.629 38.658,338.833 38.632 L 333.750 38.583 333.701 37.251 C 333.631 35.378,333.686 35.242,334.647 34.923 C 336.046 34.458,335.991 34.687,336.008 29.327 C 336.026 23.942,336.075 24.132,334.594 23.910 C 333.740 23.782,333.667 23.590,333.667 21.489 C 333.667 19.919,333.453 20.061,336.178 19.821 C 337.409 19.712,338.567 19.563,338.750 19.489 C 339.672 19.117,342.501 19.313,342.671 19.761 M217.040 20.498 C 216.926 20.680,216.833 20.911,216.833 21.011 C 216.833 21.112,216.608 21.707,216.333 22.333 C 216.058 22.960,215.831 23.647,215.828 23.861 C 215.825 24.075,215.638 24.625,215.413 25.083 C 214.630 26.676,214.805 26.833,217.359 26.833 C 219.125 26.833,220.167 26.651,220.167 26.342 C 220.167 26.285,220.017 25.812,219.833 25.290 C 219.650 24.768,219.500 24.217,219.500 24.066 C 219.500 23.914,219.362 23.555,219.192 23.270 C 219.023 22.984,218.789 22.300,218.673 21.750 C 218.334 20.145,217.608 19.588,217.040 20.498 M217.957 21.803 C 218.071 21.876,218.210 22.306,218.266 22.759 C 218.321 23.212,218.515 23.795,218.697 24.053 C 219.238 24.824,219.309 26.257,218.812 26.390 C 217.669 26.696,215.750 26.450,215.922 26.020 C 215.981 25.871,216.111 25.262,216.211 24.667 C 216.325 23.981,216.500 23.506,216.686 23.372 C 216.851 23.254,217.030 22.833,217.092 22.414 C 217.205 21.663,217.456 21.485,217.957 21.803 M268.250 30.120 C 266.486 30.548,265.074 31.889,265.261 32.958 C 265.759 35.795,269.155 35.535,269.919 32.601 C 270.480 30.447,269.977 29.700,268.250 30.120 M269.298 31.874 C 269.363 33.554,268.834 34.165,267.313 34.166 C 265.548 34.167,265.681 31.649,267.470 31.191 C 267.926 31.074,268.439 30.873,268.608 30.744 C 269.124 30.354,269.248 30.557,269.298 31.874 " stroke="none" fill="#93c9e6" fill-rule="evenodd"></path><path id="path4" d="M116.333 10.979 C 115.719 11.044,114.962 11.254,114.586 11.464 C 114.220 11.667,113.762 11.833,113.567 11.833 C 113.371 11.833,113.027 11.979,112.801 12.156 C 112.575 12.334,112.186 12.531,111.936 12.593 C 111.685 12.656,111.364 12.886,111.221 13.104 C 111.078 13.322,110.871 13.500,110.760 13.500 C 110.312 13.500,108.280 15.840,107.773 16.941 C 107.640 17.230,107.404 17.537,107.248 17.624 C 107.064 17.727,106.935 18.071,106.879 18.600 C 106.822 19.146,106.683 19.505,106.458 19.684 C 106.182 19.904,106.096 20.250,105.981 21.614 C 105.904 22.528,105.726 23.549,105.587 23.883 C 105.235 24.724,105.244 26.965,105.601 27.475 C 105.766 27.710,105.916 28.421,105.991 29.323 C 106.074 30.335,106.217 30.964,106.452 31.353 C 106.640 31.663,106.841 32.190,106.901 32.525 C 106.960 32.859,107.146 33.309,107.315 33.525 C 107.483 33.740,107.676 34.094,107.744 34.310 C 107.968 35.025,110.783 37.958,111.460 38.181 C 111.798 38.292,112.173 38.483,112.295 38.604 C 112.416 38.725,112.813 38.905,113.177 39.003 C 113.541 39.101,114.118 39.346,114.461 39.549 C 115.392 40.099,123.630 40.099,124.858 39.548 C 125.283 39.357,125.883 39.148,126.191 39.082 C 126.498 39.017,126.900 38.832,127.083 38.672 C 127.267 38.511,127.660 38.298,127.957 38.199 C 128.255 38.099,128.780 37.745,129.124 37.410 L 129.750 36.802 129.750 34.137 C 129.750 30.908,129.112 30.000,127.647 31.144 C 127.429 31.314,127.063 31.512,126.833 31.582 C 126.604 31.652,126.117 31.881,125.750 32.091 C 125.383 32.301,124.633 32.525,124.083 32.589 C 123.533 32.652,122.821 32.826,122.500 32.976 C 121.814 33.295,119.996 33.342,119.644 33.050 C 119.511 32.940,119.031 32.769,118.577 32.669 C 118.122 32.570,117.545 32.340,117.294 32.158 C 117.043 31.976,116.650 31.755,116.419 31.668 C 116.189 31.580,116.000 31.406,116.000 31.280 C 116.000 31.154,115.850 30.916,115.667 30.750 C 115.483 30.584,115.333 30.359,115.333 30.249 C 115.333 30.139,115.128 29.682,114.876 29.233 C 114.284 28.175,114.065 21.643,114.587 20.624 C 114.739 20.327,114.966 19.802,115.091 19.459 C 115.757 17.628,117.491 16.597,119.746 16.691 L 121.161 16.750 121.705 17.406 C 122.385 18.225,122.456 18.516,122.480 20.585 C 122.507 22.834,122.523 22.839,128.708 22.679 C 129.786 22.651,129.833 22.445,129.833 17.844 C 129.833 13.177,129.803 13.010,128.895 12.682 C 128.540 12.553,128.175 12.348,128.083 12.225 C 127.992 12.102,127.467 11.921,126.917 11.823 C 126.367 11.725,125.589 11.488,125.189 11.298 C 124.399 10.922,118.769 10.719,116.333 10.979 M122.280 11.510 C 122.997 11.608,123.953 11.795,124.405 11.927 C 124.857 12.059,125.404 12.167,125.619 12.167 C 126.224 12.167,128.509 13.209,128.725 13.583 C 129.013 14.084,128.991 21.742,128.700 22.033 C 128.551 22.183,127.799 22.267,126.255 22.304 C 123.661 22.368,123.333 22.223,123.333 21.018 C 123.333 20.120,122.857 17.697,122.573 17.147 C 121.690 15.439,118.048 15.302,115.956 16.898 C 113.561 18.724,112.499 27.067,114.310 29.833 C 114.459 30.063,114.667 30.438,114.772 30.667 C 116.279 33.978,122.193 34.804,126.917 32.364 C 128.728 31.428,128.926 31.644,128.889 34.516 L 128.862 36.646 128.306 37.151 C 128.000 37.430,127.487 37.743,127.167 37.849 C 126.846 37.954,126.358 38.174,126.083 38.338 C 124.527 39.263,116.683 39.930,115.800 39.212 C 115.681 39.115,115.099 38.913,114.507 38.763 C 113.915 38.612,113.309 38.379,113.161 38.245 C 113.012 38.110,112.818 38.000,112.729 38.000 C 111.912 38.000,108.477 34.631,108.174 33.533 C 108.087 33.218,107.902 32.835,107.763 32.681 C 107.624 32.528,107.388 31.918,107.237 31.326 C 107.087 30.734,106.898 30.168,106.817 30.068 C 106.736 29.968,106.550 28.962,106.403 27.833 C 105.545 21.216,108.041 15.600,113.059 12.864 C 113.616 12.560,114.412 12.239,114.828 12.152 C 115.243 12.064,116.108 11.849,116.750 11.673 C 118.091 11.305,120.290 11.240,122.280 11.510 M21.348 11.782 C 16.854 11.820,14.709 11.896,14.556 12.022 C 14.282 12.250,14.240 15.848,14.506 16.344 C 14.631 16.578,14.856 16.667,15.326 16.667 C 15.829 16.667,16.090 16.783,16.493 17.186 L 17.012 17.705 16.965 25.506 L 16.917 33.307 16.513 33.737 C 16.217 34.051,15.940 34.167,15.483 34.167 C 14.447 34.167,14.333 34.413,14.333 36.667 C 14.333 39.483,13.247 39.195,23.646 39.134 L 32.417 39.083 33.249 38.625 C 33.706 38.373,34.196 38.167,34.338 38.167 C 34.625 38.167,36.052 37.276,36.646 36.725 C 36.859 36.528,37.105 36.303,37.194 36.225 C 37.832 35.661,38.917 34.317,39.122 33.836 C 39.259 33.517,39.512 33.075,39.685 32.855 C 39.858 32.635,40.000 32.305,40.000 32.122 C 40.000 31.939,40.160 31.530,40.356 31.213 C 40.604 30.813,40.759 30.173,40.865 29.114 C 40.949 28.276,41.116 27.476,41.237 27.337 C 41.643 26.867,41.705 24.603,41.341 23.524 C 41.164 22.997,40.942 21.956,40.849 21.210 C 40.755 20.465,40.526 19.570,40.339 19.221 C 40.153 18.873,40.000 18.470,40.000 18.326 C 40.000 18.181,39.854 17.906,39.676 17.715 C 39.498 17.524,39.239 17.096,39.100 16.765 C 38.962 16.433,38.732 16.118,38.591 16.063 C 38.449 16.009,38.333 15.875,38.333 15.766 C 38.333 15.520,37.136 14.333,36.887 14.333 C 36.787 14.333,36.582 14.146,36.432 13.917 C 36.282 13.688,36.063 13.500,35.945 13.500 C 35.828 13.500,35.477 13.313,35.167 13.083 C 34.856 12.854,34.476 12.667,34.321 12.667 C 34.167 12.667,33.637 12.485,33.145 12.263 C 32.032 11.760,30.656 11.704,21.348 11.782 M32.000 12.727 C 33.770 13.230,35.485 14.003,36.273 14.652 C 37.527 15.686,39.667 18.858,39.667 19.684 C 39.667 19.819,39.806 20.203,39.976 20.537 C 41.135 22.809,40.587 29.991,39.068 32.443 C 36.737 36.207,35.422 37.265,31.993 38.136 L 29.902 38.667 22.826 38.650 C 14.057 38.629,14.917 38.855,14.917 36.577 L 14.917 34.751 15.909 34.627 C 17.538 34.424,17.417 35.149,17.413 25.606 C 17.408 15.894,17.503 16.472,15.884 16.229 L 14.917 16.083 14.869 14.336 C 14.803 11.921,13.986 12.136,22.917 12.212 L 30.417 12.276 32.000 12.727 M70.833 13.000 C 70.621 13.213,70.499 13.559,70.496 13.958 C 70.494 14.321,70.356 14.758,70.167 15.000 C 69.987 15.229,69.839 15.537,69.837 15.683 C 69.835 15.830,69.608 16.261,69.333 16.640 C 69.058 17.020,68.833 17.400,68.833 17.485 C 68.833 17.635,68.494 17.839,66.721 18.750 C 65.548 19.354,65.333 19.847,65.333 21.946 C 65.333 23.873,65.513 24.267,66.463 24.420 C 67.952 24.659,67.777 23.953,67.916 30.258 C 68.038 35.827,68.041 35.856,68.436 36.326 C 68.655 36.586,68.834 36.937,68.836 37.107 C 68.855 39.455,77.728 40.051,80.208 37.871 C 80.622 37.508,80.648 33.163,80.238 32.824 C 80.089 32.700,79.248 32.552,78.280 32.479 C 77.347 32.409,76.537 32.348,76.481 32.343 C 76.287 32.325,76.145 28.529,76.263 26.517 L 76.381 24.500 77.649 24.499 C 80.344 24.497,80.500 24.325,80.500 21.350 C 80.500 18.734,80.561 18.802,78.083 18.671 L 76.417 18.583 76.286 15.917 C 76.118 12.511,76.260 12.667,73.315 12.667 C 71.389 12.667,71.132 12.701,70.833 13.000 M75.071 13.429 C 75.337 13.694,75.397 14.329,75.410 17.037 C 75.419 18.792,75.585 18.948,77.610 19.099 C 79.648 19.250,79.573 19.172,79.639 21.203 C 79.714 23.508,79.501 23.825,77.863 23.850 C 75.479 23.886,75.334 24.122,75.334 27.974 C 75.333 32.383,75.573 32.869,77.812 33.000 C 79.573 33.103,79.662 33.218,79.662 35.417 C 79.662 37.554,79.607 37.624,77.500 38.201 C 74.308 39.076,71.196 38.676,69.793 37.211 C 68.687 36.057,68.491 34.962,68.401 29.437 C 68.310 23.848,68.306 23.833,67.196 23.833 C 66.186 23.833,66.000 23.506,66.000 21.730 C 66.000 20.289,66.027 20.165,66.375 19.987 C 68.939 18.679,70.604 16.753,71.006 14.634 C 71.261 13.289,71.450 13.167,73.264 13.167 C 74.447 13.167,74.871 13.228,75.071 13.429 M24.445 17.412 C 24.064 17.793,24.013 33.165,24.392 33.480 C 25.030 34.009,28.222 33.830,29.692 33.183 C 34.471 31.077,34.333 19.967,29.500 17.707 C 28.292 17.142,24.913 16.945,24.445 17.412 M27.557 17.915 C 27.766 18.051,28.344 18.240,28.843 18.333 C 29.360 18.430,29.837 18.628,29.953 18.793 C 30.181 19.121,30.253 19.207,30.996 20.053 C 31.293 20.392,31.628 21.037,31.753 21.513 C 31.877 21.983,32.096 22.496,32.239 22.655 C 32.671 23.132,32.618 28.047,32.175 28.610 C 31.996 28.838,31.798 29.372,31.734 29.797 C 31.580 30.824,30.079 32.390,29.094 32.549 C 28.748 32.605,28.170 32.805,27.811 32.992 C 26.991 33.420,25.642 33.455,25.312 33.058 C 25.062 32.757,24.960 18.551,25.203 17.958 C 25.359 17.579,26.998 17.549,27.557 17.915 M160.250 18.295 C 159.877 18.508,159.197 18.603,157.572 18.668 C 154.505 18.792,154.500 18.795,154.500 21.145 C 154.500 23.145,154.616 23.398,155.624 23.600 C 156.751 23.825,156.794 23.983,156.914 28.378 C 157.049 33.262,156.965 34.167,156.381 34.167 C 154.988 34.167,154.500 34.927,154.500 37.100 L 154.500 38.684 155.078 38.925 C 156.020 39.319,166.197 39.276,167.000 38.875 L 167.583 38.583 167.626 37.207 C 167.692 35.119,167.086 34.167,165.694 34.167 C 164.714 34.167,164.067 31.155,164.759 29.817 C 164.901 29.542,165.102 28.664,165.206 27.867 C 165.351 26.756,165.480 26.336,165.757 26.072 C 165.956 25.882,166.167 25.620,166.226 25.488 C 166.309 25.304,166.356 25.298,166.432 25.462 C 166.675 25.986,167.472 26.167,169.543 26.167 C 172.440 26.167,172.251 26.424,172.246 22.495 C 172.241 18.457,172.399 18.667,169.355 18.667 L 167.246 18.667 165.915 19.325 L 164.583 19.983 164.453 19.346 C 164.257 18.393,163.955 18.224,162.250 18.110 C 161.012 18.028,160.663 18.060,160.250 18.295 M49.699 18.831 C 49.212 18.905,48.687 19.077,48.532 19.212 C 48.377 19.347,47.965 19.509,47.616 19.572 C 47.267 19.634,46.837 19.829,46.662 20.005 C 46.486 20.181,46.160 20.371,45.937 20.427 C 44.970 20.669,44.755 21.181,44.692 23.390 C 44.614 26.154,44.506 26.065,48.003 26.139 C 50.950 26.202,51.333 26.072,51.333 25.011 C 51.333 24.673,51.433 24.491,51.658 24.419 C 51.837 24.363,52.029 24.170,52.086 23.991 C 52.261 23.439,53.673 23.532,54.105 24.125 C 54.468 24.623,54.939 26.116,54.782 26.273 C 54.729 26.327,54.175 26.409,53.551 26.456 C 52.718 26.518,52.316 26.633,52.036 26.888 C 51.757 27.142,51.323 27.267,50.411 27.354 C 49.612 27.430,48.965 27.597,48.605 27.820 C 48.297 28.011,47.857 28.167,47.629 28.167 C 47.400 28.167,46.948 28.347,46.624 28.567 C 46.300 28.787,45.885 29.014,45.701 29.072 C 44.985 29.300,43.888 30.719,43.758 31.586 C 43.691 32.037,43.530 32.555,43.401 32.739 C 43.095 33.177,43.101 34.413,43.412 34.974 C 43.547 35.218,43.734 35.717,43.828 36.083 C 44.035 36.893,44.986 37.948,46.096 38.601 L 46.917 39.083 49.917 39.080 C 52.697 39.077,52.974 39.049,53.695 38.697 C 54.984 38.067,55.556 38.047,56.375 38.603 L 57.083 39.083 60.000 39.083 C 62.033 39.083,63.043 39.019,63.333 38.871 C 63.563 38.754,64.050 38.491,64.417 38.287 L 65.083 37.914 65.130 35.956 C 65.185 33.670,65.090 33.406,64.158 33.249 C 63.205 33.088,63.139 32.821,63.039 28.750 C 62.981 26.378,62.887 25.143,62.746 24.917 C 62.631 24.734,62.500 24.079,62.455 23.463 C 62.365 22.238,61.509 20.631,60.831 20.416 C 60.649 20.358,60.500 20.248,60.500 20.171 C 60.500 20.094,59.994 19.744,59.375 19.393 L 58.250 18.755 54.417 18.725 C 52.308 18.709,50.185 18.756,49.699 18.831 M88.290 18.901 C 87.945 19.026,87.570 19.202,87.457 19.293 C 87.343 19.383,86.976 19.506,86.642 19.566 C 86.307 19.626,85.857 19.812,85.642 19.980 C 85.426 20.147,84.979 20.411,84.648 20.567 C 83.679 21.022,83.334 22.313,83.577 24.579 C 83.736 26.068,83.960 26.167,87.161 26.167 C 89.778 26.167,90.167 26.016,90.167 25.000 C 90.167 24.725,90.245 24.500,90.341 24.500 C 90.437 24.500,90.694 24.308,90.912 24.073 C 91.566 23.366,92.464 23.541,92.977 24.474 C 93.387 25.219,93.714 26.332,93.524 26.335 C 92.858 26.342,91.188 26.747,90.956 26.956 C 90.754 27.140,90.188 27.260,89.187 27.332 C 88.032 27.415,87.615 27.517,87.252 27.802 C 86.997 28.003,86.579 28.167,86.324 28.167 C 86.068 28.167,85.636 28.354,85.364 28.583 C 85.091 28.813,84.786 29.000,84.684 29.000 C 84.173 29.000,82.667 30.792,82.667 31.400 C 82.667 31.736,82.554 32.280,82.417 32.609 C 82.279 32.938,82.167 33.451,82.167 33.749 C 82.167 34.048,82.279 34.610,82.417 35.000 C 82.554 35.390,82.667 35.918,82.667 36.174 C 82.667 36.782,83.601 37.751,84.917 38.508 L 85.917 39.083 88.481 39.140 C 91.140 39.200,92.018 39.074,93.164 38.472 C 93.967 38.050,94.559 38.089,95.470 38.625 C 96.582 39.278,101.627 39.338,102.479 38.708 C 102.758 38.502,103.065 38.333,103.160 38.333 C 103.784 38.333,104.000 37.688,104.000 35.822 C 104.000 33.752,103.888 33.408,103.162 33.249 C 102.190 33.036,102.026 32.231,101.938 27.250 C 101.911 25.745,101.820 24.777,101.683 24.524 C 101.566 24.309,101.407 23.690,101.331 23.149 C 101.120 21.658,99.900 20.245,98.003 19.294 L 96.917 18.750 92.917 18.711 C 89.871 18.682,88.767 18.727,88.290 18.901 M138.708 18.778 C 138.502 18.821,138.258 18.995,138.168 19.165 C 138.077 19.334,137.786 19.520,137.522 19.579 C 137.257 19.637,136.792 19.868,136.488 20.092 C 136.184 20.316,135.842 20.500,135.729 20.500 C 135.615 20.500,135.478 20.639,135.425 20.808 C 135.371 20.977,135.141 21.201,134.913 21.304 C 134.686 21.408,134.500 21.604,134.500 21.741 C 134.500 21.877,134.364 22.061,134.198 22.150 C 133.773 22.377,132.908 24.104,132.769 25.000 C 132.705 25.412,132.497 26.072,132.308 26.466 C 131.848 27.420,131.895 31.643,132.373 32.373 C 132.530 32.613,132.707 33.113,132.767 33.484 C 132.826 33.854,133.053 34.399,133.271 34.695 C 133.488 34.990,133.667 35.338,133.667 35.467 C 133.667 35.968,135.696 37.665,137.147 38.378 L 138.583 39.083 142.612 39.083 C 146.514 39.083,146.652 39.072,147.028 38.722 C 147.242 38.523,147.700 38.308,148.046 38.244 C 148.411 38.177,148.748 37.992,148.848 37.806 C 148.943 37.629,149.201 37.415,149.421 37.332 C 149.642 37.248,150.055 36.858,150.340 36.465 C 150.624 36.072,150.964 35.690,151.095 35.617 C 151.226 35.543,151.333 35.392,151.333 35.280 C 151.333 35.169,151.519 34.804,151.746 34.471 C 151.972 34.137,152.208 33.538,152.269 33.140 C 152.330 32.742,152.538 32.117,152.732 31.750 C 153.262 30.744,153.265 25.774,152.735 25.056 C 152.544 24.796,152.345 24.269,152.294 23.884 C 152.120 22.579,150.187 20.422,148.500 19.650 C 148.271 19.545,147.783 19.300,147.417 19.105 C 146.768 18.759,140.005 18.506,138.708 18.778 M178.667 18.982 C 178.346 19.166,177.836 19.434,177.534 19.580 C 177.233 19.725,176.943 19.954,176.892 20.089 C 176.840 20.223,176.713 20.333,176.609 20.333 C 176.316 20.333,174.335 22.308,174.334 22.602 C 174.334 22.704,174.108 23.071,173.833 23.417 C 173.558 23.763,173.333 24.213,173.333 24.417 C 173.333 24.621,173.169 24.998,172.968 25.253 C 172.620 25.696,172.602 25.878,172.593 29.100 C 172.583 32.724,172.553 32.563,173.563 34.429 C 174.503 36.168,176.154 37.894,177.127 38.156 C 177.494 38.255,177.880 38.438,177.984 38.564 C 178.613 39.322,186.681 39.418,187.929 38.682 C 188.243 38.496,188.886 38.294,189.358 38.231 C 189.952 38.152,190.376 37.975,190.733 37.655 L 191.250 37.193 191.250 34.705 C 191.250 31.482,190.804 31.000,188.807 32.061 C 186.767 33.146,181.667 32.658,181.667 31.377 C 181.667 31.119,183.636 30.981,185.833 31.085 C 191.782 31.366,192.150 31.157,191.963 27.592 C 191.912 26.624,191.783 25.871,191.615 25.567 C 191.467 25.301,191.264 24.658,191.164 24.138 C 191.064 23.618,190.881 23.108,190.757 23.006 C 190.634 22.904,190.483 22.616,190.423 22.368 C 190.321 21.947,190.114 21.680,189.134 20.700 C 188.263 19.832,188.061 19.684,187.583 19.567 C 187.308 19.500,186.871 19.289,186.611 19.098 C 185.889 18.566,179.557 18.474,178.667 18.982 M163.738 19.262 C 163.882 19.406,164.000 19.713,164.000 19.945 C 164.000 20.177,164.119 20.618,164.265 20.925 L 164.530 21.483 165.223 20.811 C 166.632 19.446,170.591 18.533,171.434 19.378 C 171.785 19.730,171.699 24.741,171.333 25.335 C 171.024 25.835,168.163 25.782,167.548 25.265 C 165.448 23.498,163.764 26.897,164.045 32.333 C 164.149 34.327,164.194 34.427,165.147 34.743 C 166.604 35.227,166.667 35.320,166.667 36.992 C 166.667 38.181,166.616 38.484,166.403 38.566 C 165.970 38.732,155.939 38.676,155.670 38.506 C 154.790 37.949,155.498 34.833,156.505 34.833 C 157.378 34.833,157.527 33.964,157.527 28.886 C 157.527 23.767,157.404 23.170,156.349 23.164 C 155.569 23.160,155.429 22.940,155.362 21.616 C 155.251 19.424,155.313 19.376,158.583 19.110 C 160.802 18.930,163.485 19.009,163.738 19.262 M185.990 19.704 C 187.849 20.308,189.654 21.883,190.012 23.212 C 190.112 23.583,190.302 24.052,190.435 24.254 C 190.785 24.789,191.207 27.417,191.133 28.608 C 191.031 30.256,191.333 30.167,185.845 30.167 C 180.410 30.167,180.378 30.173,180.551 31.267 C 180.913 33.561,184.608 34.086,189.803 32.580 C 190.683 32.325,190.833 32.567,190.833 34.238 C 190.833 36.998,190.536 37.351,187.648 38.012 C 181.446 39.433,176.408 38.190,174.658 34.807 C 174.484 34.472,174.275 34.172,174.193 34.140 C 173.451 33.858,172.888 28.686,173.405 26.905 C 173.537 26.453,173.695 25.729,173.757 25.297 C 173.819 24.865,173.984 24.416,174.124 24.299 C 174.264 24.183,174.511 23.787,174.672 23.419 C 176.175 19.993,181.501 18.244,185.990 19.704 M57.711 19.586 C 58.374 19.816,59.104 20.136,59.333 20.296 C 59.563 20.457,59.949 20.689,60.192 20.813 C 60.435 20.937,60.765 21.330,60.926 21.687 C 61.087 22.043,61.327 22.425,61.460 22.536 C 61.956 22.947,62.045 23.697,62.148 28.288 C 62.268 33.682,62.239 33.585,63.765 33.804 L 64.583 33.922 64.583 35.718 C 64.583 37.705,64.573 37.726,63.460 37.904 C 63.096 37.962,62.562 38.133,62.274 38.284 C 61.881 38.489,61.268 38.561,59.828 38.570 L 57.906 38.583 56.798 37.863 C 55.804 37.217,55.650 37.164,55.303 37.352 C 54.915 37.562,52.663 38.230,51.417 38.505 C 47.925 39.275,44.596 37.581,44.150 34.807 C 43.955 33.599,44.222 31.678,44.653 31.185 C 44.798 31.019,45.149 30.620,45.433 30.298 C 46.284 29.333,49.613 27.981,51.953 27.650 C 52.539 27.567,53.236 27.386,53.501 27.249 C 53.766 27.112,54.142 27.000,54.336 27.000 C 55.937 27.000,55.618 23.756,53.960 23.178 C 52.519 22.675,51.194 23.327,50.818 24.724 C 50.568 25.655,50.550 25.662,48.167 25.662 C 45.647 25.662,45.655 25.666,45.543 24.271 C 45.397 22.452,45.750 21.183,46.485 20.884 C 46.814 20.750,47.454 20.459,47.908 20.237 C 48.361 20.015,48.941 19.833,49.196 19.833 C 49.451 19.833,49.943 19.725,50.288 19.593 C 51.877 18.986,55.976 18.982,57.711 19.586 M97.632 20.001 C 99.241 20.846,99.625 21.194,100.360 22.474 L 100.901 23.417 101.018 27.861 C 101.169 33.663,101.138 33.572,103.083 33.870 C 103.388 33.916,103.421 34.068,103.464 35.654 C 103.520 37.664,103.544 37.624,102.046 38.035 C 98.601 38.980,96.524 38.796,94.995 37.412 C 94.632 37.083,94.270 37.103,93.533 37.491 C 88.470 40.155,82.990 38.251,83.004 33.834 C 83.012 31.180,84.647 29.120,87.167 28.588 C 87.487 28.520,87.975 28.370,88.250 28.253 C 88.853 27.998,90.355 27.670,90.971 27.658 C 91.216 27.654,92.017 27.447,92.750 27.200 L 94.083 26.750 94.133 25.694 C 94.273 22.739,90.357 21.939,89.643 24.776 C 89.421 25.656,88.998 25.757,85.798 25.687 C 84.576 25.661,84.450 25.448,84.487 23.466 C 84.527 21.242,85.197 20.580,88.250 19.750 C 90.132 19.238,90.587 19.193,93.417 19.234 L 96.250 19.275 97.632 20.001 M146.264 19.649 C 151.359 21.304,153.216 24.975,152.089 31.167 C 151.208 36.011,147.954 38.546,142.583 38.571 C 138.996 38.588,137.149 37.970,135.199 36.099 C 131.450 32.502,132.370 22.898,136.667 20.772 C 136.987 20.613,137.530 20.331,137.872 20.146 C 139.929 19.031,143.676 18.809,146.264 19.649 M181.162 23.671 C 180.201 24.610,179.820 26.303,180.489 26.661 C 181.124 27.000,184.630 26.879,184.827 26.511 C 185.954 24.407,182.861 22.011,181.162 23.671 M141.768 23.834 C 140.723 24.242,140.063 25.016,139.852 26.083 C 139.467 28.028,139.303 29.633,139.460 29.938 C 139.548 30.110,139.668 30.612,139.726 31.055 C 140.087 33.826,143.059 35.129,144.685 33.230 C 145.776 31.954,145.793 25.924,144.708 24.690 C 143.757 23.608,142.949 23.373,141.768 23.834 M183.446 24.292 C 184.433 25.388,184.500 25.492,184.500 25.917 L 184.500 26.333 182.745 26.333 C 180.490 26.333,180.259 25.938,181.600 24.375 C 182.350 23.502,182.719 23.485,183.446 24.292 M144.000 24.768 C 144.000 24.915,144.188 25.258,144.417 25.530 C 144.927 26.136,145.084 31.748,144.596 31.935 C 144.466 31.985,144.242 32.320,144.098 32.680 C 143.838 33.328,143.829 33.333,142.929 33.333 C 141.869 33.333,141.167 33.108,141.167 32.767 C 141.167 32.634,140.960 32.280,140.708 31.981 L 140.250 31.435 140.265 28.798 C 140.279 26.364,140.307 26.132,140.629 25.789 C 140.821 25.584,141.056 25.210,141.151 24.958 C 141.365 24.394,144.000 24.218,144.000 24.768 M54.141 29.990 C 51.724 30.461,50.487 31.722,50.746 33.450 C 51.114 35.905,55.262 34.913,55.363 32.345 C 55.423 30.837,55.216 29.797,54.869 29.852 C 54.804 29.863,54.476 29.925,54.141 29.990 M93.027 30.018 C 91.905 30.230,90.065 31.141,89.863 31.584 C 88.964 33.559,90.129 35.231,92.100 34.794 C 94.480 34.266,95.391 29.571,93.027 30.018 M54.929 30.905 C 55.049 31.384,54.963 31.686,54.301 33.100 L 53.802 34.167 53.052 34.167 C 51.462 34.167,50.807 32.967,51.787 31.850 C 52.037 31.566,52.379 31.333,52.548 31.333 C 52.938 31.333,53.544 31.019,53.717 30.726 C 53.957 30.319,54.813 30.446,54.929 30.905 M93.700 31.125 C 93.732 31.285,93.589 31.829,93.383 32.333 C 93.177 32.837,93.006 33.366,93.004 33.508 C 92.993 34.252,91.252 34.462,90.552 33.804 C 89.984 33.270,90.018 32.307,90.619 31.894 C 91.792 31.089,93.603 30.637,93.700 31.125 " stroke="none" fill="#f99fa4" fill-rule="evenodd"></path></g></svg>