<svg id="svg" version="1.1" xmlns="http://www.w3.org/2000/svg" xmlns:xlink="http://www.w3.org/1999/xlink" width="400" height="57.36196319018405" viewBox="0, 0, 400,57.36196319018405"><g id="svgg"><path id="path0" d="M44.541 28.542 L 44.583 43.750 45.083 43.750 L 45.583 43.750 45.626 28.542 L 45.668 13.333 45.083 13.333 L 44.498 13.333 44.541 28.542 M346.833 13.719 C 343.984 15.065,345.023 19.000,348.228 19.000 C 351.420 19.000,352.548 14.934,349.688 13.735 C 349.016 13.454,347.415 13.445,346.833 13.719 M297.949 15.107 C 297.753 15.303,297.813 34.049,298.013 35.033 C 298.697 38.404,302.196 40.293,305.914 39.299 L 306.667 39.098 306.657 37.924 C 306.644 36.302,306.458 35.399,306.156 35.485 C 305.175 35.765,304.066 35.594,303.583 35.090 C 302.896 34.371,302.920 34.703,302.833 24.683 L 302.750 15.083 300.407 15.037 C 299.119 15.012,298.012 15.043,297.949 15.107 M144.750 16.209 C 138.634 17.743,135.333 21.818,135.333 27.833 C 135.333 33.649,138.535 37.721,144.333 39.280 C 145.433 39.576,150.123 39.624,150.644 39.345 C 150.828 39.247,151.158 39.167,151.378 39.167 C 151.598 39.167,151.828 39.117,151.888 39.056 C 151.949 38.995,152.366 38.816,152.814 38.659 C 153.836 38.299,155.548 37.165,156.401 36.284 L 157.052 35.611 156.568 35.199 C 156.301 34.973,155.570 34.304,154.942 33.712 L 153.800 32.636 153.358 33.036 C 150.077 36.005,145.467 36.056,142.552 33.155 C 139.741 30.358,139.749 25.252,142.568 22.410 C 145.197 19.760,150.108 19.628,152.833 22.135 C 153.772 22.998,153.705 23.004,154.818 21.958 C 155.331 21.477,156.036 20.838,156.385 20.538 L 157.020 19.993 156.635 19.525 C 154.427 16.840,148.655 15.230,144.750 16.209 M233.417 16.247 C 229.830 17.151,227.358 19.431,226.453 22.667 C 225.877 24.724,225.833 25.405,225.833 32.263 L 225.833 39.167 228.413 39.167 L 230.992 39.167 231.038 36.458 L 231.083 33.750 236.355 33.706 L 241.627 33.662 241.728 34.039 C 241.783 34.247,241.830 35.485,241.831 36.792 L 241.833 39.167 244.333 39.167 L 246.833 39.167 246.832 32.042 C 246.831 22.582,246.459 21.002,243.619 18.384 C 241.468 16.402,236.735 15.410,233.417 16.247 M50.667 27.750 L 50.667 39.167 57.012 39.167 C 63.936 39.167,64.935 39.057,67.143 38.059 C 76.226 33.950,75.895 20.977,66.613 17.311 C 64.448 16.457,63.202 16.333,56.720 16.333 L 50.667 16.333 50.667 27.750 M100.382 26.375 C 100.438 35.187,100.456 35.464,101.037 36.583 C 102.438 39.279,107.010 40.382,110.217 38.797 C 110.937 38.442,110.942 38.571,110.128 36.391 L 109.621 35.031 108.880 35.349 C 107.255 36.045,105.910 35.535,105.383 34.022 C 105.163 33.393,105.065 26.625,105.268 26.097 C 105.352 25.878,105.689 25.833,107.254 25.833 C 109.827 25.833,109.667 25.962,109.667 23.899 L 109.667 22.167 107.589 22.167 C 105.073 22.167,105.167 22.263,105.167 19.678 L 105.167 17.833 102.747 17.833 L 100.327 17.833 100.382 26.375 M332.034 26.292 C 332.093 35.955,332.125 36.196,333.534 37.662 C 335.144 39.338,338.427 39.992,341.014 39.153 C 342.679 38.613,342.772 38.268,341.819 36.167 C 341.270 34.957,341.344 35.020,340.795 35.294 C 339.402 35.989,337.810 35.579,337.276 34.387 C 337.028 33.833,336.997 33.239,337.037 29.833 L 337.083 25.917 339.208 25.870 L 341.333 25.823 341.333 24.000 L 341.333 22.177 339.208 22.130 L 337.083 22.083 337.037 19.958 L 336.990 17.833 334.487 17.833 L 331.983 17.833 332.034 26.292 M238.875 20.831 C 240.963 21.812,241.977 24.384,241.803 28.250 L 241.750 29.417 236.358 29.461 L 230.966 29.505 231.030 26.794 C 231.115 23.209,231.664 21.954,233.583 20.958 C 234.997 20.224,237.458 20.165,238.875 20.831 M62.930 20.759 C 70.386 22.488,70.547 32.493,63.155 34.813 C 62.798 34.925,61.215 35.000,59.197 35.000 L 55.833 35.000 55.833 27.750 L 55.833 20.500 58.823 20.500 C 60.937 20.500,62.140 20.576,62.930 20.759 M82.583 21.699 C 73.977 24.508,74.190 37.003,82.883 39.250 C 85.306 39.877,88.185 39.352,89.720 38.004 C 90.579 37.250,90.833 37.325,90.833 38.333 L 90.833 39.167 93.083 39.167 L 95.333 39.167 95.333 30.500 L 95.333 21.833 92.917 21.833 L 90.500 21.833 90.500 22.583 C 90.500 23.428,90.254 23.557,89.734 22.982 C 88.629 21.760,84.606 21.038,82.583 21.699 M118.417 21.732 C 114.463 22.849,112.291 25.923,112.279 30.417 C 112.273 32.732,112.368 33.196,113.217 34.983 C 115.312 39.395,121.880 40.971,125.691 37.977 C 126.485 37.353,126.500 37.359,126.500 38.333 L 126.500 39.167 128.917 39.167 L 131.333 39.167 131.333 30.500 L 131.333 21.833 128.833 21.833 L 126.333 21.833 126.333 22.583 C 126.333 23.471,126.247 23.493,125.407 22.826 C 124.755 22.307,124.210 22.033,123.155 21.692 C 122.414 21.453,119.313 21.479,118.417 21.732 M165.500 21.738 C 160.153 23.151,157.275 28.447,159.099 33.516 C 162.122 41.912,175.308 41.385,177.600 32.777 C 179.427 25.915,172.749 19.822,165.500 21.738 M189.917 21.709 C 188.727 22.122,187.705 22.675,187.106 23.232 C 186.312 23.969,186.167 23.893,186.167 22.740 L 186.167 21.833 183.833 21.833 L 181.500 21.833 181.500 30.500 L 181.500 39.167 183.991 39.167 L 186.482 39.167 186.533 34.208 C 186.580 29.585,186.607 29.199,186.933 28.500 C 187.699 26.855,189.117 26.000,191.082 26.000 L 192.333 26.000 192.333 23.750 L 192.333 21.500 191.375 21.518 C 190.848 21.527,190.192 21.614,189.917 21.709 M200.814 21.752 C 196.268 22.998,193.067 28.176,194.314 32.267 C 194.395 32.533,194.562 33.087,194.685 33.500 C 196.210 38.606,203.499 41.116,209.056 38.450 C 211.342 37.354,211.589 36.918,210.558 35.803 C 208.745 33.842,208.868 33.934,208.454 34.233 C 205.796 36.149,202.011 36.012,200.233 33.935 C 199.376 32.934,199.450 32.745,200.792 32.505 C 202.002 32.288,205.090 31.702,206.083 31.501 C 207.185 31.278,211.078 30.528,211.917 30.377 C 212.737 30.230,212.824 29.479,212.254 27.488 C 210.980 23.043,205.722 20.407,200.814 21.752 M259.821 21.891 C 258.757 22.303,257.489 23.028,257.176 23.405 C 256.841 23.809,256.667 23.552,256.667 22.657 L 256.667 21.833 254.333 21.833 L 252.000 21.833 252.000 30.500 L 252.000 39.167 254.500 39.167 L 257.000 39.167 257.003 34.208 C 257.005 29.216,257.047 28.790,257.650 27.667 C 259.061 25.040,263.409 25.018,264.621 27.632 C 264.870 28.168,264.915 28.977,264.964 33.708 L 265.021 39.167 267.510 39.167 L 270.000 39.167 269.991 34.042 C 269.978 26.370,269.763 25.226,268.015 23.500 C 266.058 21.568,262.478 20.865,259.821 21.891 M279.980 21.742 C 275.244 23.048,272.329 28.971,274.153 33.583 C 275.706 37.511,278.101 39.246,282.250 39.452 C 284.263 39.551,286.429 38.864,287.445 37.804 C 287.983 37.242,288.160 37.403,288.164 38.458 L 288.167 39.167 290.500 39.167 L 292.833 39.167 292.833 30.500 L 292.833 21.833 290.333 21.833 L 287.833 21.833 287.833 22.583 C 287.833 23.391,287.703 23.500,287.287 23.041 C 287.037 22.764,285.800 22.096,284.784 21.687 C 284.164 21.438,280.949 21.475,279.980 21.742 M361.339 21.759 C 354.632 23.390,352.133 31.532,356.806 36.528 C 360.742 40.735,368.730 40.430,371.601 35.962 C 372.022 35.306,372.100 35.000,371.847 35.000 C 371.763 35.000,370.966 34.587,370.076 34.083 C 368.142 32.988,368.371 33.007,367.642 33.878 C 365.508 36.431,361.268 35.789,359.892 32.704 C 357.542 27.433,364.081 22.819,367.710 27.188 L 368.264 27.854 369.257 27.293 C 369.803 26.985,370.641 26.549,371.118 26.325 C 372.158 25.836,372.152 25.869,371.402 24.739 C 369.645 22.092,365.281 20.800,361.339 21.759 M379.083 21.709 C 378.441 21.870,377.847 22.098,376.722 22.616 C 373.296 24.191,373.060 29.353,376.333 31.118 C 377.312 31.645,380.778 32.500,381.938 32.500 C 383.252 32.500,384.671 33.347,384.661 34.125 C 384.637 36.133,379.767 36.382,376.001 34.568 C 375.126 34.146,375.250 34.036,374.260 36.115 C 373.488 37.736,373.509 37.790,375.137 38.391 C 378.754 39.727,382.063 39.871,385.518 38.843 C 389.105 37.776,390.654 33.499,388.369 30.969 C 387.308 29.794,386.336 29.440,382.043 28.666 C 379.273 28.166,378.833 27.920,378.833 26.871 C 378.833 24.998,383.225 24.505,386.406 26.021 C 387.246 26.421,387.211 26.428,387.486 25.792 C 387.614 25.494,387.932 24.793,388.193 24.234 C 388.923 22.668,388.745 22.521,385.123 21.684 C 384.157 21.460,380.006 21.478,379.083 21.709 M309.373 27.292 C 309.447 33.323,309.546 33.954,310.678 35.600 C 312.718 38.565,318.041 39.312,321.192 37.074 C 322.092 36.436,322.167 36.466,322.167 37.467 C 322.167 41.243,317.918 43.165,313.583 41.351 C 312.709 40.985,312.214 40.737,311.808 40.464 C 311.187 40.047,311.131 40.070,310.648 40.958 C 310.412 41.394,310.013 42.112,309.763 42.555 C 309.135 43.665,309.550 44.146,311.815 44.938 C 317.895 47.062,324.114 45.693,326.026 41.810 C 327.047 39.735,327.042 39.788,327.118 30.458 L 327.188 21.833 324.677 21.833 L 322.167 21.833 322.167 26.242 C 322.167 29.160,322.102 30.809,321.977 31.117 C 321.446 32.419,321.277 32.689,320.665 33.213 C 319.109 34.545,316.754 34.496,315.417 33.105 C 314.419 32.067,314.333 31.531,314.333 26.331 L 314.333 21.833 311.820 21.833 L 309.306 21.833 309.373 27.292 M345.833 30.500 L 345.833 39.167 348.333 39.167 L 350.833 39.167 350.833 30.500 L 350.833 21.833 348.333 21.833 L 345.833 21.833 345.833 30.500 M205.037 25.341 C 205.929 25.589,206.996 26.466,207.449 27.324 C 207.938 28.252,207.828 28.373,206.250 28.648 C 205.608 28.759,204.783 28.915,204.417 28.995 C 204.050 29.075,203.338 29.221,202.833 29.320 C 198.630 30.149,198.811 30.175,199.153 28.793 C 199.849 25.983,202.258 24.569,205.037 25.341 M87.349 25.683 C 92.466 26.959,91.199 35.383,85.891 35.383 C 80.237 35.384,79.596 26.662,85.167 25.530 C 85.914 25.378,86.210 25.399,87.349 25.683 M124.301 26.208 C 125.920 27.309,126.661 29.096,126.365 31.186 C 125.492 37.358,117.170 36.661,117.170 30.417 C 117.170 26.503,121.221 24.112,124.301 26.208 M170.555 26.072 C 172.482 27.140,173.370 30.000,172.529 32.432 C 170.961 36.969,164.328 36.194,163.678 31.397 C 163.086 27.038,166.929 24.062,170.555 26.072 M285.432 25.895 C 288.247 27.366,288.907 31.940,286.620 34.124 C 284.206 36.429,280.200 35.560,279.097 32.493 C 277.552 28.198,281.656 23.923,285.432 25.895 " stroke="none" fill="#354d64" fill-rule="evenodd"></path><path id="path1" d="M0.000 28.667 L 0.000 57.333 200.000 57.333 L 400.000 57.333 400.000 28.667 L 400.000 0.000 200.000 0.000 L 0.000 0.000 0.000 28.667 M25.833 12.395 C 28.147 13.017,29.809 13.753,31.625 14.960 C 42.172 21.968,42.092 37.534,31.473 44.508 C 23.785 49.559,13.550 47.879,7.816 40.625 C 7.093 39.710,5.620 37.290,5.458 36.750 C 5.403 36.567,5.171 35.882,4.941 35.229 C 1.373 25.055,8.379 13.731,19.250 12.104 C 20.297 11.947,24.931 12.152,25.833 12.395 M45.833 28.497 L 45.833 43.827 45.391 43.938 C 44.355 44.198,44.421 45.193,44.374 28.649 C 44.326 11.817,44.257 13.167,45.161 13.167 L 45.833 13.167 45.833 28.497 M349.473 13.436 C 350.855 13.713,351.886 15.587,351.423 16.982 C 350.314 20.319,345.000 19.713,345.000 16.250 C 345.000 14.102,346.882 12.918,349.473 13.436 M303.000 24.424 C 303.100 36.024,302.956 35.436,305.666 35.303 L 306.750 35.250 306.797 37.264 L 306.843 39.278 306.194 39.472 C 305.366 39.720,302.494 39.725,301.883 39.479 C 299.782 38.635,298.872 37.850,298.128 36.237 C 297.756 35.430,297.412 16.370,297.746 15.041 C 297.841 14.660,297.854 14.658,300.379 14.704 L 302.917 14.750 303.000 24.424 M150.789 16.020 C 151.226 16.122,151.714 16.272,151.873 16.353 C 152.032 16.434,152.248 16.500,152.353 16.500 C 152.611 16.500,154.731 17.587,155.191 17.956 C 157.503 19.804,157.505 19.816,155.792 21.351 C 155.035 22.029,154.391 22.640,154.360 22.710 C 154.127 23.236,153.654 23.146,152.835 22.418 C 149.041 19.049,142.662 20.454,141.112 25.000 C 140.536 26.691,140.487 28.922,140.997 30.250 C 142.254 33.525,145.937 35.788,148.776 35.028 C 149.177 34.921,149.621 34.833,149.763 34.833 C 150.237 34.833,151.864 33.965,152.768 33.228 C 153.864 32.335,153.728 32.328,154.833 33.345 C 155.337 33.809,156.069 34.455,156.458 34.781 C 156.848 35.107,157.166 35.458,157.166 35.562 C 157.163 36.294,153.453 39.000,152.452 39.000 C 152.332 39.000,152.162 39.063,152.075 39.140 C 151.452 39.690,145.617 40.010,144.417 39.560 C 144.142 39.456,143.579 39.272,143.167 39.151 C 136.181 37.089,132.919 28.697,136.471 21.922 C 137.666 19.641,141.480 16.500,143.054 16.500 C 143.177 16.500,143.334 16.444,143.402 16.375 C 143.879 15.893,149.167 15.639,150.789 16.020 M239.397 16.018 C 243.339 17.081,245.677 19.459,246.755 23.500 C 247.134 24.921,247.350 38.828,247.000 39.250 C 246.715 39.593,241.973 39.620,241.692 39.280 C 241.582 39.147,241.491 38.038,241.463 36.488 L 241.417 33.917 236.667 33.870 C 230.483 33.809,231.171 33.477,231.177 36.518 C 231.180 38.195,231.117 39.109,230.987 39.266 C 230.785 39.509,226.510 39.621,225.930 39.399 C 225.604 39.274,225.527 25.320,225.847 24.103 C 226.276 22.466,226.417 22.037,226.785 21.250 C 227.932 18.797,229.857 17.097,232.333 16.352 C 232.654 16.255,233.142 16.105,233.417 16.018 C 234.120 15.795,238.571 15.795,239.397 16.018 M64.500 16.461 C 66.003 16.823,66.434 16.964,67.333 17.391 C 72.937 20.049,75.214 25.535,73.286 31.731 C 72.161 35.345,69.160 37.917,64.667 39.120 C 63.698 39.379,51.783 39.649,50.916 39.431 L 50.500 39.327 50.500 27.858 C 50.500 21.550,50.552 16.336,50.617 16.272 C 50.805 16.084,63.659 16.259,64.500 16.461 M105.500 19.667 L 105.583 21.750 107.667 21.852 C 108.813 21.908,109.769 21.964,109.792 21.977 C 109.815 21.990,109.833 22.898,109.833 23.995 L 109.833 25.990 107.708 26.037 L 105.583 26.083 105.583 30.205 L 105.583 34.326 106.046 34.788 C 106.567 35.308,108.749 35.484,109.192 35.042 C 109.526 34.707,109.737 34.797,109.973 35.375 C 110.095 35.673,110.258 36.067,110.336 36.250 C 110.413 36.433,110.625 37.017,110.807 37.547 L 111.138 38.511 110.726 38.781 C 107.212 41.084,101.557 39.322,100.419 35.569 C 100.155 34.701,100.027 17.862,100.282 17.607 C 100.345 17.544,101.527 17.512,102.907 17.537 L 105.417 17.583 105.500 19.667 M337.167 19.667 L 337.167 21.833 339.217 21.833 C 341.745 21.833,341.667 21.767,341.664 23.908 C 341.661 26.166,341.761 26.074,339.300 26.079 L 337.250 26.083 337.205 29.871 C 337.156 34.029,337.270 34.653,338.167 35.129 C 338.667 35.394,340.548 35.306,340.916 35.000 C 341.278 34.700,341.624 34.907,341.808 35.532 C 341.897 35.835,342.158 36.608,342.388 37.249 C 342.849 38.535,342.811 38.687,341.935 39.061 C 337.631 40.897,333.277 39.182,332.019 35.155 C 331.815 34.502,331.744 17.811,331.944 17.611 C 332.006 17.550,333.206 17.500,334.611 17.500 L 337.167 17.500 337.167 19.667 M22.033 19.367 C 21.764 19.636,21.782 19.916,22.083 20.167 C 22.512 20.522,22.361 21.003,21.583 21.759 L 20.833 22.488 20.833 24.337 L 20.833 26.187 20.208 26.135 L 19.583 26.083 19.500 24.810 C 19.411 23.443,19.388 23.406,18.048 22.463 C 17.176 21.849,17.043 21.444,17.465 20.693 C 17.861 19.989,17.736 19.667,17.068 19.667 C 16.596 19.667,16.477 19.994,16.762 20.508 C 16.886 20.733,16.992 21.142,16.997 21.417 C 17.007 22.035,17.029 22.065,18.216 23.061 L 19.181 23.871 19.132 24.977 L 19.083 26.083 18.583 26.083 C 18.095 26.083,18.081 26.061,17.997 25.112 C 17.931 24.372,17.831 24.096,17.580 23.956 C 17.215 23.753,16.553 23.075,16.167 22.510 C 15.823 22.007,15.333 22.208,15.333 22.851 C 15.333 23.233,15.408 23.333,15.691 23.333 C 16.358 23.333,17.490 24.196,17.602 24.791 C 17.841 26.064,17.702 26.167,15.736 26.167 C 14.216 26.167,13.541 26.286,13.167 26.620 C 13.121 26.660,13.046 29.069,13.000 31.972 L 12.917 37.250 12.083 37.333 L 11.250 37.417 11.280 38.248 C 11.306 38.941,11.389 39.143,11.780 39.456 L 12.250 39.832 21.774 39.833 L 31.298 39.833 31.826 39.341 C 32.706 38.518,32.532 37.448,31.500 37.333 L 30.750 37.250 30.667 32.167 C 30.590 27.469,30.505 26.566,30.119 26.310 C 30.099 26.296,29.108 26.240,27.917 26.185 L 25.750 26.083 25.700 25.310 C 25.640 24.380,26.595 23.407,27.667 23.305 C 28.364 23.239,28.582 22.645,28.020 22.344 C 27.734 22.191,27.573 22.280,26.885 22.972 C 26.444 23.416,25.935 23.861,25.753 23.960 C 25.501 24.097,25.402 24.370,25.336 25.112 C 25.188 26.781,24.500 26.655,24.500 24.958 L 24.500 23.726 25.583 22.858 C 26.543 22.089,26.667 21.924,26.667 21.410 C 26.667 21.090,26.754 20.690,26.860 20.520 C 27.134 20.080,26.920 19.667,26.417 19.667 C 25.853 19.667,25.713 20.085,26.074 20.696 C 26.499 21.415,26.307 21.827,25.096 22.798 L 24.015 23.665 23.966 24.874 L 23.917 26.083 23.292 26.135 L 22.667 26.187 22.672 24.635 L 22.677 23.083 23.396 22.542 C 23.854 22.197,24.307 22.000,24.641 22.000 C 25.238 22.000,25.397 21.398,24.907 20.992 C 24.687 20.809,24.545 20.889,23.949 21.530 C 23.565 21.944,23.044 22.415,22.792 22.577 C 22.345 22.864,22.333 22.912,22.333 24.441 C 22.333 25.740,22.286 26.028,22.061 26.115 C 21.420 26.361,21.250 25.964,21.250 24.226 L 21.250 22.574 21.958 21.934 C 22.474 21.469,22.667 21.166,22.667 20.824 C 22.667 20.565,22.742 20.307,22.833 20.250 C 23.097 20.087,23.027 19.379,22.736 19.268 C 22.364 19.125,22.260 19.140,22.033 19.367 M235.167 20.676 C 232.334 21.158,231.387 22.625,231.219 26.792 L 231.116 29.333 236.334 29.333 L 241.552 29.333 241.446 26.762 C 241.286 22.876,240.245 21.104,237.920 20.759 C 236.731 20.583,235.868 20.557,235.167 20.676 M56.125 20.758 C 56.056 20.830,56.000 24.034,56.000 27.878 L 56.000 34.867 59.458 34.797 C 62.572 34.734,63.016 34.689,63.917 34.343 C 69.970 32.014,69.798 23.214,63.658 21.172 C 62.530 20.797,56.409 20.461,56.125 20.758 M87.830 21.650 C 88.274 21.819,88.986 22.192,89.411 22.479 C 90.368 23.125,90.304 23.137,90.365 22.292 L 90.417 21.583 93.000 21.583 L 95.583 21.583 95.626 30.406 C 95.660 37.354,95.625 39.257,95.460 39.362 C 95.216 39.516,91.431 39.544,90.875 39.395 C 90.558 39.310,90.500 39.181,90.500 38.564 C 90.500 37.749,90.425 37.694,89.927 38.146 C 88.266 39.654,82.902 40.291,81.730 39.119 C 81.665 39.054,81.508 39.000,81.381 39.000 C 80.466 39.000,77.959 36.709,77.186 35.167 C 75.897 32.593,75.696 30.169,76.535 27.333 C 77.885 22.774,83.437 19.981,87.830 21.650 M123.357 21.519 C 124.313 21.828,124.964 22.158,125.492 22.602 L 126.000 23.030 126.000 22.528 C 126.000 21.483,125.954 21.500,128.833 21.500 C 131.079 21.500,131.479 21.539,131.566 21.764 C 131.621 21.909,131.667 25.881,131.667 30.591 C 131.667 40.609,131.992 39.501,129.053 39.498 C 126.411 39.495,126.362 39.478,126.300 38.540 L 126.250 37.782 125.750 38.188 C 121.466 41.670,114.265 39.193,112.362 33.583 C 111.703 31.642,111.901 27.546,112.701 26.592 C 112.774 26.505,112.833 26.337,112.833 26.220 C 112.833 24.995,115.768 22.402,118.083 21.580 C 119.230 21.173,122.181 21.139,123.357 21.519 M171.576 21.702 C 174.095 22.523,177.333 25.319,177.333 26.672 C 177.333 26.763,177.399 26.968,177.480 27.127 C 178.756 29.654,178.027 33.990,175.909 36.464 C 173.801 38.927,168.882 40.428,165.900 39.519 C 165.634 39.438,165.079 39.273,164.667 39.152 C 162.036 38.380,159.815 36.227,158.819 33.484 C 158.377 32.266,158.243 28.744,158.609 27.984 C 158.716 27.763,158.926 27.246,159.077 26.833 C 159.399 25.956,160.162 24.825,160.994 23.994 C 162.168 22.821,163.793 21.928,165.500 21.517 C 167.226 21.102,169.992 21.186,171.576 21.702 M192.587 21.542 C 192.638 21.748,192.658 22.854,192.632 24.000 L 192.583 26.083 191.167 26.178 C 189.146 26.313,187.167 27.456,187.167 28.487 C 187.167 28.641,187.073 28.860,186.958 28.975 C 186.804 29.130,186.735 30.479,186.690 34.217 C 186.649 37.748,186.574 39.287,186.440 39.372 C 186.182 39.539,181.804 39.529,181.540 39.362 C 181.375 39.257,181.340 37.354,181.374 30.406 L 181.417 21.583 183.917 21.583 L 186.417 21.583 186.467 22.458 C 186.525 23.467,186.574 23.493,187.250 22.873 C 188.088 22.105,189.674 21.444,191.083 21.276 C 192.329 21.128,192.491 21.156,192.587 21.542 M206.733 21.699 C 210.192 22.825,212.449 25.588,212.766 29.085 C 212.890 30.449,212.933 30.401,211.333 30.695 C 210.829 30.788,210.079 30.936,209.667 31.024 C 209.254 31.112,208.542 31.252,208.083 31.336 C 206.125 31.691,205.486 31.810,203.750 32.141 C 202.742 32.334,201.597 32.568,201.206 32.662 C 200.815 32.756,200.346 32.833,200.164 32.833 C 199.760 32.833,199.750 32.970,200.116 33.505 C 201.609 35.684,205.764 35.964,208.272 34.054 L 208.794 33.657 210.147 35.103 C 211.688 36.750,211.690 36.757,210.958 37.441 C 208.473 39.764,203.440 40.417,199.667 38.907 C 191.871 35.786,192.159 24.528,200.107 21.742 C 201.909 21.110,204.865 21.091,206.733 21.699 M265.180 21.513 C 267.516 22.259,269.196 23.978,269.808 26.250 C 270.455 28.655,270.616 39.004,270.011 39.327 C 269.532 39.584,265.251 39.553,265.038 39.292 C 264.935 39.165,264.842 36.971,264.798 33.667 C 264.729 28.425,264.715 28.229,264.353 27.602 C 263.099 25.426,259.678 25.312,258.090 27.393 C 257.280 28.455,257.171 29.301,257.169 34.524 C 257.167 38.722,257.135 39.310,256.903 39.399 C 256.562 39.530,252.699 39.526,252.208 39.395 L 251.833 39.294 251.833 30.397 L 251.833 21.500 254.316 21.500 C 257.052 21.500,257.000 21.479,257.000 22.597 C 257.000 23.295,256.986 23.295,257.958 22.601 C 259.744 21.327,263.041 20.830,265.180 21.513 M284.959 21.527 C 286.094 21.989,286.454 22.175,287.000 22.582 L 287.583 23.017 287.667 22.300 L 287.750 21.583 290.321 21.537 C 292.266 21.502,292.924 21.543,293.026 21.704 C 293.285 22.111,293.197 39.101,292.935 39.318 C 292.779 39.447,291.955 39.495,290.394 39.463 L 288.083 39.417 288.033 38.625 C 287.972 37.681,287.995 37.686,287.022 38.400 C 282.746 41.534,276.039 39.140,273.996 33.750 C 272.357 29.423,274.512 23.827,278.500 22.053 C 280.395 21.211,283.550 20.954,284.959 21.527 M366.917 21.516 C 368.221 21.838,369.231 22.346,370.242 23.187 C 371.197 23.983,372.217 25.377,372.135 25.777 C 372.106 25.915,371.371 26.402,370.500 26.859 C 369.629 27.315,368.845 27.759,368.758 27.844 C 368.451 28.147,368.135 27.991,367.382 27.164 C 365.275 24.849,361.577 25.340,360.145 28.126 C 359.644 29.100,359.595 31.678,360.057 32.707 C 361.355 35.599,365.456 36.103,367.548 33.628 L 368.214 32.839 369.649 33.606 C 372.556 35.162,372.501 35.083,371.556 36.370 C 370.631 37.631,369.458 38.493,367.750 39.165 C 366.011 39.850,362.320 39.855,360.583 39.175 C 350.884 35.374,352.539 22.669,362.917 21.265 C 363.643 21.167,366.140 21.323,366.917 21.516 M385.417 21.516 C 387.240 21.943,389.000 22.608,389.000 22.871 C 389.000 22.950,388.750 23.556,388.444 24.216 C 388.137 24.876,387.782 25.660,387.653 25.958 C 387.414 26.511,387.081 26.628,386.539 26.353 C 383.157 24.632,377.762 25.377,379.077 27.383 C 379.414 27.897,380.080 28.098,383.667 28.764 C 386.663 29.321,387.942 29.934,388.802 31.227 C 390.830 34.276,389.126 37.990,385.167 39.152 C 384.754 39.273,384.199 39.438,383.933 39.519 C 383.255 39.726,379.206 39.703,378.138 39.487 C 377.055 39.267,376.030 39.005,375.583 38.834 C 373.189 37.917,373.174 37.891,373.992 36.239 C 374.352 35.512,374.728 34.702,374.826 34.440 C 375.028 33.904,375.013 33.903,376.642 34.584 C 379.871 35.935,383.907 35.862,384.379 34.446 C 384.747 33.343,383.862 32.944,379.711 32.340 C 376.848 31.923,374.167 30.382,374.167 29.153 C 374.167 28.988,374.092 28.807,374.000 28.750 C 373.638 28.527,373.806 25.785,374.235 24.906 C 375.183 22.965,377.597 21.546,380.417 21.272 C 381.397 21.177,384.646 21.335,385.417 21.516 M314.512 26.417 C 314.565 29.075,314.671 31.438,314.748 31.667 C 315.232 33.105,316.481 33.991,318.034 33.997 C 318.889 34.001,320.215 33.470,320.728 32.918 C 321.811 31.752,321.890 31.329,321.992 26.167 L 322.083 21.583 324.708 21.537 L 327.333 21.492 327.333 29.902 C 327.333 41.016,327.017 42.338,323.841 44.495 C 321.164 46.313,315.021 46.597,311.522 45.065 C 309.720 44.276,309.167 43.905,309.167 43.486 C 309.167 43.176,310.020 41.542,310.974 40.024 C 311.089 39.841,311.242 39.874,311.767 40.194 C 313.561 41.289,314.450 41.529,317.000 41.607 C 319.918 41.697,321.091 40.991,321.742 38.754 C 322.209 37.145,321.875 36.322,321.167 37.336 C 320.807 37.851,318.099 38.667,316.750 38.667 C 313.092 38.667,310.300 36.578,309.436 33.195 C 309.155 32.095,309.019 21.870,309.282 21.607 C 309.345 21.544,310.527 21.512,311.907 21.537 L 314.417 21.583 314.512 26.417 M350.960 30.451 L 351.003 39.318 350.460 39.417 C 350.161 39.471,348.979 39.494,347.833 39.466 L 345.750 39.417 345.707 30.454 L 345.664 21.492 348.290 21.537 L 350.917 21.583 350.960 30.451 M202.517 25.446 C 201.026 25.653,199.673 27.150,199.414 28.879 C 199.280 29.767,199.486 29.859,200.814 29.507 C 201.145 29.419,202.467 29.152,203.750 28.913 C 207.754 28.170,207.697 28.195,207.265 27.367 C 206.506 25.914,204.625 25.154,202.517 25.446 M85.083 25.782 C 81.003 26.342,80.260 33.076,84.083 34.850 C 87.160 36.277,90.214 34.160,90.238 30.583 C 90.262 27.175,88.293 25.342,85.083 25.782 M121.000 25.782 C 116.855 26.223,116.060 33.003,119.940 34.827 C 123.315 36.413,126.851 33.373,126.135 29.500 C 125.641 26.830,123.786 25.486,121.000 25.782 M167.250 25.818 C 163.353 26.500,162.520 32.642,166.051 34.667 C 169.173 36.458,172.894 33.967,172.617 30.272 C 172.374 27.032,170.274 25.290,167.250 25.818 M282.417 25.819 C 278.389 26.530,277.631 32.874,281.350 34.758 C 284.500 36.354,287.667 34.194,287.667 30.450 C 287.667 27.110,285.573 25.263,282.417 25.819 M30.000 26.833 C 30.432 27.265,30.527 36.798,30.103 37.150 C 29.777 37.421,13.721 37.419,13.395 37.149 C 12.755 36.618,13.146 26.789,13.815 26.610 C 14.918 26.316,29.686 26.519,30.000 26.833 M14.409 27.710 C 14.364 27.827,14.347 29.796,14.372 32.086 L 14.417 36.250 21.750 36.250 L 29.083 36.250 29.083 31.917 L 29.083 27.583 21.787 27.540 C 15.985 27.505,14.474 27.540,14.409 27.710 M17.636 28.467 C 17.697 29.095,16.727 30.164,16.092 30.169 C 15.560 30.173,15.299 30.417,15.360 30.852 C 15.447 31.468,16.134 31.492,16.369 30.888 C 16.469 30.629,16.859 30.189,17.234 29.911 C 17.816 29.480,17.929 29.295,18.000 28.661 C 18.144 27.376,19.063 27.536,19.133 28.857 L 19.182 29.798 18.383 30.440 C 17.223 31.371,17.000 31.658,17.000 32.221 C 17.000 32.497,16.881 32.856,16.735 33.017 C 16.361 33.430,16.573 34.000,17.100 34.000 C 17.657 34.000,17.781 33.571,17.417 32.896 C 17.025 32.169,17.150 31.922,18.451 30.842 L 19.485 29.984 19.534 28.950 L 19.583 27.917 20.208 27.865 L 20.833 27.813 20.835 28.865 C 20.836 29.443,20.881 30.183,20.935 30.508 C 21.043 31.159,20.162 32.000,19.372 32.000 C 18.863 32.000,18.587 32.564,18.929 32.905 C 19.319 33.295,19.629 33.224,19.910 32.680 C 20.048 32.412,20.388 32.032,20.664 31.835 L 21.167 31.477 21.167 29.742 C 21.167 28.040,21.175 28.004,21.574 27.904 C 22.264 27.731,22.333 27.914,22.333 29.892 L 22.333 31.765 23.000 32.396 C 23.713 33.072,23.800 33.393,23.411 33.907 C 22.981 34.476,23.418 35.145,24.012 34.827 C 24.352 34.645,24.447 34.090,24.167 33.917 C 24.075 33.860,24.000 33.584,24.000 33.304 C 24.000 32.922,23.832 32.642,23.327 32.180 L 22.655 31.565 22.702 29.741 L 22.750 27.917 23.333 27.917 L 23.917 27.917 23.966 29.034 L 24.015 30.151 25.174 30.994 C 26.413 31.895,26.574 32.248,26.073 32.965 C 25.695 33.504,25.906 34.034,26.473 33.968 C 26.832 33.926,26.911 33.837,26.884 33.500 C 26.817 32.626,26.541 31.461,26.377 31.358 C 26.283 31.299,25.822 30.988,25.353 30.667 L 24.501 30.083 24.500 28.947 C 24.500 27.519,25.201 27.242,25.302 28.630 C 25.348 29.276,25.429 29.394,26.151 29.872 C 26.590 30.162,27.069 30.610,27.217 30.866 C 27.532 31.417,28.096 31.485,28.253 30.992 C 28.383 30.581,28.042 30.115,27.705 30.244 C 27.088 30.481,25.629 29.152,25.701 28.419 L 25.750 27.917 27.292 27.869 L 28.833 27.821 28.833 31.827 L 28.833 35.833 21.750 35.833 L 14.667 35.833 14.667 31.944 C 14.667 27.450,14.529 27.808,16.242 27.869 L 17.583 27.917 17.636 28.467 M19.545 38.096 C 20.276 38.711,24.151 38.669,24.590 38.042 C 24.848 37.673,24.909 37.667,28.426 37.667 L 32.000 37.667 32.000 38.238 C 32.000 39.543,32.351 39.500,21.765 39.500 C 11.479 39.500,11.815 39.533,11.606 38.489 C 11.443 37.673,11.472 37.667,15.361 37.667 L 19.035 37.667 19.545 38.096 M24.239 37.816 C 24.402 38.080,23.847 38.167,22.000 38.167 C 20.181 38.167,19.667 38.089,19.667 37.816 C 19.667 37.621,24.119 37.621,24.239 37.816 " stroke="none" fill="#fbf3eb" fill-rule="evenodd"></path><path id="path2" d="M21.598 12.125 C 21.529 12.194,20.786 12.298,19.945 12.357 C 18.410 12.465,17.701 12.580,17.083 12.823 C 16.900 12.895,16.450 13.047,16.083 13.161 C 12.685 14.220,6.874 18.910,6.838 20.625 C 6.835 20.740,6.777 20.834,6.708 20.835 C 6.583 20.837,6.328 21.345,5.660 22.917 C 5.465 23.375,5.237 23.880,5.153 24.039 C 5.069 24.199,5.000 24.513,5.000 24.738 C 5.000 24.963,4.933 25.188,4.851 25.239 C 4.454 25.484,4.183 31.178,4.498 32.667 C 4.867 34.415,5.124 35.261,5.519 36.039 C 5.600 36.199,5.667 36.475,5.667 36.655 C 5.667 36.834,5.737 37.024,5.823 37.077 C 5.908 37.130,6.186 37.603,6.440 38.128 C 6.693 38.654,6.942 39.121,6.993 39.167 C 7.044 39.212,7.414 39.692,7.817 40.233 C 9.715 42.784,12.171 44.637,15.500 46.031 C 15.729 46.127,16.047 46.272,16.206 46.353 C 16.365 46.434,16.669 46.500,16.881 46.500 C 17.093 46.500,17.338 46.567,17.425 46.650 C 18.004 47.197,25.496 47.197,26.075 46.650 C 26.162 46.567,26.407 46.500,26.619 46.500 C 26.831 46.500,27.135 46.432,27.294 46.350 C 27.453 46.267,28.108 45.990,28.750 45.734 C 29.392 45.478,29.942 45.208,29.972 45.134 C 30.003 45.060,30.100 45.000,30.188 45.000 C 30.788 45.000,34.502 41.914,35.504 40.583 C 37.220 38.303,38.833 34.861,38.833 33.479 C 38.833 33.252,38.914 32.986,39.012 32.888 C 39.461 32.439,39.202 26.408,38.677 25.083 C 38.605 24.900,38.411 24.337,38.247 23.833 C 37.688 22.115,36.826 20.516,35.596 18.917 C 34.734 17.796,31.920 15.167,31.583 15.167 C 31.525 15.167,31.163 14.956,30.780 14.697 C 30.043 14.201,28.270 13.333,27.993 13.333 C 27.903 13.333,27.699 13.268,27.539 13.187 C 27.058 12.944,26.082 12.667,25.706 12.667 C 25.512 12.667,25.307 12.592,25.250 12.500 C 25.193 12.408,24.481 12.333,23.667 12.333 C 22.852 12.333,22.140 12.258,22.083 12.167 C 21.961 11.969,21.770 11.952,21.598 12.125 M23.009 19.175 C 23.345 19.511,23.327 20.172,22.978 20.306 C 22.898 20.336,22.833 20.603,22.833 20.899 C 22.833 21.318,22.688 21.562,22.170 22.010 L 21.508 22.583 21.504 24.292 C 21.501 25.701,21.544 26.000,21.750 26.000 C 21.955 26.000,22.000 25.714,22.000 24.424 L 22.000 22.847 22.910 22.215 C 23.411 21.868,23.824 21.479,23.827 21.352 C 23.843 20.765,24.712 20.505,25.195 20.942 C 25.787 21.478,25.302 22.333,24.406 22.333 C 24.211 22.333,23.834 22.521,23.568 22.750 C 23.301 22.979,23.027 23.166,22.958 23.166 C 22.890 23.167,22.833 23.804,22.833 24.583 L 22.833 26.000 23.333 26.000 L 23.833 26.000 23.833 24.772 L 23.833 23.543 24.519 22.980 C 24.895 22.670,25.383 22.306,25.602 22.170 C 26.019 21.911,26.174 20.960,25.833 20.750 C 25.525 20.560,25.645 19.690,26.006 19.497 C 26.778 19.084,27.564 19.873,27.095 20.589 C 26.951 20.808,26.833 21.240,26.833 21.547 C 26.833 22.128,26.757 22.220,25.374 23.306 C 24.675 23.855,24.244 26.000,24.833 26.000 C 24.925 26.000,25.000 25.633,25.000 25.184 C 25.000 24.506,25.076 24.302,25.450 23.976 C 25.698 23.760,26.253 23.227,26.683 22.792 C 27.517 21.946,27.876 21.836,28.362 22.276 C 28.966 22.823,28.502 23.667,27.595 23.667 C 26.743 23.667,25.833 24.533,25.833 25.345 L 25.833 26.000 27.988 26.000 C 31.057 26.000,30.833 25.533,30.833 31.939 L 30.833 37.000 31.550 37.000 C 32.849 37.000,33.147 38.267,32.113 39.396 L 31.560 40.000 21.797 40.000 L 12.035 40.000 11.518 39.516 C 11.060 39.089,11.000 38.927,11.000 38.118 C 11.000 37.094,11.099 37.000,12.180 37.000 L 12.833 37.000 12.833 31.886 C 12.833 25.557,12.637 26.000,15.446 26.000 L 17.333 26.000 17.333 25.195 C 17.333 24.507,17.273 24.357,16.917 24.167 C 16.688 24.044,16.500 23.881,16.500 23.805 C 16.500 23.729,16.270 23.667,15.988 23.667 C 15.118 23.667,14.668 22.809,15.238 22.238 C 15.676 21.800,16.667 22.167,16.667 22.767 C 16.667 22.886,16.948 23.193,17.292 23.449 C 18.138 24.079,18.161 24.125,18.164 25.125 C 18.166 25.888,18.209 26.000,18.500 26.000 C 19.150 26.000,18.978 23.851,18.291 23.380 C 17.274 22.683,16.833 22.171,16.833 21.686 C 16.833 21.428,16.716 20.982,16.572 20.693 C 16.131 19.811,16.547 19.213,17.445 19.439 C 17.884 19.549,17.911 19.899,17.580 21.195 C 17.492 21.538,17.550 21.711,17.830 21.945 C 18.031 22.113,18.357 22.390,18.556 22.561 C 18.754 22.732,19.085 22.984,19.292 23.122 C 19.628 23.346,19.667 23.508,19.667 24.686 L 19.667 26.000 20.167 26.000 L 20.667 26.000 20.667 24.161 L 20.667 22.323 21.333 21.710 C 21.979 21.116,22.199 20.476,21.833 20.250 C 21.561 20.082,21.644 19.304,21.958 19.065 C 22.367 18.755,22.614 18.781,23.009 19.175 M13.605 27.207 C 13.550 27.414,13.504 29.702,13.502 32.292 L 13.500 37.000 21.752 37.000 L 30.005 37.000 29.961 31.958 L 29.917 26.917 21.812 26.873 L 13.706 26.830 13.605 27.207 M29.265 27.408 C 29.465 27.608,29.498 28.389,29.461 32.033 L 29.417 36.417 21.936 36.460 C 16.551 36.491,14.391 36.451,14.227 36.315 C 13.855 36.005,13.899 27.888,14.276 27.471 C 14.654 27.054,28.851 26.993,29.265 27.408 M14.833 31.917 L 14.833 35.833 21.750 35.833 L 28.667 35.833 28.664 33.375 C 28.663 32.023,28.606 30.992,28.539 31.083 C 28.050 31.749,27.134 31.686,26.907 30.971 C 26.853 30.799,26.401 30.358,25.904 29.991 C 25.074 29.377,25.000 29.269,25.000 28.661 C 25.000 28.298,24.925 28.000,24.833 28.000 C 24.742 28.000,24.667 28.431,24.667 28.960 L 24.667 29.919 25.750 30.654 C 26.725 31.315,26.833 31.445,26.833 31.953 C 26.833 32.263,26.948 32.739,27.088 33.010 C 27.513 33.830,26.937 34.491,26.082 34.166 C 25.648 34.001,25.476 33.137,25.833 32.917 C 26.394 32.570,25.990 31.748,24.913 31.041 L 23.833 30.331 23.833 29.166 L 23.833 28.000 23.333 28.000 L 22.833 28.000 22.833 29.723 L 22.833 31.446 23.500 32.063 C 23.901 32.434,24.167 32.831,24.167 33.058 C 24.167 33.266,24.277 33.582,24.411 33.760 C 24.764 34.226,24.722 34.623,24.288 34.907 C 23.510 35.417,22.652 34.596,23.142 33.810 C 23.456 33.308,23.367 33.045,22.667 32.397 L 22.000 31.780 22.000 29.890 C 22.000 28.321,21.958 28.000,21.750 28.000 C 21.544 28.000,21.500 28.302,21.500 29.714 L 21.500 31.428 20.842 31.973 C 20.480 32.272,20.143 32.645,20.094 32.801 C 19.787 33.766,18.618 33.514,18.702 32.500 C 18.744 31.987,18.814 31.907,19.279 31.833 C 19.937 31.730,20.896 30.904,20.763 30.557 C 20.710 30.419,20.667 29.787,20.667 29.153 L 20.667 28.000 20.167 28.000 L 19.667 28.000 19.667 29.078 L 19.667 30.156 18.674 30.953 C 17.663 31.764,17.307 32.373,17.646 32.712 C 17.970 33.037,17.873 33.967,17.494 34.170 C 16.691 34.600,16.039 33.724,16.565 32.921 C 16.713 32.696,16.833 32.296,16.833 32.031 C 16.833 31.494,17.090 31.161,18.125 30.356 C 18.962 29.705,19.233 28.000,18.500 28.000 C 18.217 28.000,18.167 28.111,18.167 28.732 C 18.167 29.460,18.042 29.628,16.861 30.497 C 16.796 30.544,16.652 30.792,16.540 31.046 C 16.283 31.630,15.924 31.771,15.405 31.494 C 14.647 31.088,14.953 30.000,15.825 30.000 C 16.490 29.999,17.333 29.181,17.333 28.537 L 17.333 28.000 16.083 28.000 L 14.833 28.000 14.833 31.917 M25.833 28.429 C 25.833 28.664,25.927 28.948,26.042 29.059 C 26.547 29.549,27.332 30.000,27.679 30.000 C 27.887 30.000,28.194 30.124,28.362 30.276 C 28.655 30.541,28.667 30.501,28.667 29.276 L 28.667 28.000 27.250 28.000 C 25.840 28.000,25.833 28.002,25.833 28.429 M11.833 38.300 C 11.833 39.193,11.529 39.167,21.795 39.167 C 32.169 39.167,31.833 39.197,31.833 38.262 L 31.833 37.833 28.447 37.833 L 25.060 37.833 24.698 38.250 C 24.344 38.657,24.282 38.667,22.030 38.667 C 19.787 38.667,19.714 38.655,19.333 38.250 L 18.942 37.833 15.388 37.833 L 11.833 37.833 11.833 38.300 " stroke="none" fill="#cb8363" fill-rule="evenodd"></path><path id="path3" d="M44.410 13.375 C 44.366 13.490,44.350 20.363,44.374 28.649 C 44.421 45.193,44.355 44.198,45.391 43.938 L 45.833 43.827 45.833 28.497 L 45.833 13.167 45.161 13.167 C 44.777 13.167,44.456 13.256,44.410 13.375 M45.626 28.542 L 45.583 43.750 45.083 43.750 L 44.583 43.750 44.541 28.542 L 44.498 13.333 45.083 13.333 L 45.668 13.333 45.626 28.542 M346.529 13.691 C 345.522 14.189,345.000 15.063,345.000 16.250 C 345.000 19.713,350.314 20.319,351.423 16.982 C 352.260 14.460,349.171 12.383,346.529 13.691 M349.688 13.735 C 352.548 14.934,351.420 19.000,348.228 19.000 C 345.023 19.000,343.984 15.065,346.833 13.719 C 347.415 13.445,349.016 13.454,349.688 13.735 M297.746 15.041 C 297.412 16.370,297.756 35.430,298.128 36.237 C 298.872 37.850,299.782 38.635,301.883 39.479 C 302.494 39.725,305.366 39.720,306.194 39.472 L 306.843 39.278 306.797 37.264 L 306.750 35.250 305.666 35.303 C 302.956 35.436,303.100 36.024,303.000 24.424 L 302.917 14.750 300.379 14.704 C 297.854 14.658,297.841 14.660,297.746 15.041 M302.833 24.683 C 302.920 34.703,302.896 34.371,303.583 35.090 C 304.066 35.594,305.175 35.765,306.156 35.485 C 306.458 35.399,306.644 36.302,306.657 37.924 L 306.667 39.098 305.914 39.299 C 302.196 40.293,298.697 38.404,298.013 35.033 C 297.813 34.049,297.753 15.303,297.949 15.107 C 298.012 15.043,299.119 15.012,300.407 15.037 L 302.750 15.083 302.833 24.683 M144.304 16.061 C 143.876 16.165,143.470 16.306,143.402 16.375 C 143.334 16.444,143.177 16.500,143.054 16.500 C 142.196 16.500,139.356 18.327,138.059 19.714 C 135.226 22.742,134.188 28.029,135.665 31.917 C 136.994 35.418,139.850 38.172,143.167 39.151 C 143.579 39.272,144.142 39.456,144.417 39.560 C 145.617 40.010,151.452 39.690,152.075 39.140 C 152.162 39.063,152.332 39.000,152.452 39.000 C 153.453 39.000,157.163 36.294,157.166 35.562 C 157.166 35.458,156.848 35.107,156.458 34.781 C 156.069 34.455,155.337 33.809,154.833 33.345 C 153.728 32.328,153.864 32.335,152.768 33.228 C 151.864 33.965,150.237 34.833,149.763 34.833 C 149.621 34.833,149.177 34.921,148.776 35.028 C 146.430 35.656,142.657 33.773,141.521 31.408 C 140.946 30.212,140.879 30.014,140.703 29.000 C 140.568 28.224,140.540 28.175,140.522 28.678 C 140.303 34.617,148.526 37.409,153.358 33.036 L 153.800 32.636 154.942 33.712 C 155.570 34.304,156.301 34.973,156.568 35.199 L 157.052 35.611 156.401 36.284 C 155.548 37.165,153.836 38.299,152.814 38.659 C 152.366 38.816,151.949 38.995,151.888 39.056 C 151.828 39.117,151.598 39.167,151.378 39.167 C 151.158 39.167,150.828 39.247,150.644 39.345 C 148.959 40.247,142.970 39.250,140.507 37.658 C 132.452 32.452,133.917 19.837,142.934 16.773 C 147.988 15.056,153.943 16.252,156.635 19.525 L 157.020 19.993 156.385 20.538 C 156.036 20.838,155.331 21.477,154.818 21.958 C 153.705 23.004,153.772 22.998,152.833 22.135 C 148.614 18.255,140.898 21.039,140.571 26.561 L 140.510 27.583 140.739 26.500 C 140.865 25.904,141.032 25.229,141.111 25.000 C 142.676 20.450,149.040 19.048,152.835 22.418 C 153.654 23.146,154.127 23.236,154.360 22.710 C 154.391 22.640,155.035 22.029,155.792 21.351 C 157.505 19.816,157.503 19.804,155.191 17.956 C 154.731 17.587,152.611 16.500,152.353 16.500 C 152.248 16.500,152.032 16.434,151.873 16.353 C 150.845 15.831,146.023 15.645,144.304 16.061 M233.417 16.018 C 233.142 16.105,232.654 16.255,232.333 16.352 C 230.822 16.807,229.615 17.565,228.422 18.811 C 227.561 19.709,227.377 19.983,226.785 21.250 C 226.417 22.037,226.276 22.466,225.847 24.103 C 225.527 25.320,225.604 39.274,225.930 39.399 C 226.510 39.621,230.785 39.509,230.987 39.266 C 231.117 39.109,231.180 38.195,231.177 36.518 C 231.171 33.477,230.483 33.809,236.667 33.870 L 241.417 33.917 241.463 36.488 C 241.491 38.038,241.582 39.147,241.692 39.280 C 241.973 39.620,246.715 39.593,247.000 39.250 C 247.350 38.828,247.134 24.921,246.755 23.500 C 245.677 19.459,243.339 17.081,239.397 16.018 C 238.571 15.795,234.120 15.795,233.417 16.018 M239.530 16.328 C 243.276 17.272,245.565 19.635,246.496 23.519 C 246.804 24.806,246.831 25.482,246.832 32.042 L 246.833 39.167 244.333 39.167 L 241.833 39.167 241.831 36.792 C 241.830 35.485,241.783 34.247,241.728 34.039 L 241.627 33.662 236.355 33.706 L 231.083 33.750 231.038 36.458 L 230.992 39.167 228.413 39.167 L 225.833 39.167 225.833 32.263 C 225.833 25.405,225.877 24.724,226.453 22.667 C 227.867 17.610,233.597 14.832,239.530 16.328 M50.617 16.272 C 50.552 16.336,50.500 21.550,50.500 27.858 L 50.500 39.327 50.916 39.431 C 51.783 39.649,63.698 39.379,64.667 39.120 C 71.503 37.290,75.011 31.904,73.701 25.250 C 73.002 21.701,70.868 19.068,67.333 17.391 C 66.434 16.964,66.003 16.823,64.500 16.461 C 63.659 16.259,50.805 16.084,50.617 16.272 M64.262 16.652 C 75.434 19.044,77.371 33.432,67.143 38.059 C 64.935 39.057,63.936 39.167,57.012 39.167 L 50.667 39.167 50.667 27.750 L 50.667 16.333 56.720 16.333 C 62.051 16.333,62.951 16.371,64.262 16.652 M100.282 17.607 C 100.027 17.862,100.155 34.701,100.419 35.569 C 101.557 39.322,107.212 41.084,110.726 38.781 L 111.138 38.511 110.807 37.547 C 110.625 37.017,110.413 36.433,110.336 36.250 C 110.258 36.067,110.095 35.673,109.973 35.375 C 109.737 34.797,109.526 34.707,109.192 35.042 C 108.749 35.484,106.567 35.308,106.046 34.788 L 105.583 34.326 105.583 30.205 L 105.583 26.083 107.708 26.037 L 109.833 25.990 109.833 23.995 C 109.833 22.898,109.815 21.990,109.792 21.977 C 109.769 21.964,108.813 21.908,107.667 21.852 L 105.583 21.750 105.500 19.667 L 105.417 17.583 102.907 17.537 C 101.527 17.512,100.345 17.544,100.282 17.607 M331.944 17.611 C 331.744 17.811,331.815 34.502,332.019 35.155 C 333.139 38.743,337.088 40.680,340.822 39.474 C 342.829 38.826,342.912 38.708,342.388 37.249 C 342.158 36.608,341.897 35.835,341.808 35.532 C 341.624 34.907,341.278 34.700,340.916 35.000 C 340.548 35.306,338.667 35.394,338.167 35.129 C 337.270 34.653,337.156 34.029,337.205 29.871 L 337.250 26.083 339.300 26.079 C 341.761 26.074,341.661 26.166,341.664 23.908 C 341.667 21.767,341.745 21.833,339.217 21.833 L 337.167 21.833 337.167 19.667 L 337.167 17.500 334.611 17.500 C 333.206 17.500,332.006 17.550,331.944 17.611 M105.167 19.678 C 105.167 22.263,105.073 22.167,107.589 22.167 L 109.667 22.167 109.667 23.899 C 109.667 25.962,109.827 25.833,107.254 25.833 C 105.689 25.833,105.352 25.878,105.268 26.097 C 105.065 26.625,105.163 33.393,105.383 34.022 C 105.910 35.535,107.255 36.045,108.880 35.349 L 109.621 35.031 110.128 36.391 C 110.942 38.571,110.937 38.442,110.217 38.797 C 107.010 40.382,102.438 39.279,101.037 36.583 C 100.456 35.464,100.438 35.187,100.382 26.375 L 100.327 17.833 102.747 17.833 L 105.167 17.833 105.167 19.678 M337.037 19.958 L 337.083 22.083 339.208 22.130 L 341.333 22.177 341.333 24.000 L 341.333 25.823 339.208 25.870 L 337.083 25.917 337.037 29.833 C 336.997 33.239,337.028 33.833,337.276 34.387 C 337.810 35.579,339.402 35.989,340.795 35.294 C 341.284 35.050,341.306 35.056,341.503 35.480 C 342.821 38.319,342.786 38.578,341.014 39.153 C 338.427 39.992,335.144 39.338,333.534 37.662 C 332.125 36.196,332.093 35.955,332.034 26.292 L 331.983 17.833 334.487 17.833 L 336.990 17.833 337.037 19.958 M234.750 20.479 C 232.056 21.197,231.125 22.777,231.030 26.794 L 230.966 29.505 236.358 29.461 L 241.750 29.417 241.803 28.250 C 241.977 24.384,240.963 21.812,238.875 20.831 C 238.046 20.441,235.655 20.237,234.750 20.479 M55.833 27.750 L 55.833 35.000 59.197 35.000 C 62.695 35.000,63.019 34.953,64.721 34.193 C 69.008 32.280,69.880 25.543,66.254 22.359 C 64.629 20.932,62.900 20.500,58.823 20.500 L 55.833 20.500 55.833 27.750 M237.920 20.759 C 240.245 21.104,241.286 22.876,241.446 26.762 L 241.552 29.333 236.334 29.333 L 231.116 29.333 231.219 26.792 C 231.427 21.645,233.190 20.057,237.920 20.759 M63.658 21.172 C 69.798 23.214,69.970 32.014,63.917 34.343 C 63.016 34.689,62.572 34.734,59.458 34.797 L 56.000 34.867 56.000 27.878 C 56.000 24.034,56.056 20.830,56.125 20.758 C 56.409 20.461,62.530 20.797,63.658 21.172 M83.833 21.268 C 77.509 22.003,74.131 29.067,77.186 35.167 C 77.959 36.709,80.466 39.000,81.381 39.000 C 81.508 39.000,81.665 39.054,81.730 39.119 C 82.902 40.291,88.266 39.654,89.927 38.146 C 90.425 37.694,90.500 37.749,90.500 38.564 C 90.500 39.181,90.558 39.310,90.875 39.395 C 91.431 39.544,95.216 39.516,95.460 39.362 C 95.625 39.257,95.660 37.354,95.626 30.406 L 95.583 21.583 93.000 21.583 L 90.417 21.583 90.365 22.292 C 90.304 23.137,90.368 23.125,89.411 22.479 C 87.947 21.491,85.843 21.034,83.833 21.268 M119.333 21.326 C 116.646 21.724,112.833 24.595,112.833 26.220 C 112.833 26.337,112.774 26.505,112.701 26.592 C 111.901 27.546,111.703 31.642,112.362 33.583 C 114.265 39.193,121.466 41.670,125.750 38.188 L 126.250 37.782 126.300 38.540 C 126.362 39.478,126.411 39.495,129.053 39.498 C 131.992 39.501,131.667 40.609,131.667 30.591 C 131.667 25.881,131.621 21.909,131.566 21.764 C 131.479 21.539,131.079 21.500,128.833 21.500 C 125.954 21.500,126.000 21.483,126.000 22.528 L 126.000 23.030 125.492 22.602 C 124.180 21.499,121.673 20.979,119.333 21.326 M166.917 21.273 C 165.276 21.430,163.713 21.987,162.333 22.906 C 160.894 23.864,159.588 25.439,159.077 26.833 C 158.926 27.246,158.716 27.763,158.609 27.984 C 158.243 28.744,158.377 32.266,158.819 33.484 C 159.815 36.227,162.036 38.380,164.667 39.152 C 165.079 39.273,165.634 39.438,165.900 39.519 C 168.882 40.428,173.801 38.927,175.909 36.464 C 178.027 33.990,178.756 29.654,177.480 27.127 C 177.399 26.968,177.333 26.763,177.333 26.672 C 177.333 26.323,176.137 24.659,175.307 23.855 C 173.356 21.964,170.112 20.965,166.917 21.273 M191.083 21.276 C 189.674 21.444,188.088 22.105,187.250 22.873 C 186.574 23.493,186.525 23.467,186.467 22.458 L 186.417 21.583 183.917 21.583 L 181.417 21.583 181.374 30.406 C 181.340 37.354,181.375 39.257,181.540 39.362 C 181.804 39.529,186.182 39.539,186.440 39.372 C 186.574 39.287,186.649 37.748,186.690 34.217 C 186.735 30.479,186.804 29.130,186.958 28.975 C 187.073 28.860,187.167 28.641,187.167 28.487 C 187.167 27.456,189.146 26.313,191.167 26.178 L 192.583 26.083 192.632 24.000 C 192.701 20.987,192.753 21.077,191.083 21.276 M201.917 21.327 C 198.430 21.783,195.522 24.164,194.431 27.456 C 194.272 27.936,194.172 28.461,194.210 28.623 C 194.250 28.794,194.334 28.638,194.412 28.250 C 196.133 19.663,209.863 19.076,212.252 27.488 C 212.808 29.445,212.737 30.326,212.024 30.345 C 211.782 30.351,211.433 30.421,211.250 30.500 C 210.712 30.731,211.657 30.711,212.329 30.476 L 212.875 30.286 212.766 29.087 C 212.300 23.936,207.610 20.582,201.917 21.327 M261.167 21.319 C 259.982 21.523,258.816 21.989,257.958 22.601 C 256.986 23.295,257.000 23.295,257.000 22.597 C 257.000 21.479,257.052 21.500,254.316 21.500 L 251.833 21.500 251.833 30.397 L 251.833 39.294 252.208 39.395 C 252.699 39.526,256.562 39.530,256.903 39.399 C 257.135 39.310,257.167 38.722,257.169 34.524 C 257.171 29.301,257.280 28.455,258.090 27.393 C 259.678 25.312,263.099 25.426,264.353 27.602 C 264.715 28.229,264.729 28.425,264.798 33.667 C 264.842 36.971,264.935 39.165,265.038 39.292 C 265.251 39.553,269.532 39.584,270.011 39.327 C 270.616 39.004,270.455 28.655,269.808 26.250 C 268.850 22.694,265.219 20.622,261.167 21.319 M281.333 21.269 C 275.970 21.904,272.527 26.972,273.685 32.529 C 274.953 38.611,282.314 41.851,287.022 38.400 C 287.995 37.686,287.972 37.681,288.033 38.625 L 288.083 39.417 290.394 39.463 C 291.955 39.495,292.779 39.447,292.935 39.318 C 293.197 39.101,293.285 22.111,293.026 21.704 C 292.924 21.543,292.266 21.502,290.321 21.537 L 287.750 21.583 287.667 22.300 L 287.583 23.017 287.000 22.582 C 286.454 22.175,286.094 21.989,284.959 21.527 C 284.450 21.320,282.235 21.162,281.333 21.269 M362.917 21.265 C 352.539 22.669,350.884 35.374,360.583 39.175 C 362.320 39.855,366.011 39.850,367.750 39.165 C 369.458 38.493,370.631 37.631,371.556 36.370 C 372.501 35.083,372.556 35.162,369.649 33.606 L 368.214 32.839 367.548 33.628 C 365.456 36.103,361.355 35.599,360.057 32.707 C 359.595 31.678,359.644 29.100,360.145 28.126 C 361.577 25.340,365.275 24.849,367.382 27.164 C 368.135 27.991,368.451 28.147,368.758 27.844 C 368.845 27.759,369.629 27.315,370.500 26.859 C 372.320 25.904,372.373 25.807,371.652 24.721 C 370.640 23.198,368.869 21.999,366.917 21.516 C 366.140 21.323,363.643 21.167,362.917 21.265 M380.417 21.272 C 377.597 21.546,375.183 22.965,374.235 24.906 C 373.806 25.785,373.638 28.527,374.000 28.750 C 374.092 28.807,374.167 28.988,374.167 29.153 C 374.167 30.547,379.004 32.907,380.945 32.459 C 381.113 32.421,380.875 32.336,380.417 32.271 C 377.905 31.915,376.222 31.258,375.131 30.207 C 373.048 28.200,373.974 23.881,376.764 22.596 C 378.803 21.656,379.573 21.500,382.167 21.500 C 384.591 21.500,386.163 21.779,387.958 22.526 C 388.798 22.876,388.804 22.923,388.193 24.234 C 387.932 24.793,387.614 25.494,387.486 25.792 C 387.211 26.428,387.246 26.421,386.406 26.021 C 383.697 24.730,378.833 24.987,378.833 26.421 C 378.833 26.532,379.090 26.380,379.404 26.084 C 380.543 25.011,384.169 25.147,386.539 26.353 C 387.081 26.628,387.414 26.511,387.653 25.958 C 387.782 25.660,388.137 24.876,388.444 24.216 C 388.750 23.556,389.000 22.950,389.000 22.871 C 389.000 22.608,387.240 21.943,385.417 21.516 C 384.646 21.335,381.397 21.177,380.417 21.272 M87.474 21.757 C 88.527 22.124,89.372 22.582,89.734 22.982 C 90.254 23.557,90.500 23.428,90.500 22.583 L 90.500 21.833 92.917 21.833 L 95.333 21.833 95.333 30.500 L 95.333 39.167 93.083 39.167 L 90.833 39.167 90.833 38.333 C 90.833 37.325,90.579 37.250,89.720 38.004 C 88.617 38.972,86.992 39.500,85.114 39.500 C 74.900 39.500,72.823 24.885,82.583 21.699 C 83.405 21.430,86.647 21.469,87.474 21.757 M123.155 21.692 C 124.210 22.033,124.755 22.307,125.407 22.826 C 126.247 23.493,126.333 23.471,126.333 22.583 L 126.333 21.833 128.833 21.833 L 131.333 21.833 131.333 30.500 L 131.333 39.167 128.917 39.167 L 126.500 39.167 126.500 38.333 C 126.500 37.359,126.485 37.353,125.691 37.977 C 123.328 39.834,119.848 40.024,116.667 38.472 C 110.661 35.540,110.738 25.193,116.786 22.370 C 118.582 21.532,121.649 21.206,123.155 21.692 M170.950 21.752 C 181.646 24.535,179.369 39.500,168.250 39.500 C 157.088 39.500,154.777 24.573,165.500 21.738 C 166.613 21.444,169.798 21.452,170.950 21.752 M192.333 23.750 L 192.333 26.000 191.082 26.000 C 189.117 26.000,187.699 26.855,186.933 28.500 C 186.607 29.199,186.580 29.585,186.533 34.208 L 186.482 39.167 183.991 39.167 L 181.500 39.167 181.500 30.500 L 181.500 21.833 183.833 21.833 L 186.167 21.833 186.167 22.740 C 186.167 23.893,186.312 23.969,187.106 23.232 C 188.161 22.252,189.923 21.545,191.375 21.518 L 192.333 21.500 192.333 23.750 M264.988 21.690 C 269.269 23.057,269.975 24.800,269.991 34.042 L 270.000 39.167 267.510 39.167 L 265.021 39.167 264.964 33.708 C 264.915 28.977,264.870 28.168,264.621 27.632 C 263.409 25.018,259.061 25.040,257.650 27.667 C 257.047 28.790,257.005 29.216,257.003 34.208 L 257.000 39.167 254.500 39.167 L 252.000 39.167 252.000 30.500 L 252.000 21.833 254.333 21.833 L 256.667 21.833 256.667 22.657 C 256.667 23.552,256.841 23.809,257.176 23.405 C 258.380 21.955,262.787 20.987,264.988 21.690 M284.784 21.687 C 285.800 22.096,287.037 22.764,287.287 23.041 C 287.703 23.500,287.833 23.391,287.833 22.583 L 287.833 21.833 290.333 21.833 L 292.833 21.833 292.833 30.500 L 292.833 39.167 290.500 39.167 L 288.167 39.167 288.164 38.458 C 288.160 37.403,287.983 37.242,287.445 37.804 C 286.429 38.864,284.263 39.551,282.250 39.452 C 278.101 39.246,275.706 37.511,274.153 33.583 C 272.639 29.754,274.682 24.170,278.232 22.433 C 280.025 21.555,283.477 21.163,284.784 21.687 M309.282 21.607 C 309.019 21.870,309.155 32.095,309.436 33.195 C 310.314 36.634,313.165 38.722,316.885 38.650 C 318.595 38.617,318.637 38.367,316.936 38.350 C 313.145 38.312,310.894 36.881,309.818 33.825 C 309.461 32.810,309.436 32.447,309.373 27.292 L 309.306 21.833 311.820 21.833 L 314.333 21.833 314.333 26.331 C 314.333 31.531,314.419 32.067,315.417 33.105 C 316.754 34.496,319.109 34.545,320.665 33.213 C 321.277 32.689,321.446 32.419,321.977 31.117 C 322.102 30.809,322.167 29.160,322.167 26.242 L 322.167 21.833 324.677 21.833 L 327.188 21.833 327.118 30.458 C 327.047 39.197,327.038 39.325,326.429 40.917 C 325.421 43.548,323.360 45.081,319.917 45.761 L 318.750 45.991 319.750 45.930 C 322.581 45.757,325.136 44.069,326.329 41.583 C 327.295 39.570,327.333 39.121,327.333 29.902 L 327.333 21.492 324.708 21.537 L 322.083 21.583 321.992 26.167 C 321.890 31.329,321.811 31.752,320.728 32.918 C 320.215 33.470,318.889 34.001,318.034 33.997 C 316.481 33.991,315.232 33.105,314.748 31.667 C 314.671 31.438,314.565 29.075,314.512 26.417 L 314.417 21.583 311.907 21.537 C 310.527 21.512,309.345 21.544,309.282 21.607 M345.707 30.454 L 345.750 39.417 347.833 39.466 C 348.979 39.494,350.161 39.471,350.460 39.417 L 351.003 39.318 350.960 30.451 L 350.917 21.583 348.290 21.537 L 345.664 21.492 345.707 30.454 M366.731 21.687 C 368.803 22.251,370.476 23.344,371.402 24.739 C 372.152 25.869,372.158 25.836,371.118 26.325 C 370.641 26.549,369.803 26.985,369.257 27.293 L 368.264 27.854 367.710 27.188 C 364.081 22.819,357.542 27.433,359.892 32.704 C 361.268 35.789,365.508 36.431,367.642 33.878 C 368.371 33.007,368.142 32.988,370.076 34.083 C 370.966 34.587,371.763 35.000,371.847 35.000 C 372.100 35.000,372.022 35.306,371.601 35.962 C 370.168 38.192,367.416 39.500,364.167 39.497 C 356.681 39.488,352.292 32.759,355.478 26.178 C 357.123 22.780,362.648 20.575,366.731 21.687 M350.833 30.500 L 350.833 39.167 348.333 39.167 L 345.833 39.167 345.833 30.500 L 345.833 21.833 348.333 21.833 L 350.833 21.833 350.833 30.500 M201.958 25.404 C 200.545 25.909,199.578 27.077,199.153 28.793 C 198.811 30.175,198.630 30.149,202.833 29.320 C 203.338 29.221,204.050 29.075,204.417 28.995 C 204.783 28.915,205.608 28.759,206.250 28.648 C 207.828 28.373,207.938 28.252,207.449 27.324 C 206.506 25.538,204.020 24.669,201.958 25.404 M85.167 25.530 C 80.778 26.422,79.866 32.650,83.788 34.948 C 84.799 35.540,86.872 35.576,87.961 35.020 C 91.688 33.118,91.265 26.660,87.349 25.683 C 86.210 25.399,85.914 25.378,85.167 25.530 M121.083 25.538 C 118.354 25.981,116.334 29.320,117.326 31.750 C 117.412 31.959,117.464 31.525,117.467 30.583 C 117.487 24.687,125.070 23.739,126.135 29.500 C 127.119 34.826,120.184 37.582,117.859 32.789 C 117.671 32.401,117.513 32.180,117.508 32.298 C 117.425 34.447,121.426 36.161,123.850 35.016 C 128.672 32.737,126.323 24.689,121.083 25.538 M167.311 25.578 C 164.731 26.093,163.274 28.426,163.678 31.397 C 164.328 36.194,170.961 36.969,172.529 32.432 C 173.878 28.529,171.062 24.829,167.311 25.578 M205.546 25.767 C 206.479 26.238,207.500 27.388,207.500 27.970 C 207.500 28.163,206.685 28.368,203.750 28.913 C 202.467 29.152,201.145 29.419,200.814 29.507 C 199.486 29.859,199.280 29.767,199.414 28.879 C 199.834 26.077,202.988 24.477,205.546 25.767 M281.771 25.735 C 280.241 26.304,279.044 27.816,278.916 29.343 L 278.839 30.250 279.065 29.333 C 279.667 26.885,281.020 25.782,283.417 25.785 C 286.216 25.789,287.667 27.381,287.667 30.450 C 287.667 36.258,280.279 37.158,279.038 31.500 C 278.879 30.774,278.873 30.769,278.863 31.333 C 278.782 35.751,285.529 36.930,287.530 32.848 C 289.476 28.880,285.735 24.260,281.771 25.735 M88.167 26.254 C 91.187 28.171,91.068 33.186,87.964 34.766 C 84.038 36.765,80.057 32.231,82.072 28.056 C 83.101 25.923,86.201 25.007,88.167 26.254 M170.473 26.283 C 172.219 27.284,173.128 30.002,172.420 32.105 C 170.663 37.329,163.549 35.701,163.865 30.147 C 164.068 26.568,167.486 24.570,170.473 26.283 M378.837 27.304 C 378.827 27.880,379.666 28.236,382.043 28.666 C 386.336 29.440,387.308 29.794,388.369 30.969 C 390.654 33.499,389.105 37.776,385.518 38.843 C 382.063 39.871,378.754 39.727,375.137 38.391 C 373.509 37.790,373.488 37.736,374.260 36.115 C 375.250 34.036,375.126 34.146,376.001 34.568 C 379.767 36.382,384.637 36.133,384.661 34.125 C 384.671 33.305,382.933 32.346,381.792 32.541 C 381.516 32.588,381.594 32.637,382.083 32.727 C 384.021 33.080,384.672 33.567,384.379 34.446 C 383.907 35.862,379.871 35.935,376.642 34.584 C 375.013 33.903,375.028 33.904,374.826 34.440 C 374.728 34.702,374.352 35.512,373.992 36.239 C 373.174 37.891,373.189 37.917,375.583 38.834 C 376.030 39.005,377.055 39.267,378.138 39.487 C 379.206 39.703,383.255 39.726,383.933 39.519 C 384.199 39.438,384.754 39.273,385.167 39.152 C 389.126 37.990,390.830 34.276,388.802 31.227 C 387.942 29.935,386.671 29.324,383.667 28.762 C 379.968 28.070,379.556 27.949,379.129 27.432 C 378.952 27.218,378.839 27.169,378.837 27.304 M194.088 30.917 C 194.177 34.195,195.481 36.474,198.250 38.193 C 201.970 40.502,208.070 40.141,210.958 37.441 C 211.690 36.757,211.688 36.750,210.147 35.103 L 208.794 33.657 208.272 34.054 C 205.764 35.964,201.609 35.684,200.116 33.505 C 199.731 32.943,199.758 32.835,200.292 32.822 C 200.971 32.804,201.576 32.528,200.969 32.512 C 198.371 32.444,200.281 34.917,203.282 35.506 C 204.927 35.828,206.921 35.338,208.454 34.233 C 208.868 33.934,208.745 33.842,210.558 35.803 C 211.269 36.572,211.339 36.711,211.142 36.963 C 209.657 38.861,204.989 40.045,201.877 39.313 C 196.899 38.143,194.563 35.523,194.167 30.667 L 194.038 29.083 194.088 30.917 M208.833 30.933 C 208.237 31.056,207.338 31.240,206.833 31.342 C 206.329 31.444,205.617 31.592,205.250 31.672 C 204.883 31.751,204.058 31.904,203.417 32.012 C 202.775 32.119,202.063 32.267,201.833 32.340 C 200.996 32.608,202.052 32.505,203.833 32.145 C 205.480 31.812,206.040 31.705,208.083 31.337 C 210.089 30.975,210.714 30.841,210.799 30.757 C 210.947 30.609,209.990 30.695,208.833 30.933 M321.167 37.095 C 320.754 37.399,320.004 37.779,319.500 37.941 C 318.994 38.103,318.712 38.262,318.871 38.296 C 319.180 38.361,321.167 37.531,321.167 37.337 C 321.167 37.273,321.354 37.135,321.583 37.030 C 322.103 36.794,322.153 37.340,321.742 38.754 C 321.091 40.991,319.918 41.697,317.000 41.607 C 314.433 41.529,313.573 41.297,311.767 40.194 C 311.242 39.874,311.089 39.841,310.974 40.024 C 310.020 41.542,309.167 43.176,309.167 43.486 C 309.167 43.839,309.330 43.986,310.250 44.458 C 312.006 45.359,314.331 46.012,315.667 45.979 L 316.417 45.960 315.500 45.814 C 313.231 45.451,311.514 44.930,310.241 44.219 C 309.255 43.668,309.214 43.526,309.763 42.555 C 310.013 42.112,310.412 41.394,310.648 40.958 C 311.131 40.070,311.187 40.047,311.808 40.464 C 312.051 40.628,312.438 40.843,312.667 40.942 C 312.896 41.041,313.271 41.205,313.500 41.306 C 317.811 43.211,322.167 41.273,322.167 37.449 C 322.167 36.465,322.069 36.431,321.167 37.095 " stroke="none" fill="#9fa4ab" fill-rule="evenodd"></path><path id="path4" d="M19.250 12.114 C 8.556 13.492,1.382 25.082,4.941 35.229 C 5.171 35.882,5.403 36.567,5.458 36.750 C 6.267 39.442,10.157 43.605,13.542 45.401 C 15.327 46.348,20.008 47.733,19.000 47.016 C 18.862 46.918,18.473 46.837,18.135 46.836 C 17.796 46.834,17.473 46.758,17.417 46.667 C 17.360 46.575,17.130 46.500,16.905 46.500 C 16.680 46.500,16.365 46.434,16.206 46.353 C 16.047 46.272,15.729 46.127,15.500 46.031 C 12.171 44.637,9.715 42.784,7.817 40.233 C 7.414 39.692,7.044 39.212,6.993 39.167 C 6.942 39.121,6.693 38.654,6.440 38.128 C 6.186 37.603,5.908 37.130,5.823 37.077 C 5.737 37.024,5.667 36.834,5.667 36.655 C 5.667 36.475,5.600 36.199,5.519 36.039 C 5.124 35.261,4.867 34.415,4.498 32.667 C 4.183 31.178,4.454 25.484,4.851 25.239 C 4.933 25.188,5.000 24.963,5.000 24.738 C 5.000 24.513,5.069 24.199,5.153 24.039 C 5.237 23.880,5.465 23.375,5.660 22.917 C 6.328 21.345,6.583 20.837,6.708 20.835 C 6.777 20.834,6.835 20.740,6.838 20.625 C 6.874 18.910,12.685 14.220,16.083 13.161 C 16.450 13.047,16.900 12.895,17.083 12.823 C 17.701 12.580,18.410 12.465,19.945 12.357 C 20.786 12.298,21.529 12.194,21.598 12.125 C 21.722 12.000,20.192 11.993,19.250 12.114 M22.067 12.140 C 22.143 12.263,22.723 12.333,23.667 12.333 C 24.481 12.333,25.193 12.408,25.250 12.500 C 25.307 12.592,25.512 12.667,25.706 12.667 C 26.082 12.667,27.058 12.944,27.539 13.187 C 27.699 13.268,27.903 13.333,27.993 13.333 C 28.270 13.333,30.043 14.201,30.780 14.697 C 31.163 14.956,31.525 15.167,31.583 15.167 C 31.920 15.167,34.734 17.796,35.596 18.917 C 36.826 20.516,37.688 22.115,38.247 23.833 C 38.411 24.337,38.605 24.900,38.677 25.083 C 39.202 26.408,39.461 32.439,39.012 32.888 C 38.914 32.986,38.833 33.252,38.833 33.479 C 38.833 34.861,37.220 38.303,35.504 40.583 C 34.502 41.914,30.788 45.000,30.188 45.000 C 30.100 45.000,30.003 45.060,29.972 45.134 C 29.942 45.208,29.392 45.478,28.750 45.734 C 28.108 45.990,27.453 46.267,27.294 46.350 C 27.135 46.432,26.820 46.500,26.595 46.500 C 26.370 46.500,26.140 46.575,26.083 46.667 C 26.027 46.758,25.704 46.834,25.365 46.836 C 25.027 46.837,24.637 46.911,24.500 47.000 C 23.626 47.565,26.757 46.826,28.723 46.003 C 42.845 40.095,43.022 19.641,29.005 13.501 C 26.510 12.408,21.642 11.453,22.067 12.140 M21.958 19.065 C 21.644 19.304,21.561 20.082,21.833 20.250 C 22.199 20.476,21.979 21.116,21.333 21.710 L 20.667 22.323 20.667 24.161 L 20.667 26.000 20.167 26.000 L 19.667 26.000 19.667 24.686 C 19.667 23.508,19.628 23.346,19.292 23.122 C 19.085 22.984,18.754 22.732,18.556 22.561 C 18.357 22.390,18.031 22.113,17.830 21.945 C 17.468 21.643,17.464 21.564,17.753 20.500 C 17.849 20.146,17.813 20.165,17.516 20.629 C 16.964 21.492,17.030 21.648,18.417 22.739 C 18.875 23.100,19.287 23.425,19.333 23.461 C 19.379 23.497,19.454 24.102,19.500 24.805 L 19.583 26.083 20.208 26.135 L 20.833 26.187 20.833 24.337 L 20.833 22.488 21.583 21.759 C 22.361 21.003,22.512 20.522,22.083 20.167 C 21.577 19.746,22.017 19.044,22.659 19.247 C 23.019 19.362,23.141 20.060,22.833 20.250 C 22.742 20.307,22.667 20.565,22.667 20.824 C 22.667 21.166,22.474 21.469,21.958 21.934 L 21.250 22.574 21.250 24.226 C 21.250 25.964,21.420 26.361,22.061 26.115 C 22.286 26.028,22.333 25.740,22.333 24.441 C 22.333 22.912,22.345 22.864,22.792 22.577 C 23.044 22.415,23.565 21.944,23.949 21.530 C 24.545 20.889,24.687 20.809,24.907 20.992 C 25.397 21.398,25.238 22.000,24.641 22.000 C 24.307 22.000,23.854 22.197,23.396 22.542 L 22.677 23.083 22.672 24.635 L 22.667 26.187 23.292 26.135 L 23.917 26.083 23.966 24.874 L 24.015 23.665 25.096 22.798 C 26.307 21.827,26.499 21.415,26.074 20.696 C 25.713 20.085,25.853 19.667,26.417 19.667 C 26.920 19.667,27.134 20.080,26.860 20.520 C 26.754 20.690,26.667 21.090,26.667 21.410 C 26.667 21.924,26.543 22.089,25.583 22.858 L 24.500 23.726 24.500 24.958 C 24.500 26.655,25.188 26.781,25.336 25.112 C 25.402 24.370,25.501 24.097,25.753 23.960 C 25.935 23.861,26.444 23.416,26.885 22.972 C 27.573 22.280,27.734 22.191,28.020 22.344 C 28.582 22.645,28.364 23.239,27.667 23.305 C 26.595 23.407,25.640 24.380,25.700 25.310 L 25.750 26.083 27.917 26.185 C 30.836 26.321,30.561 25.724,30.667 32.167 L 30.750 37.250 31.500 37.333 C 32.532 37.448,32.706 38.518,31.826 39.341 L 31.298 39.833 21.774 39.833 L 12.250 39.832 11.780 39.456 C 11.389 39.143,11.306 38.941,11.280 38.248 L 11.250 37.417 12.083 37.333 L 12.917 37.250 13.000 31.972 C 13.046 29.069,13.121 26.660,13.167 26.620 C 13.541 26.286,14.216 26.167,15.736 26.167 C 17.702 26.167,17.841 26.064,17.602 24.791 C 17.490 24.196,16.358 23.333,15.691 23.333 C 15.408 23.333,15.333 23.233,15.333 22.851 C 15.333 22.208,15.823 22.007,16.167 22.510 C 16.553 23.075,17.215 23.753,17.580 23.956 C 17.831 24.096,17.931 24.372,17.997 25.112 C 18.081 26.061,18.095 26.083,18.583 26.083 L 19.083 26.083 19.132 24.977 L 19.181 23.871 18.216 23.061 C 17.029 22.065,17.007 22.035,16.997 21.417 C 16.992 21.142,16.886 20.733,16.762 20.508 C 16.372 19.804,17.063 19.296,17.633 19.867 C 17.789 20.022,17.833 20.008,17.833 19.801 C 17.833 19.508,17.171 19.278,16.770 19.432 C 16.369 19.586,16.285 20.119,16.572 20.693 C 16.716 20.982,16.833 21.428,16.833 21.686 C 16.833 22.171,17.274 22.683,18.291 23.380 C 18.978 23.851,19.150 26.000,18.500 26.000 C 18.209 26.000,18.166 25.888,18.164 25.125 C 18.161 24.125,18.138 24.079,17.292 23.449 C 16.948 23.193,16.667 22.886,16.667 22.767 C 16.667 22.167,15.676 21.800,15.238 22.238 C 14.668 22.809,15.118 23.667,15.988 23.667 C 16.270 23.667,16.500 23.729,16.500 23.805 C 16.500 23.881,16.688 24.044,16.917 24.167 C 17.273 24.357,17.333 24.507,17.333 25.195 L 17.333 26.000 15.446 26.000 C 12.637 26.000,12.833 25.557,12.833 31.886 L 12.833 37.000 12.180 37.000 C 11.099 37.000,11.000 37.094,11.000 38.118 C 11.000 38.927,11.060 39.089,11.518 39.516 L 12.035 40.000 21.797 40.000 L 31.560 40.000 32.113 39.396 C 33.147 38.267,32.849 37.000,31.550 37.000 L 30.833 37.000 30.833 31.939 C 30.833 25.533,31.057 26.000,27.988 26.000 L 25.833 26.000 25.833 25.345 C 25.833 24.533,26.743 23.667,27.595 23.667 C 28.502 23.667,28.966 22.823,28.362 22.276 C 27.876 21.836,27.517 21.946,26.683 22.792 C 26.253 23.227,25.698 23.760,25.450 23.976 C 25.076 24.302,25.000 24.506,25.000 25.184 C 25.000 25.633,24.925 26.000,24.833 26.000 C 24.244 26.000,24.675 23.855,25.374 23.306 C 26.757 22.220,26.833 22.128,26.833 21.547 C 26.833 21.240,26.951 20.808,27.095 20.589 C 27.564 19.873,26.778 19.084,26.006 19.497 C 25.645 19.690,25.525 20.560,25.833 20.750 C 26.174 20.960,26.019 21.911,25.602 22.170 C 25.383 22.306,24.895 22.670,24.519 22.980 L 23.833 23.543 23.833 24.772 L 23.833 26.000 23.333 26.000 L 22.833 26.000 22.833 24.583 C 22.833 23.804,22.890 23.167,22.958 23.166 C 23.027 23.166,23.301 22.979,23.568 22.750 C 23.834 22.521,24.211 22.333,24.406 22.333 C 25.302 22.333,25.787 21.478,25.195 20.942 C 24.712 20.505,23.843 20.765,23.827 21.352 C 23.824 21.479,23.411 21.868,22.910 22.215 L 22.000 22.847 22.000 24.424 C 22.000 25.714,21.955 26.000,21.750 26.000 C 21.544 26.000,21.501 25.701,21.504 24.292 L 21.508 22.583 22.170 22.010 C 22.688 21.562,22.833 21.318,22.833 20.899 C 22.833 20.603,22.898 20.336,22.978 20.306 C 23.327 20.172,23.345 19.511,23.009 19.175 C 22.614 18.781,22.367 18.755,21.958 19.065 M13.815 26.610 C 13.146 26.789,12.755 36.618,13.395 37.149 C 13.721 37.419,29.777 37.421,30.103 37.150 C 30.527 36.798,30.432 27.265,30.000 26.833 C 29.686 26.519,14.918 26.316,13.815 26.610 M29.961 31.958 L 30.005 37.000 21.752 37.000 L 13.500 37.000 13.502 32.292 C 13.504 29.702,13.550 27.414,13.605 27.207 L 13.706 26.830 21.812 26.873 L 29.917 26.917 29.961 31.958 M14.276 27.471 C 13.899 27.888,13.855 36.005,14.227 36.315 C 14.391 36.451,16.551 36.491,21.936 36.460 L 29.417 36.417 29.461 32.033 C 29.498 28.389,29.465 27.608,29.265 27.408 C 28.851 26.993,14.654 27.054,14.276 27.471 M29.083 31.917 L 29.083 36.250 21.750 36.250 L 14.417 36.250 14.372 32.086 C 14.347 29.796,14.364 27.827,14.409 27.710 C 14.474 27.540,15.985 27.505,21.787 27.540 L 29.083 27.583 29.083 31.917 M14.744 28.038 C 14.698 28.159,14.682 29.981,14.708 32.087 L 14.757 35.917 14.795 31.958 L 14.833 28.000 16.083 28.000 L 17.333 28.000 17.333 28.537 C 17.333 29.181,16.490 29.999,15.825 30.000 C 14.953 30.000,14.647 31.088,15.405 31.494 C 15.924 31.771,16.283 31.630,16.540 31.046 C 16.652 30.792,16.796 30.544,16.861 30.497 C 18.042 29.628,18.167 29.460,18.167 28.732 C 18.167 28.111,18.217 28.000,18.500 28.000 C 19.233 28.000,18.962 29.705,18.125 30.356 C 17.090 31.161,16.833 31.494,16.833 32.031 C 16.833 32.296,16.713 32.696,16.565 32.921 C 16.039 33.724,16.691 34.600,17.494 34.170 C 17.873 33.967,17.970 33.037,17.646 32.712 C 17.307 32.373,17.663 31.764,18.674 30.953 L 19.667 30.156 19.667 29.078 L 19.667 28.000 20.167 28.000 L 20.667 28.000 20.667 29.153 C 20.667 29.787,20.710 30.419,20.763 30.557 C 20.896 30.904,19.937 31.730,19.281 31.833 C 18.917 31.891,18.738 32.020,18.704 32.250 C 18.659 32.555,18.670 32.558,18.835 32.292 C 18.935 32.131,19.178 32.000,19.374 32.000 C 20.162 32.000,21.042 31.158,20.935 30.508 C 20.881 30.183,20.836 29.443,20.835 28.865 L 20.833 27.813 20.208 27.865 L 19.583 27.917 19.534 28.950 L 19.485 29.984 18.451 30.842 C 17.150 31.922,17.025 32.169,17.417 32.896 C 17.781 33.571,17.657 34.000,17.100 34.000 C 16.573 34.000,16.361 33.430,16.735 33.017 C 16.881 32.856,17.000 32.497,17.000 32.221 C 17.000 31.658,17.223 31.371,18.383 30.440 L 19.182 29.798 19.133 28.857 C 19.063 27.536,18.144 27.376,18.000 28.661 C 17.929 29.295,17.816 29.480,17.234 29.911 C 16.859 30.189,16.469 30.629,16.369 30.888 C 16.134 31.492,15.447 31.468,15.360 30.852 C 15.299 30.417,15.560 30.173,16.092 30.169 C 16.727 30.164,17.697 29.095,17.636 28.467 L 17.583 27.917 16.206 27.868 C 15.187 27.832,14.806 27.877,14.744 28.038 M21.375 27.941 C 21.227 28.002,21.167 28.530,21.167 29.753 L 21.167 31.477 20.664 31.835 C 20.388 32.032,20.048 32.412,19.910 32.680 C 19.628 33.224,19.319 33.295,18.929 32.905 C 18.731 32.707,18.667 32.697,18.667 32.865 C 18.667 33.568,19.867 33.514,20.094 32.801 C 20.143 32.645,20.480 32.272,20.842 31.973 L 21.500 31.428 21.500 29.714 C 21.500 28.302,21.544 28.000,21.750 28.000 C 21.958 28.000,22.000 28.321,22.000 29.890 L 22.000 31.780 22.667 32.397 C 23.367 33.045,23.456 33.308,23.142 33.810 C 22.652 34.596,23.510 35.417,24.288 34.907 C 24.722 34.623,24.764 34.226,24.411 33.760 C 24.277 33.582,24.167 33.266,24.167 33.058 C 24.167 32.831,23.901 32.434,23.500 32.063 L 22.833 31.446 22.833 29.723 L 22.833 28.000 23.333 28.000 L 23.833 28.000 23.833 29.166 L 23.833 30.331 24.913 31.041 C 25.990 31.748,26.394 32.570,25.833 32.917 C 25.470 33.141,25.649 34.002,26.094 34.171 C 26.938 34.492,27.506 33.817,27.082 32.998 C 26.945 32.733,26.833 32.263,26.833 31.953 C 26.833 31.445,26.725 31.315,25.750 30.654 L 24.667 29.919 24.667 28.960 C 24.667 28.431,24.742 28.000,24.833 28.000 C 24.925 28.000,25.000 28.298,25.000 28.661 C 25.000 29.269,25.074 29.377,25.904 29.991 C 26.401 30.358,26.853 30.799,26.907 30.971 C 27.124 31.654,28.398 31.743,28.535 31.085 C 28.554 30.992,28.613 32.042,28.667 33.417 C 28.758 35.777,28.766 35.691,28.798 31.869 L 28.833 27.821 27.292 27.869 L 25.750 27.917 25.701 28.419 C 25.629 29.152,27.088 30.481,27.705 30.244 C 28.042 30.115,28.383 30.581,28.253 30.992 C 28.096 31.485,27.532 31.417,27.217 30.866 C 27.069 30.610,26.590 30.162,26.151 29.872 C 25.429 29.394,25.348 29.276,25.302 28.630 C 25.201 27.242,24.500 27.519,24.500 28.947 L 24.501 30.083 25.353 30.667 C 25.822 30.988,26.283 31.299,26.377 31.358 C 26.541 31.461,26.817 32.626,26.884 33.500 C 26.911 33.837,26.832 33.926,26.473 33.968 C 25.906 34.034,25.695 33.504,26.073 32.965 C 26.574 32.248,26.413 31.895,25.174 30.994 L 24.015 30.151 23.966 29.034 L 23.917 27.917 23.333 27.917 L 22.750 27.917 22.702 29.741 L 22.655 31.565 23.327 32.180 C 23.832 32.642,24.000 32.922,24.000 33.304 C 24.000 33.584,24.075 33.860,24.167 33.917 C 24.447 34.090,24.352 34.645,24.012 34.827 C 23.418 35.145,22.981 34.476,23.411 33.907 C 23.800 33.393,23.713 33.072,23.005 32.401 L 22.343 31.774 22.297 29.845 C 22.248 27.822,22.149 27.617,21.375 27.941 M28.667 29.276 C 28.667 30.501,28.655 30.541,28.362 30.276 C 28.194 30.124,27.887 30.000,27.679 30.000 C 27.471 30.000,27.065 29.834,26.776 29.630 C 25.213 28.532,25.368 28.000,27.250 28.000 L 28.667 28.000 28.667 29.276 M11.594 37.816 C 11.543 37.898,11.549 38.201,11.606 38.489 C 11.815 39.533,11.479 39.500,21.765 39.500 C 32.351 39.500,32.000 39.543,32.000 38.238 L 32.000 37.667 28.426 37.667 C 24.909 37.667,24.848 37.673,24.590 38.042 C 24.151 38.669,20.276 38.711,19.545 38.096 L 19.035 37.667 15.361 37.667 C 13.340 37.667,11.645 37.734,11.594 37.816 M19.667 37.816 C 19.667 38.089,20.181 38.167,22.000 38.167 C 23.847 38.167,24.402 38.080,24.239 37.816 C 24.119 37.621,19.667 37.621,19.667 37.816 M19.333 38.250 C 19.714 38.655,19.787 38.667,22.030 38.667 C 24.282 38.667,24.344 38.657,24.698 38.250 L 25.060 37.833 28.447 37.833 L 31.833 37.833 31.833 38.262 C 31.833 39.197,32.169 39.167,21.795 39.167 C 11.529 39.167,11.833 39.193,11.833 38.300 L 11.833 37.833 15.388 37.833 L 18.942 37.833 19.333 38.250 M20.167 47.342 C 21.144 47.516,22.579 47.516,23.417 47.343 C 23.889 47.245,23.403 47.205,21.750 47.207 C 20.064 47.208,19.625 47.245,20.167 47.342 " stroke="none" fill="#d6a082" fill-rule="evenodd"></path></g></svg>